<svg xmlns="http://www.w3.org/2000/svg" viewBox="0 0 1024 1024" width="24" height="24">
  <path d="M908.595 190.396v-59.362c0-89.388-87.55-152.498-172.323-124.198l-676.325 181.445c-0.247 0.067-0.469 0.157-0.712 0.226-0.727 0.209-1.442 0.439-2.152 0.682-20.431 6.765-29.89 24.132-29.771 41.508 0 0.047-0.006 0.095-0.006 0.142v749.096c0 24.337 19.728 44.064 44.064 44.064h808.23c64.698 0 117.124-52.423 117.124-117.124v-602.978c0-54.691-37.461-100.604-88.129-113.503zM761.651 91.191c30.217-10.005 58.816 10.612 58.816 39.843v55.741h-414.938l356.122-95.584zM908.595 906.876c0 16.027-12.968 28.995-28.995 28.995h-764.166v-660.967h764.166c16.027 0 28.995 12.968 28.995 28.995v602.978z" fill="currentColor"/>
  <path d="M727.886 515.735l-121.874-17.729-54.48-110.409c-16.163-32.754-62.869-32.754-79.030 0l-54.48 110.409-121.874 17.729c-36.134 5.256-50.562 49.659-24.421 75.153l88.161 85.973-20.806 121.354c-6.171 35.994 31.609 63.444 63.934 46.451l109.001-57.301 109.001 57.301c32.325 16.993 70.105-10.455 63.934-46.451l-20.806-121.354 88.161-85.973c26.14-25.494 11.711-69.896-24.423-75.153zM586.036 629.935c-10.379 10.123-15.117 24.705-12.666 38.993l9.635 56.189-50.485-26.54c-12.836-6.747-28.171-6.747-41.007 0l-50.485 26.54 9.635-56.189c2.451-14.291-2.287-28.872-12.666-38.993l-40.85-39.834 56.483-8.217c14.351-2.087 26.755-11.102 33.173-24.106l25.214-51.1 25.214 51.1c6.416 13.004 18.822 22.019 33.173 24.106l56.483 8.217-40.852 39.834z" fill="currentColor"/>
</svg>