<svg xmlns="http://www.w3.org/2000/svg" viewBox="0 0 1024 1024" width="24" height="24">
  <path d="M1019.788 398.76l-180.749-230.042c0.4-31.525-44.913-64.703-162.329-101.087l-49.499-46.085-0.658 0.658c-4.252-4.837-11.181-7.513-18.118-5.779l-3.414 1.706c-61.446 20.482-126.307 20.482-186.046 0l-3.414-1.706c-9.173-2.294-18.336 3.12-21.3 11.059l-41.854 41.854c-106.011 32.847-151.938 63.085-160.637 90.708l-187.556 238.713c-6.827 6.827-5.121 18.776 3.414 23.897l119.479 85.343c5.121 3.414 11.947 3.414 17.068 1.706l97.29-51.425v532.756c0 10.241 6.827 17.068 17.068 17.068h512.054c10.241 0 17.068-6.827 17.068-17.068v-530.050l92.17 48.719c5.121 3.414 11.947 1.706 17.068-1.706l119.479-85.343c8.539-5.123 10.245-17.070 3.418-23.897zM584.37 60.838l-52.742 116.032c-6.827 15.362-29.017 15.362-35.844 0l-52.742-116.030c45.979 10.191 93.652 10.189 141.327-0.002zM239.757 420.948l-100.703 52.914-95.584-68.273 167.076-213.108c8.443 8.535 15.908 25.931 22.384 49.249 3.414 13.655 5.121 29.017 6.827 46.085 0 5.121 1.706 10.241 1.706 15.362 0 1.454 0 2.578 0 3.414 0 1.126 0 1.706 0 1.706v112.652h-1.706zM273.895 972.261v-665.67c0-1.706 0-3.414 0-6.827 0-5.121 0-10.241-1.706-17.068-1.706-17.068-5.121-34.138-8.535-49.499-7.995-31.983-19.112-56.682-35.788-70.037 1.688-1.688 3.394-3.394 6.771-6.771 22.188-17.068 63.153-35.844 129.72-56.326 3.414 0 5.121-1.706 6.827-5.121l33.498-33.498 58.672 129.080c18.776 40.964 78.514 40.964 97.29 0l58.672-129.080 33.498 33.498c1.706 1.706 5.121 3.414 6.827 5.121 66.567 20.482 107.531 39.258 129.72 56.326 3.414 1.706 5.121 5.121 6.827 6.827-17.068 13.655-27.309 37.55-35.844 69.981-3.414 15.362-6.827 32.429-8.535 49.499 0 5.121-1.706 11.947-1.706 17.068 0 3.414 0 5.121 0 6.827l1.706 665.67h-477.912zM886.654 472.154l-98.996-50.337v-115.226c0 0 0-1.706 0-5.121 0-5.121 0-10.241 1.706-15.362 1.706-15.362 3.414-30.723 6.827-46.085 4.839-21.77 12.251-38.358 20.408-47.415l165.637 211.272-95.582 68.273z" fill="currentColor"/>
  <path d="M704.020 420.948l-126.307-15.362-47.791-102.411c-6.827-13.655-25.603-13.655-30.723 0l-47.791 102.411-126.307 15.362c-15.362 1.706-20.482 20.482-8.535 30.723l95.584 78.514-13.655 116.066c-1.706 15.362 15.362 23.897 27.309 15.362l88.755-61.446 88.755 61.446c11.947 8.535 29.017-1.706 27.309-15.362l-13.655-116.066 95.584-78.514c11.951-10.241 6.831-29.017-8.531-30.723zM587.954 509.704c-5.121 3.414-6.827 10.241-6.827 15.362l10.241 87.049-68.273-47.791c-5.121-3.414-13.655-3.414-18.776 0l-68.273 47.791 8.535-87.049c0-5.121-1.706-11.947-6.827-15.362l-71.688-58.032 97.29-11.947c5.121 0 10.241-5.121 13.655-10.241l35.844-76.808 35.844 76.808c1.706 5.121 6.827 8.535 13.655 10.241l97.29 11.947-71.692 58.032z" fill="currentColor"/>
</svg>