<svg xmlns="http://www.w3.org/2000/svg" viewBox="0 0 1024 1024" width="24" height="24">
  <path d="M1000.996 23.054c-14.854-14.854-34.61-23.036-55.618-23.036-21.014 0-40.762 8.182-55.626 23.036l-20.272 20.272c-33.644 33.644-55.264 38.284-73.614 38.284-0.004 0-0.004 0-0.008 0-6.696 0-13.382-0.668-20.464-1.374-7.602-0.758-15.454-1.54-23.83-1.54-26.344 0-49.252 8.582-72.348 27.412-14.238-10.394-31.376-16.016-49.418-16.016-22.466 0-43.542 8.702-59.342 24.504-15.782 15.784-24.484 36.828-24.504 59.262-11.164-2.954-22.784-4.51-34.66-4.51-35.834 0-69.444 13.874-94.636 39.064l-377.524 377.524c-52.176 52.178-52.176 137.076 0 189.254l209.732 209.734c25.188 25.188 58.794 39.060 94.626 39.060 35.834 0 69.444-13.872 94.63-39.060l377.524-377.524c25.188-25.192 39.064-58.798 39.064-94.632 0-11.876-1.558-23.502-4.512-34.664 22.434-0.024 43.476-8.722 59.256-24.502 15.804-15.8 24.508-36.876 24.508-59.344 0.004-18.054-5.63-35.204-16.034-49.448 31.564-38.942 28.464-70.346 25.888-96.14-2.78-27.902-5.184-51.998 36.91-94.092l20.276-20.272c30.666-30.674 30.666-80.578-0.004-111.252zM798.758 560.344l-83.91-83.912c-8.334-8.33-21.838-8.33-30.172-0.002-8.334 8.33-8.334 21.84 0 30.17l85.712 85.714-64.21 64.208-85.712-85.714c-8.334-8.33-21.838-8.33-30.172 0s-8.334 21.84 0 30.17l85.716 85.716-64.216 64.21-85.704-85.714c-8.334-8.33-21.838-8.33-30.172 0s-8.334 21.84 0 30.17l85.712 85.712-64.21 64.208-85.716-85.714c-8.334-8.33-21.838-8.33-30.172 0.002-8.328 8.33-8.328 21.84 0 30.17l85.716 85.714-64.208 64.208-97.38-97.386c-8.334-8.33-21.838-8.33-30.172 0s-8.334 21.84 0 30.17l95.586 95.59c-14.146 8.644-30.48 13.28-47.586 13.28-24.436-0.002-47.326-9.436-64.454-26.564l-209.732-209.732c-35.542-35.542-35.542-93.372 0-128.912l362.44-362.44 55.518 55.512c4.166 4.166 9.626 6.248 15.084 6.248 5.464 0 10.92-2.084 15.088-6.248 8.328-8.334 8.328-21.84-0.004-30.17l-53.718-53.712c14.142-8.644 30.48-13.28 47.582-13.28 24.434 0 47.322 9.434 64.452 26.562l209.732 209.73c17.128 17.13 26.568 40.022 26.568 64.458-0.006 17.1-4.644 33.436-13.286 47.578zM879.284 423.428c-7.746 7.744-18.104 12.008-29.176 12.008-11.068 0-21.422-4.262-29.164-12.004l-220.322-220.32c-7.742-7.742-12.008-18.1-12.008-29.168s4.266-21.432 12.014-29.176c7.742-7.742 18.1-12.006 29.172-12.006 11.070 0 21.434 4.264 29.176 12.006l5.124 5.122c0.018 0.020 0.030 0.038 0.050 0.056l209.964 209.962c0.018 0.016 0.034 0.032 0.054 0.046l5.12 5.124c7.742 7.742 12.004 18.104 12.004 29.174 0 11.072-4.262 21.432-12.008 29.176zM970.826 104.132l-20.276 20.274c-56.386 56.388-52.396 96.37-49.194 128.496 2.138 21.448 3.792 38.020-13.142 60.766l-177.802-177.802c16.796-12.444 29.672-14.5 41.146-14.5 6.25 0 12.734 0.646 19.596 1.332 7.804 0.778 15.878 1.582 24.692 1.582 0.004 0 0.004 0 0.008 0 36.66 0 68.674-15.664 103.79-50.782l20.272-20.272c6.802-6.8 15.838-10.542 25.456-10.542 9.614 0 18.65 3.742 25.452 10.538 14.038 14.038 14.038 36.878 0.002 50.91z" fill="currentColor"/>
  <path d="M281.954 798.582c-8.334-8.33-21.838-8.33-30.172 0s-8.334 21.84 0 30.172l0.358 0.36c4.166 4.166 9.626 6.248 15.088 6.248 5.46 0 10.916-2.082 15.084-6.248 8.334-8.33 8.334-21.84 0-30.172l-0.358-0.36z" fill="currentColor"/>
  <path d="M560.654 322.24c-8.392-8.27-21.902-8.174-30.17 0.22-8.272 8.392-8.17 21.9 0.222 30.17l0.356 0.356c4.158 4.096 9.566 6.138 14.976 6.138 5.512 0 11.022-2.122 15.196-6.358 8.272-8.392 8.17-21.9-0.222-30.17l-0.358-0.356z" fill="currentColor"/>
</svg>