<svg xmlns="http://www.w3.org/2000/svg" viewBox="0 0 1024 1024" width="24" height="24">
  <path d="M1023.056 748.582l-13.342-66.696c-0.060-0.292-0.426-1.636-0.448-1.71-22.248-73.898-108.966-69.758-185.5-66.094-16.34 0.78-31.798 1.5-46.654 1.576-21.64-6.81-42.348-14.748-62.158-23.628 1.638-6.738-1.248-14.020-7.56-17.664-7.030-4.062-15.844-2.176-20.676 4.070-14.904-7.678-29.256-15.88-43.076-24.53 4.046-6.832 2.502-15.766-3.922-20.784-6.98-5.452-17.058-4.214-22.506 2.766l-0.256 0.33c-14.154-9.922-27.694-20.288-40.636-30.99 3.71-6.164 2.924-14.274-2.392-19.59-5.87-5.872-15.166-6.236-21.462-1.096-13.292-12.078-25.902-24.464-37.816-37.028 6.588-5.736 7.39-15.714 1.738-22.418-5.704-6.77-15.82-7.634-22.594-1.926l-0.716 0.602c-10.978-12.604-21.288-25.286-30.984-37.908 3.884-4.636 4.982-11.27 2.246-17.106-3.672-7.834-12.864-11.286-20.76-7.942-11.224-15.79-21.456-31.326-30.744-46.332 6.066-4.384 8.406-12.572 5.18-19.642-3.678-8.058-13.188-11.606-21.244-7.93l-0.268 0.122c-10.634-18.624-19.698-36.028-27.272-51.566 7.11-3.688 10.506-12.184 7.614-19.866-3.122-8.288-12.376-12.474-20.656-9.356l-0.444 0.166c-3.494-7.928-6.444-14.976-8.854-20.954-7.728-19.166-26.032-31.552-46.632-31.552h-215.984c-17.938 0-32.802 14.65-33.126 32.658-1.066 58.772-7.498 135.296-14.306 216.312-8.932 106.282-18.984 226.226-19.674 336.65-10.226 5.646-17.172 16.532-17.172 29.018v51.308c0 27.702 22.538 50.24 50.24 50.24h656.020c106.794 0 227.544-44.096 279.106-62.926 27.542-10.058 42.686-33.602 37.69-58.584zM790.708 647.504c11.458-0.304 23.146-0.844 34.588-1.392 74.606-3.568 127.074-3.234 147.378 30.026-74.436 28.628-135.772 43.584-181.968 51.31v-79.944zM974.368 777.044c-49.968 18.25-166.986 60.98-268.106 60.98h-656.022c-10.020 0-18.172-8.152-18.172-18.172v-51.308c0-0.59 0.478-1.068 1.068-1.068h51.304c8.856 0 16.034-7.178 16.034-16.034s-7.178-16.034-16.034-16.034h-35.18c0.914-108.006 10.772-225.544 19.538-329.846 6.854-81.556 13.328-158.59 14.414-218.414 0.010-0.67 0.468-1.174 1.064-1.174h134.2c2.974 8.218 8.448 22.628 16.676 41.616 2.622 6.048 8.524 9.664 14.722 9.664 2.128 0 4.288-0.426 6.366-1.326 8.124-3.52 11.858-12.962 8.338-21.088-5.024-11.592-8.948-21.328-11.858-28.866h47.534c7.448 0 14.078 4.504 16.89 11.478 2.352 5.83 5.204 12.652 8.546 20.272l-14.934 5.622c-8.286 3.12-12.476 12.368-9.356 20.656 2.42 6.426 8.524 10.388 15.008 10.388 1.878 0 3.786-0.332 5.648-1.032l17.106-6.44c7.77 16.050 17.104 34.092 28.094 53.462l-14.648 6.686c-8.058 3.678-11.606 13.188-7.93 21.244 2.692 5.898 8.51 9.38 14.598 9.38 2.228 0 4.49-0.466 6.646-1.452l17.73-8.092c9.228 15.028 19.36 30.59 30.476 46.442l-15.064 7.062c-8.016 3.758-11.47 13.306-7.712 21.326 2.728 5.818 8.502 9.232 14.53 9.232 2.278 0 4.594-0.49 6.796-1.52l20.708-9.708c10.94 14.428 22.682 28.958 35.242 43.402l-11.95 10.072c-6.77 5.706-7.634 15.822-1.926 22.594 3.17 3.762 7.704 5.702 12.27 5.702 3.65 0 7.316-1.238 10.326-3.774l12.82-10.804c12.468 13.214 25.642 26.264 39.572 38.99l-12.806 12.806c-6.262 6.262-6.262 16.414 0 22.674 3.13 3.132 7.234 4.696 11.338 4.696 4.102 0 8.208-1.564 11.338-4.696l14.356-14.358c13.758 11.47 28.156 22.59 43.242 33.23l-9.87 12.636c-5.452 6.98-4.212 17.056 2.766 22.506 2.932 2.29 6.408 3.4 9.858 3.4 4.768 0 9.488-2.116 12.648-6.166l11.336-14.512c14.918 9.448 30.432 18.418 46.578 26.794l-9.3 16.106c-4.428 7.668-1.8 17.474 5.868 21.902 2.524 1.458 5.282 2.15 8.002 2.15 5.542 0 10.932-2.878 13.9-8.020l10.452-18.104c18.94 8.592 38.65 16.394 59.2 23.208v57.878c-212.004-71.8-346.678-229.952-422.934-351.752-4.698-7.504-14.59-9.778-22.1-5.082-7.506 4.7-9.78 14.594-5.082 22.1 79.458 126.912 220.338 291.962 443.198 366.234-20.048 2.094-35.334 2.614-45.462 2.614h-553.408c-8.856 0-16.034 7.178-16.034 16.034s7.178 16.034 16.034 16.034h553.402c101.798 0 217.942-38.62 275.748-60.584l9.598 47.982c2.818 14.080-13.866 20.94-17.238 22.172z" fill="currentColor"/>
  <path d="M303.746 294.876c-5.304-9.736-10.508-19.66-15.466-29.498-3.982-7.908-13.626-11.086-21.534-7.104-7.908 3.984-11.090 13.626-7.104 21.534 5.112 10.144 10.476 20.374 15.942 30.412 2.91 5.34 8.412 8.366 14.096 8.366 2.592 0 5.22-0.628 7.658-1.958 7.774-4.24 10.642-13.978 6.408-21.752z" fill="currentColor"/>
  <path d="M221.27 393.346c-65.426 0-118.652 53.226-118.652 118.652s53.226 118.652 118.652 118.652 118.652-53.226 118.652-118.652-53.226-118.652-118.652-118.652zM221.27 598.582c-47.744 0-86.584-38.844-86.584-86.584s38.84-86.584 86.584-86.584c47.744 0 86.584 38.84 86.584 86.584s-38.84 86.584-86.584 86.584z" fill="currentColor"/>
</svg>