<svg xmlns="http://www.w3.org/2000/svg" viewBox="0 0 1024 1024" width="24" height="24">
  <path d="M1013.606 529.578c-1.755-1.717-4.133-2.654-6.581-2.596-2.127 0.049-4.262 0.084-6.39 0.129-8.779-33.788-33.777-60.811-67.134-72.078-24.046-29.25-59.324-45.966-97.234-45.966-16.69 0-32.831 3.257-47.74 9.354-46.685-45.395-95.148-44.897-115.549-42.090-6.429-29.971-23.199-56.352-47.897-75.031-27.263-20.621-60.922-29.396-94.786-24.694-15.347 2.129-29.9 6.905-43.374 14.229-27.368-39.642-74.632-60.682-122.881-53.983-22.207 3.079-43.011 11.843-60.62 25.467-19.72-14.577-44.404-20.945-68.855-17.553-8.897 1.234-17.473 3.699-25.595 7.352-21.86-31.179-59.199-47.655-97.414-42.357-51.388 7.128-87.073 58.804-81.305 116.377-4.427 4.547-8.309 9.663-11.6 15.235-2.189-0.463-4.506-0.127-6.491 1.034-2.796 1.637-4.513 4.631-4.513 7.871v100.444c0 3.311 1.794 6.362 4.689 7.97 0.257 0.142 8.191 4.513 23.306 11.824v290.155c0 70.917 50.562 130.239 117.527 143.828v41.408c0 43.062 35.033 78.097 78.095 78.097s78.095-35.035 78.095-78.097v-38.479h399.040v38.479c0 43.062 35.033 78.097 78.093 78.097s78.095-35.035 78.095-78.097v-40.292c70.040-11.068 123.769-71.842 123.769-144.944v-111.999h18.875c5.036 0 9.12-4.084 9.12-9.12v-103.448c0.002-2.457-0.987-4.809-2.745-6.523zM920.932 468.505c1.148 1.459 2.712 2.534 4.485 3.079 26.716 8.231 47.865 29.55 56.319 55.847-13.293 0.187-26.589 0.292-39.747 0.292-0.036 0-0.028 0-0.064 0-304.987 0-539.090-50.406-681.743-92.689-118.808-35.217-195.586-70.763-225.166-85.554 11.268-18.167 31.22-29.503 53.008-29.503 0.837 0 1.667 0.032 2.496 0.067 2.073 0.097 4.116-0.539 5.789-1.77 19.853-14.626 43.404-22.357 68.106-22.357 48.408 0 91.906 30.61 108.242 76.17 0.91 2.539 2.897 4.545 5.429 5.478 2.528 0.933 5.341 0.7 7.686-0.639 14.598-8.354 31.222-12.77 48.073-12.77 33.046 0 63.512 16.615 81.494 44.444 1.852 2.865 5.15 4.463 8.545 4.126 3.395-0.33 6.324-2.528 7.588-5.697 10.392-26.044 35.215-42.874 63.24-42.874 37.539 0 68.081 30.539 68.081 68.081 0 3.054-0.221 6.21-0.661 9.382-0.433 3.133 0.79 6.266 3.227 8.281 2.438 2.013 5.744 2.62 8.742 1.603 19.802-6.731 40.541-10.143 61.643-10.143 36.683 0 72.323 10.405 103.071 30.091 3.978 2.551 9.255 1.633 12.141-2.114 20.581-26.709 51.678-42.028 85.316-42.028 33.215-0.002 64.074 15.014 84.659 41.198zM62.377 262.606c12.173-19.495 30.531-31.848 51.689-34.784 33.726-4.669 66.626 11.311 83.799 40.734 2.513 4.307 8.017 5.798 12.36 3.343 8.33-4.704 17.364-7.755 26.849-9.073 21.799-3.011 43.811 3.575 60.409 18.1 3.438 3.008 8.57 3.008 12.008 0.002 16.1-14.077 35.829-23.074 57.055-26.018 43.979-6.092 86.985 14.658 109.583 52.878 1.257 2.129 3.328 3.654 5.732 4.229 2.408 0.575 4.94 0.146 7.025-1.184 13.381-8.543 28.155-13.982 43.912-16.169 29.033-4.019 57.897 3.493 81.278 21.175 23.379 17.682 38.473 43.41 42.5 72.443 0.36 2.609 1.852 4.931 4.058 6.373 2.202 1.442 4.944 1.854 7.48 1.142 2.232-0.629 52.502-14.014 103.028 31.368-10.873 6.592-20.806 14.856-29.417 24.675-32.065-18.821-68.533-28.73-105.989-28.73-18.606 0-36.96 2.425-54.734 7.221-1.011-46.725-39.335-84.421-86.299-84.421-30.275 0-57.605 15.491-73.177 40.498-21.763-25.595-53.564-40.498-87.687-40.498-16.544 0-32.906 3.581-47.882 10.429-21.315-47.449-68.928-78.668-121.546-78.668-27.561 0-53.89 8.309-76.349 24.061-0.015 0-0.028 0-0.043 0-14.368 0-28.106 3.837-40.063 10.691 0.371-17.759 5.356-35.301 14.42-49.815zM291.12 945.903c0 33.005-26.851 59.858-59.856 59.858-33.003 0-59.856-26.853-59.856-59.858v-38.932c3.631 0.27 7.287 0.455 10.987 0.455h108.723v38.477zM846.349 945.903c0 33.005-26.851 59.858-59.856 59.858-33.003 0-59.856-26.853-59.856-59.858v-38.479h114.961c1.592 0 3.169-0.071 4.749-0.12v38.599zM841.6 889.186h-659.203c-70.864 0-128.516-57.654-128.516-128.52v-281.567c40.146 18.428 108.489 46.897 201.133 75.085 142.648 43.402 374.072 95.137 666.499 95.142 0.013 0 0.024 0 0.036 0 16.117 0 32.447-0.167 48.569-0.476v102.787c-0.298-0.030-0.588-0.090-0.895-0.090h-427.977c-5.036 0-9.12 4.084-9.12 9.12s4.084 9.12 9.12 9.12h427.975c0.185 0 0.358-0.045 0.539-0.054-4.669 66.647-60.345 119.454-128.16 119.454zM998.113 630.427l-19.083 0.002c-19.119 0.436-38.455 0.657-57.48 0.657-0.011 0-0.026 0-0.036 0-289.865-0.002-519.202-51.204-660.55-94.157-133.059-40.434-215.222-81.327-235.073-91.687v-79.874c29.492 14.894 106.367 50.719 228.387 86.94 143.94 42.728 380.071 93.657 687.648 93.657 0.019 0 0.047 0 0.067 0 18.568 0 37.404-0.185 56.122-0.551v85.013z" fill="currentColor"/>
  <path d="M801.216 397.272c25.915 0 46.996-21.083 46.996-46.996 0-25.915-21.083-46.996-46.996-46.996-25.915 0-46.996 21.083-46.996 46.996-0.002 25.913 21.081 46.996 46.996 46.996zM801.216 321.518c15.858 0 28.756 12.901 28.756 28.756 0 15.858-12.901 28.756-28.756 28.756-15.858 0-28.756-12.901-28.756-28.756-0.002-15.856 12.899-28.756 28.756-28.756z" fill="currentColor"/>
  <path d="M710.138 288.616c31.848 0 57.759-25.911 57.759-57.759 0-31.846-25.911-57.757-57.759-57.757-31.846 0-57.757 25.911-57.757 57.757 0 31.848 25.911 57.759 57.757 57.759zM710.138 191.339c21.791 0 39.52 17.727 39.52 39.518s-17.729 39.52-39.52 39.52c-21.791 0-39.518-17.729-39.518-39.52s17.729-39.518 39.518-39.518z" fill="currentColor"/>
  <path d="M437.438 218.774c14.495 0 26.286-11.791 26.286-26.286s-11.791-26.286-26.286-26.286c-14.495 0-26.286 11.791-26.286 26.286s11.791 26.286 26.286 26.286zM437.438 184.44c4.438 0 8.047 3.609 8.047 8.047s-3.609 8.047-8.047 8.047c-4.438 0-8.047-3.609-8.047-8.047s3.611-8.047 8.047-8.047z" fill="currentColor"/>
  <path d="M320.619 149.85c41.314 0 74.926-33.61 74.926-74.924 0-41.316-33.612-74.926-74.926-74.926s-74.924 33.61-74.924 74.926c0 41.314 33.61 74.924 74.924 74.924zM320.619 18.24c31.256 0 56.686 25.43 56.686 56.686s-25.43 56.684-56.686 56.684c-31.256 0-56.684-25.428-56.684-56.684s25.428-56.686 56.684-56.686z" fill="currentColor"/>
  <path d="M870.361 149.852c16.072 0 29.147-13.075 29.147-29.147s-13.075-29.147-29.147-29.147c-16.072 0-29.147 13.075-29.147 29.147s13.077 29.147 29.147 29.147zM870.361 109.798c6.015 0 10.907 4.892 10.907 10.907s-4.892 10.907-10.907 10.907c-6.015 0-10.907-4.892-10.907-10.907s4.895-10.907 10.907-10.907z" fill="currentColor"/>
  <path d="M454.604 751.546h-178.64c-5.036 0-9.12 4.084-9.12 9.12s4.084 9.12 9.12 9.12h178.64c5.036 0 9.12-4.084 9.12-9.12s-4.081-9.12-9.12-9.12z" fill="currentColor"/>
</svg>