<svg xmlns="http://www.w3.org/2000/svg" viewBox="0 0 1024 1024" width="24" height="24">
  <path d="M80.096 607.307c-2.784-55.52-3.957-111.221-19.488-165.269-8.853-30.805-22.571-58.347-41.803-84.779-12.128-16.683-18.475-39.957-16.661-63.691 3.189-41.824 28.8-66.336 62.464-84.203 26.059-13.835 49.621-31.573 75.648-45.28 30.517-16.064 60.139-34.133 93.419-44.192 81.312-24.576 151.275 9.397 190.837 80.256 11.947 21.397 21.504 44.651 38.283 62.773 32.512 35.125 65.173 70.283 114.763 82.219 29.461 7.083 59.733 8 89.312 13.973 40.053 8.075 80.917 8.448 121.451 12.064 49.515 4.427 98.763 11.669 145.344 29.643 26.208 10.101 51.605 23.531 70.475 45.387 12.491 14.464 15.765 32.043 17.163 51.499 2.325 32.64-8.373 61.941-16.885 91.979-10.997 38.816-18.709 78.219-24.053 118.187-3.68 27.552-15.392 52.085-31.008 74.827-24.533 35.744-51.509 69.227-87.701 94.112-16.555 11.381-32.352 24.075-49.728 34.005-26.069 14.891-55.136 17.291-84.565 15.029-5.579-0.427-11.029-1.451-16.757-1.056-60.736 4.096-120.693-3.627-180.683-11.648-44.768-5.984-89.749-10.347-134.549-16.075-57.803-7.381-114.208-20.128-168.267-42.784-44.501-18.656-78.955-49.013-107.595-86.987-24.395-32.341-34.411-69.547-38.059-109.163-1.557-16.928-1.515-33.845-1.355-50.827zM96.565 608.064c-0.565 23.072 0.853 46.027 4.256 68.853 10.539 68.629 51.659 117.088 109.419 150.155 58.069 33.248 123.435 46.709 189.472 53.792 70.869 7.595 141.291 18.944 212.395 24.416 50.624 3.893 101.173 8.075 151.968 2.816 15.115-1.568 29.504-5.344 42.048-13.653 20.405-13.515 40.16-28 60.16-42.123 21.387-15.083 36.459-36.203 52.949-55.904 25.045-29.931 41.675-63.637 46.731-102.901 4.373-33.941 10.635-67.605 20.971-100.363 0.715-2.251 2.059-5.483-0.256-6.635-2.379-1.163-3.872 2.155-5.493 3.819-22.635 23.264-50.379 39.328-80.181 50.187-27.627 10.059-57.675 10.72-87.040 10.571-29.771-0.149-59.403-3.253-89.077-6.219-40.032-4.011-79.872-9.216-119.659-15.061-60.256-8.864-118.336-27.712-178.219-38.539-50.283-9.099-99.168-23.509-147.765-39.829-55.648-18.677-105.109-47.435-152.629-80.651-16.843-11.776-32.981-24.373-46.325-40.203-1.152-1.376-4.277-3.115-4.715-2.72-1.632 1.461-0.512 3.627 0.032 5.579 2.155 7.765 4.437 15.499 6.229 23.349 11.381 49.792 13.675 100.469 14.731 151.264zM794.667 633.653c64.043 2.507 107.989-8.064 145.515-32.416 34.336-22.272 59.669-49.888 63.232-94.336 2.336-29.184-7.989-49.152-30.496-64.693-51.52-35.552-111.253-44.821-171.339-51.893-33.152-3.904-66.571-5.675-99.893-7.989-30.944-2.155-60.853-11.573-92.053-12.171-26.635-0.512-51.627-8.011-74.56-21.653-54.027-32.149-94.208-76.928-122.763-132.907-11.499-22.549-25.547-43.883-47.253-58.624-26.56-18.048-54.816-29.749-88.011-26.88-28.576 2.464-54.539 11.637-80.288 24.043-50.208 24.192-96.725 54.603-143.936 83.712-34.997 21.589-42.891 62.656-22.144 98.699 15.115 26.261 35.317 48.96 54.069 72.576 18.368 23.125 40.896 41.76 66.709 56.821 27.371 15.968 50.891 38.336 81.301 49.397 19.307 7.019 38.88 13.408 57.856 21.237 20.117 8.309 40.64 15.541 61.621 20.779 31.221 7.787 62.933 13.568 94.432 20.213 61.877 13.067 122.752 30.688 185.675 39.168 58.699 7.915 117.504 14.123 162.325 16.917zM794.667 633.653z" fill="currentColor"/>
  <path d="M692.491 866.24c-12.875-0.949-24.96-1.376-36.469-5.376-2.731-0.949-7.264-1.995-6.272-6.037 0.96-3.893 5.12-3.264 8.299-2.656 27.179 5.163 53.877-0.213 80.555-3.968 34.944-4.907 65.589-20.491 95.488-38.635 36.245-22.005 54.464-56.821 71.029-93.376 5.653-12.469 11.872-24.704 18.027-36.939 1.547-3.061 3.157-8 7.328-6.357 3.051 1.195 1.301 5.941 0.533 8.811-6.656 24.939-14.027 49.643-26.827 72.277-11.125 19.669-22.763 39.157-41.045 53.184-38.709 29.696-81.515 49.792-130.773 54.325-13.579 1.248-27.104 3.2-39.872 4.747zM692.491 866.24z" fill="currentColor"/>
  <path d="M125.323 608.267c-3.435-19.733-3.285-50.389-6.795-80.747-0.213-1.195-0.352-2.389-0.437-3.605-0.021-3.424-1.888-8.149 3.093-9.131 4.981-0.971 5.365 3.957 6.133 7.264 4.117 17.675 6.389 35.637 8.128 53.675 3.819 39.669 7.051 79.435 16.085 118.389 4.768 20.576 14.357 39.307 22.507 58.603 0.736 1.739 1.813 4.885 1.173 5.376-2.848 2.197-4.171-1.109-5.472-2.645-17.259-20.395-27.979-44.117-34.496-69.781-5.579-21.899-7.179-44.405-9.92-77.397zM125.323 608.267z" fill="currentColor"/>
  <path d="M325.771 836.683c-44.811-5.589-86.827-16.715-121.493-46.859-2.528-2.187-7.157-4.533-3.755-8.48 2.496-2.891 6.549-1.824 9.888 0.587 33.291 23.989 71.424 36.8 110.411 47.605 1.952 0.533 3.861 1.195 5.717 1.973 2.453 1.035 5.792 0.661 6.784 4.117zM325.771 836.683z" fill="currentColor"/>
  <path d="M813.173 783.371c-3.968 0.416-6.176-0.107-7.413-2.709-1.291-2.688-0.117-4.725 1.941-6.261 20.971-15.712 35.029-37.376 50.24-58.080 1.707-2.325 4.373-6.592 7.445-4.672 2.453 1.536 0.224 5.696-0.917 8.651-7.851 20.363-16.587 40.107-34.773 53.813-5.493 4.139-10.944 8.149-16.523 9.259zM813.173 783.371z" fill="currentColor"/>
  <path d="M962.517 457.547c-21.099-11.243-40.405-25.504-64.533-31.808-28.501-7.435-57.173-13.92-86.123-18.517-47.659-7.584-95.765-12.437-143.435-19.968-35.755-5.643-72.341-6.069-107.093-18.464-33.664-12.021-66.155-25.941-93.28-49.728-20.96-18.389-38.379-40.288-55.424-62.176-28.437-36.501-55.403-74.219-92.811-102.453-13.525-10.219-29.312-17.845-46.048-11.083-9.344 3.765-18.965 5.323-28.267 8.523-26.987 9.269-50.549 25.152-74.955 39.083-34.613 19.765-70.197 37.973-103.189 60.512-25.28 17.269-35.445 39.52-26.688 62.741 4.96 13.28 11.307 25.877 19.029 37.76 7.733 11.893 16.672 22.795 26.795 32.715 18.443 17.973 38.603 34.197 58.272 50.869 49.888 42.251 105.653 73.984 168.949 91.147 42.677 11.573 84.811 25.12 128.16 34.4 40.512 8.672 80.373 20.331 120.832 29.259 43.648 9.643 87.584 18.016 131.52 26.24 36.864 6.891 74.176 9.771 122.379 10.357 8.683 0.715 17.355 0.597 26.005-0.363 8.661-0.96 17.141-2.741 25.461-5.344 8.309-2.603 16.299-5.973 23.957-10.112 7.659-4.149 14.859-8.992 21.579-14.517 26.464-21.664 54.432-41.205 63.648-77.472 4.949-19.467-0.427-53.973-14.741-61.6zM100.459 377.963c-20.171-19.307-36.427-42.016-44.992-69.152-5.291-16.789-0.501-29.323 13.973-39.925 27.381-20.043 57.035-36.373 86.699-52.629 36.341-19.925 70.827-43.371 110.475-57.024 18.197-6.261 32.299 1.44 44.928 11.925 23.52 19.52 46.517 39.851 62.955 66.176 8.288 13.269 17.856 25.579 27.861 37.493-2.453 0.181-4.864 0.619-7.221 1.291-11.851 3.392-19.989 11.872-29.003 19.723-4.139 3.595-8.704 7.189-14.027 8.789-6.955 2.080-14.037 0.107-20.917-1.312-13.504-2.795-26.624-2.123-38.88 4.736-20.917 11.691-25.717 34.923-33.355 55.659-3.019 8.192-7.040 16.981-14.475 22.069-8.683 5.941-19.691 5.771-29.781 5.653-12.139-0.149-25.205-0.832-36.224 5.184-5.579 3.051-9.803 7.808-13.035 13.205-2.912 4.885-5.099 11.179-10.101 14.347-0.555 0.341-1.045 0.757-1.472 1.237-18.528-15.029-36.224-30.997-53.408-47.445zM961.387 513.813c-4.896 26.485-22.368 44.213-42.485 59.627-13.035 9.995-25.941 20.437-40.864 27.691-19.808 9.611-41.195 9.941-62.571 10.069-3.627 0.021-7.253 0-10.88 0-40.875 0.384-81.312-3.893-121.387-11.829-43.915-8.704-88.245-15.509-131.627-26.656-44.843-11.52-90.453-19.861-135.051-32.043-43.125-11.776-87.019-21.067-129.077-36.672-44.896-16.661-85.387-40.928-123.061-70.24 3.627-3.061 6.56-6.677 8.8-10.859 2.453-4.331 4.523-9.109 8.331-12.469 7.040-6.208 17.579-6.016 26.4-5.952 10.709 0.075 21.792 0.779 32.192-2.304 9.963-2.955 17.952-9.419 23.573-18.080 10.752-16.555 11.776-37.643 23.115-53.867 1.611-2.251 3.445-4.299 5.515-6.144 2.059-1.845 4.309-3.435 6.731-4.779s4.96-2.411 7.616-3.189c2.656-0.779 5.376-1.248 8.139-1.419 13.845-0.747 26.901 6.773 40.8 2.592 13.035-3.915 21.429-14.699 31.776-22.741 5.995-4.651 20.48-11.445 26.464-3.157 0.64 0.949 1.461 1.707 2.453 2.272s2.059 0.885 3.2 0.96c1.76 1.995 3.509 3.989 5.259 5.973 30.027 34.208 65.259 62.304 109.525 77.003 28.693 9.525 57.739 19.339 87.563 22.379 25.931 2.656 51.765 6.091 77.611 9.28 42.741 5.28 85.568 10.357 127.915 17.984 29.045 5.227 58.699 9.867 85.856 22.432 13.792 6.389 27.947 13.365 39.349 23.115 12 10.272 11.595 26.027 8.821 41.024zM961.387 513.813z" fill="currentColor"/>
  <path d="M517.365 451.947c-1.429-0.309-2.869-0.48-4.331-0.523-7.488 0.021-16.043 0.16-17.077-9.28-0.928-8.512 6.859-13.579 13.653-14.795 15.232-2.72 26.4-9.365 38.229-20.149 19.157-17.472 43.413-11.381 60.181 7.936 6.517 7.499 7.52 13.973 5.835 22.411-0.939 4.736-1.867 9.493-2.592 14.272-2.56 16.992-1.685 17.365 15.381 18.325 19.808 1.12 39.179 5.024 56.416 15.563 17.632 10.763 25.109 32.981 19.008 51.584-2.741 8.363-9.387 12.448-15.701 15.893-43.445 23.755-104.395 15.765-141.781-12.8-17.856-13.632-22.624-41.984-10.987-67.072 9.387-20.235 8.619-21.173-16.235-21.365zM625.696 553.408c16.608-2.037 35.339-2.368 51.925-12.288 11.819-7.051 14.731-15.947 9.525-28.608-3.829-9.301-11.488-14.411-20.139-18.165-14.24-6.165-29.472-7.904-44.768-8.949-2.197-0.149-5.493-1.397-6.336 1.397-0.565 1.888 0.651 4.768 1.92 6.624 1.557 2.261 4.021 3.883 6.048 5.835 2.997 2.901 5.963 6.133 2.773 10.389-3.019 4.043-7.189 2.773-11.008 1.067-6.229-2.784-9.835-7.893-12.917-13.824-9.952-19.093-8.203-38.88-4.512-58.987 2.784-15.243-5.173-25.067-20.608-26.091-7.872-0.523-14.869 2.528-22.187 4.949-9.515 3.147-8.608 12.939-13.397 19.029-2.741 3.477 5.696 3.317 7.712 6.891 2.251 3.904 3.488 8.096 3.701 12.597 0.523 9.984-2.581 18.88-6.997 27.776-9.845 19.787-5.099 39.467 12.192 49.845 20.021 12.011 42.048 18.208 67.072 20.512zM625.696 553.408z" fill="currentColor"/>
  <path d="M277.344 447.659c0.32 2.389 0.949 4.789 0.896 7.168-0.096 3.541 3.595 8.907-2.581 9.984-4.885 0.864-7.637-3.157-9.355-7.765-4.064-10.848-3.723-22.315 1.173-31.84 7.755-15.072 18.336-28.139 36.736-32.224 21.728-4.811 39.797 3.424 48.117 23.893 2.923 7.2 4.139 12.48 13.579 6.101 5.995-4.053 13.963-5.941 21.312-7.115 17.504-2.795 29.493 5.76 34.507 22.731 3.221 10.891 2.293 21.557-0.747 32.128-0.907 3.168-1.92 7.776-6.837 6.976-3.776-0.619-4.267-4.16-4.747-7.509-1.195-8.331-2.603-16.629-4-24.939-1.696-10.091-7.659-14.016-17.813-12.224-13.141 2.315-23.264 8.032-27.691 21.685-1.301 4.011-3.819 8.533-9.653 7.072-4.683-1.173-6.208-4.896-6.091-9.28 0.203-7.808-2.037-15.168-3.968-22.571-5.867-22.421-24.416-29.995-43.616-16.811-11.627 7.989-19.744 19.125-19.221 34.539zM277.344 447.659z" fill="currentColor"/>
  <path d="M824.085 529.6c0.448-19.776 23.883-37.429 42.624-32.896 9.088 2.197 18.144 4 24.149 12.213 3.307 4.533 7.925 3.029 12.213 2.165 7.403-1.493 14.048-1.152 20.523 3.872 9.365 7.264 9.995 21.12 0.608 28.64-1.973 1.589-4.085 2.869-6.56 1.429-2.347-1.365-2.72-3.744-2.677-6.315 0.075-4.171 2.197-9.845-4.427-10.539-6.069-0.64-11.872 0.213-14.624 7.691-2.069 5.291-4.928 10.091-8.597 14.421-5.6 6.773-13.28 8.491-20.373 3.093-7.179-5.451-2.176-11.477 1.344-16.885 0.651-1.003 2.080-1.717 2.304-2.752 1.184-5.461 11.936-6.699 7.040-14.421-3.925-6.197-20.341-7.957-26.613-3.211-5.472 4.139-10.293 8.981-11.925 16.16-0.992 4.309 0.416 11.264-7.104 10.112-6.933-1.067-7.648-7.371-7.904-12.779zM824.085 529.6z" fill="currentColor"/>
  <path d="M764.651 537.099c8.907 1.099 18.869 3.893 24.683 12.939 3.829 5.963 6.816 5.525 12.651 3.52 17.941-6.176 27.403-0.715 31.552 16.491 1.376 5.707-0.128 10.368-3.2 14.784-2.091 3.008-4.576 5.909-8.917 4.875-4.619-1.109-4.448-5.12-4.992-8.661-0.597-3.893 3.285-10.069-3.552-10.859-1.312-0.149-2.624-0.107-3.925 0.149-1.301 0.245-2.539 0.683-3.712 1.312-1.163 0.629-2.208 1.429-3.136 2.379s-1.685 2.016-2.283 3.2c-0.565 1.067-1.216 2.112-1.675 3.221-2.027 4.96-5.685 8.928-10.923 7.232-4.8-1.547-6.091-6.571-6.357-11.957-0.875-18.24-10.645-24.459-27.061-18.453-7.52 2.741-10.251 7.424-8.363 14.752 0.96 3.701 2.624 7.253-2.101 9.173-4.491 1.824-7.797-0.661-10.357-4.096-6.325-8.48-4.523-17.248 1.227-24.555 7.179-9.099 17.045-14.624 30.443-15.445zM764.651 537.099z" fill="currentColor"/>
  <path d="M816.629 492.48c-12.608 0.8-22.923-6.603-32.235-14.933-8.587-7.669-4.789-24.085 6.603-32.661 15.733-11.851 43.52-6.357 53.099 10.987 3.915 7.083 6.24 15.008 1.472 22.955-5.387 8.949-16.171 14.197-28.939 13.653zM816.171 477.237c5.664-1.664 14.101 0.523 14.784-7.477 0.64-7.36-5.365-12.203-12.491-14.037-3.925-1.077-7.915-1.376-11.957-0.928-6.155 0.832-10.411 4.832-11.008 11.125-0.651 6.869 4.619 8.619 10.101 9.589 3.552 0.629 7.115 1.173 10.571 1.728zM816.171 477.237z" fill="currentColor"/>
  <path d="M480.043 496.171c-0.032 19.317-11.573 34.869-25.813 34.784-12.779-0.075-24.576-14.027-24.864-29.397-0.277-14.741 14.475-29.536 29.515-29.632 12.629-0.064 21.184 9.739 21.163 24.245zM463.445 496.352c0.491-5.493-0.213-9.216-5.963-8.949-8.416 0.405-12.277 5.845-12.533 13.333-0.203 5.728 2.304 13.013 8.608 12.459 9.973-0.875 8.565-10.699 9.888-16.843zM463.445 496.352z" fill="currentColor"/>
  <path d="M377.888 374.155c-18.485-0.427-30.368-13.28-29.568-32 0.107-2.101 0.405-4.171 0.907-6.219 0.501-2.037 1.205-4.021 2.091-5.92 0.896-1.909 1.952-3.712 3.2-5.419 1.237-1.696 2.635-3.253 4.181-4.683s3.221-2.688 5.013-3.797c1.792-1.099 3.669-2.016 5.643-2.741 1.973-0.736 4-1.269 6.080-1.611s4.171-0.469 6.272-0.395c16.149 0.459 30.261 14.464 30.080 29.856-0.224 19.307-14.709 33.376-33.899 32.928zM374.656 361.365c13.813-0.128 21.045-7.243 21.109-20.757 0.053-8.875-9.056-21.984-15.403-22.165-9.419-0.288-21.653 12.32-21.664 22.336-0.032 11.765 6.88 20.672 15.957 20.587zM374.656 361.365z" fill="currentColor"/>
  <path d="M574.965 431.787c-0.448 6.24-4.096 8.48-8.896 8.885-5.547 0.469-8.469-3.008-8.299-8.075 0.171-5.035 2.272-10.261 8.267-10.048 5.451 0.192 7.893 4.853 8.928 9.237zM574.965 431.787z" fill="currentColor"/>
</svg>