<svg xmlns="http://www.w3.org/2000/svg" viewBox="0 0 1024 1024" width="24" height="24">
  <path d="M1021.090 854.195c-7.82-18.298-29-26.789-47.304-19.004-0.834 0.359-70.001 29.406-185.858 51.528l58.723-757.332c1.283-16.505-8.84-31.765-24.545-36.995-345.060-115.029-611.814-3.724-622.999 1.065-14.195 6.089-22.935 20.532-21.745 35.933l58.489 754.288c-60.454-11.785-123.487-27.9-188.388-49.535-18.891-6.289-39.305 3.92-45.604 22.807-6.296 18.891 3.917 39.312 22.804 45.611 185.461 61.819 356.666 80.968 497.643 80.968 74.204 0 140.047-5.306 195.153-12.491 173.994-22.693 280.255-67.643 284.693-69.542 18.291-7.84 26.752-29.003 18.939-47.301zM556.597 114.419c43.88 2.431 91.639 8.23 142.157 19.004l-420.012 370.598-10.936-141.071 288.792-248.532zM285.724 594.027l485.814-428.66-11.416 147.225-464.368 410.783-10.030-129.348zM752.102 415.961l-11.385 146.822-242.016 191.884h-129.486l382.886-338.706zM733.112 660.842l-7.271 93.825h-111.068l118.339-93.825zM393.413 119.994c15.853-2.020 33.251-3.758 51.972-5.003l-184.496 158.772-9.513-122.632c27.307-8.975 76.769-22.835 142.036-31.137zM714.673 899.886c-100.031 12.85-246.574 19.125-405.525-3.765l-5.379-69.339h416.478l-5.575 73.104z" fill="currentColor"/>
</svg>