<svg xmlns="http://www.w3.org/2000/svg" viewBox="0 0 1024 1024" width="24" height="24">
  <path d="M472.064 62.669c-3.277 0.41-14.95 1.843-25.6 3.072-118.17 13.517-236.749 71.475-303.514 148.275-17.613 20.070-39.936 53.248-49.562 73.114-9.83 20.48-20.685 54.067-25.19 77.414-3.072 16.384-3.686 29.901-3.482 88.064 0.41 171.008 20.685 295.731 62.054 382.157 31.949 66.56 72.499 104.858 125.133 118.374 29.286 7.578 82.534 6.144 118.374-3.072 55.091-14.541 91.546-56.525 103.629-119.808 9.83-52.634 5.325-97.69-18.637-183.091-34.202-122.266-38.093-140.493-38.298-175.104-0.41-43.418 11.674-62.259 46.694-73.318 12.493-3.891 19.046-4.506 48.333-4.506s35.635 0.614 48.538 4.71c49.766 15.565 58.573 56.73 33.382 156.467-2.458 9.421-10.854 39.526-18.637 67.174-25.19 89.293-31.949 127.386-29.696 167.731 6.758 115.917 63.078 168.346 180.429 167.936 32.563 0 63.693-7.987 88.474-22.528 15.77-9.216 46.694-40.141 59.392-59.187 56.32-84.378 84.582-223.642 85.402-421.888 0.205-60.416-0.41-73.318-3.482-89.088-16.589-83.149-61.235-151.552-134.349-205.619-21.094-15.565-57.139-37.069-78.029-46.694-18.637-8.602-51.61-21.914-61.44-24.781-64.512-19.046-100.147-24.781-160.768-26.010-23.552-0.41-45.67-0.41-49.152 0.205zM568.73 95.232c153.395 19.046 280.986 96.87 332.595 202.752 21.709 44.646 26.624 68.198 27.853 131.482l1.024 49.766h-14.541c-18.842 0-33.587 5.53-45.056 16.794-20.685 20.275-25.6 48.128-12.902 73.728 10.445 21.094 24.781 31.13 50.176 35.226l13.926 2.253-1.229 11.264c-9.216 79.258-28.467 158.106-49.766 202.752-18.022 37.683-42.598 68.608-68.198 85.197-13.107 8.602-45.466 21.299-47.923 19.046-0.614-0.819 1.638-5.734 4.915-11.264 8.806-13.926 9.83-21.094 4.301-28.058-4.506-5.734-11.674-7.168-18.432-3.482-2.048 1.024-6.554 6.963-9.83 12.902-11.059 19.661-28.877 31.334-45.261 29.696-5.939-0.41-7.373-1.638-8.806-6.758-2.253-7.782-0.41-38.298 3.686-57.754 3.482-16.589 1.843-23.142-6.963-27.034-6.758-3.277-15.36 0.205-18.637 7.168-3.482 7.782-8.397 41.165-8.397 57.549 0 8.192-0.819 14.95-1.843 14.95-3.686 0-12.083-12.288-15.974-22.938-5.734-16.589-5.12-55.091 1.434-86.221 5.325-26.010 4.915-28.672-4.506-33.997-6.758-3.891-15.155-1.434-18.842 5.53-5.325 10.445-11.674 46.285-12.902 73.114l-1.229 26.624-5.939-12.288c-11.878-25.6-14.541-41.165-14.746-83.968-0.205-47.718 1.229-55.706 28.877-151.552 26.829-93.594 33.382-125.133 33.382-157.901-0.205-41.574-17.203-74.957-46.694-90.522-23.142-12.288-40.141-15.77-80.282-15.77-31.13 0-37.888 0.614-52.224 4.71-54.682 15.77-77.824 51.61-73.933 115.098 1.843 30.106 8.397 59.597 30.925 138.445 28.877 100.762 30.72 109.978 30.515 157.491-0.205 33.178-0.819 41.37-4.506 55.296-5.734 20.89-16.589 43.213-25.395 51.61l-6.758 6.554-0.205-16.179c-0.614-26.214-11.059-54.682-22.118-59.597-11.674-5.325-23.142 8.397-17.818 21.299 7.987 19.456 9.011 23.962 9.011 39.322 0 20.275-5.325 37.683-12.902 41.574-8.602 4.506-27.238 1.843-44.237-6.554-16.384-8.192-28.467-20.070-35.43-35.021-6.554-14.131-16.794-17.408-25.805-8.192-2.867 2.662-5.12 6.963-5.12 9.216 0 7.578 10.854 27.034 21.504 38.707l10.24 11.059-11.674-1.229c-16.589-2.048-39.322-10.65-54.886-20.89-67.994-45.056-107.315-154.419-122.88-343.040-3.686-42.803-5.12-158.515-2.253-178.176 3.277-23.142 11.059-51.405 19.661-72.090 7.782-18.432 26.010-49.971 35.43-61.030l5.939-6.963 7.987 6.758c12.698 11.264 24.166 15.565 41.779 15.565 12.698 0 17.613-1.024 27.034-5.734 34.202-16.794 46.285-58.573 26.214-90.317l-5.939-9.216 6.554-4.096c45.67-28.058 127.59-54.682 192.512-62.464 31.334-3.891 85.402-3.891 115.507-0.205zM235.11 188.416c6.144 9.216 6.144 23.552-0.205 32.973-13.312 19.661-36.864 21.914-52.634 4.915l-5.12-5.53 9.216-8.192c19.456-17.203 39.526-32.563 41.779-31.744 1.229 0.41 4.301 3.686 6.963 7.578zM925.491 511.795c2.458 1.638 2.662 6.963 1.434 30.106-0.819 15.565-2.458 29.491-3.686 30.925-3.277 4.096-16.179 3.072-24.986-2.048-11.469-6.349-16.179-13.722-17.203-26.419-0.819-12.493 3.891-21.709 15.77-29.696 7.168-4.915 22.938-6.349 28.672-2.867z" fill="currentColor"/>
  <path d="M602.317 178.381c-6.349 5.939-8.806 13.312-8.806 26.829 0 15.565 4.915 31.13 14.336 45.67 11.469 17.613 11.878 18.022 26.214 14.131 27.648-7.168 49.152-26.624 53.043-48.128 1.638-8.397-2.662-18.842-8.192-21.094-9.216-3.482-26.829 1.843-33.587 9.83-4.301 5.12-5.325 4.096-9.011-7.782-6.758-21.299-22.323-30.31-33.997-19.456z" fill="currentColor"/>
  <path d="M437.658 190.669c-21.504 3.277-42.803 20.48-49.357 40.141-4.096 12.083-4.096 31.949 0 44.237 3.891 11.469 16.589 26.419 28.058 32.973 41.779 24.166 94.413-6.758 94.413-55.091 0-18.842-5.939-32.358-20.070-45.67-15.155-14.336-32.563-19.866-53.043-16.589zM464.896 225.69c11.264 7.782 15.155 14.746 15.155 27.238 0 18.637-13.312 31.744-32.358 31.744-19.251 0-31.949-12.698-31.949-31.744s12.698-31.744 31.949-31.744c7.578 0 12.288 1.229 17.203 4.506z" fill="currentColor"/>
  <path d="M797.696 305.971c-5.12 5.12-9.216 16.794-9.216 26.214 0 6.963-1.434 6.963-12.288 1.434-4.71-2.458-12.493-4.915-17.613-5.53-26.624-2.867-24.986 30.31 2.253 48.333 12.902 8.602 29.491 14.541 43.827 15.974l11.469 1.229 5.325-9.011c16.794-27.648 16.998-63.283 0.614-78.438-7.373-6.758-17.613-6.963-24.371-0.205z" fill="currentColor"/>
  <path d="M201.933 356.352c-3.072 3.686-6.144 11.059-7.578 18.432l-2.253 12.083-10.65-5.325c-20.685-10.65-36.045-6.144-36.045 10.65 0 22.733 33.178 46.694 66.56 48.333 11.264 0.614 14.746-2.662 21.709-20.685 9.011-23.347 7.168-51.2-4.301-63.488-8.192-8.806-20.070-8.602-27.443 0z" fill="currentColor"/>
  <path d="M704.717 513.024c-22.528 6.349-40.755 25.395-45.261 47.514-5.939 28.058 7.987 57.139 33.382 70.656 12.288 6.758 43.622 6.758 55.706 0.205 30.106-15.974 43.213-52.838 29.491-82.534-7.578-15.974-14.541-23.552-29.082-30.515-15.77-7.782-29.696-9.421-44.237-5.325zM734.413 544.563c16.998 7.782 24.166 28.877 15.36 44.646-6.349 11.059-13.517 15.565-25.805 16.589-12.902 1.024-23.757-3.482-30.31-12.698-3.482-4.915-4.506-9.216-4.506-19.046 0-15.155 4.096-21.914 17.408-28.877 10.854-5.53 16.794-5.53 27.853-0.614z" fill="currentColor"/>
  <path d="M268.083 529.408c-17.613 9.421-14.131 53.453 6.144 79.872 7.373 9.83 8.192 10.24 16.998 10.035 19.251-0.819 44.442-17.613 53.658-36.045 7.168-14.541 6.963-22.733-0.819-30.72-5.53-5.325-7.373-6.144-13.926-5.12-4.096 0.819-12.083 4.506-17.818 8.397l-10.24 7.168-2.867-10.445c-3.277-11.469-15.565-26.214-21.914-26.214-2.048 0.205-6.349 1.434-9.216 3.072z" fill="currentColor"/>
  <path d="M219.955 690.381c-17.408 4.915-36.864 24.781-41.779 42.394-3.072 11.059-2.458 29.082 1.229 39.936 4.301 12.902 18.842 28.672 32.768 35.43 23.142 11.264 52.224 6.144 71.27-12.493 18.637-18.432 23.962-48.333 12.698-71.475-6.758-13.926-22.528-28.467-35.43-32.768-10.24-3.482-30.515-4.096-40.755-1.024zM256 723.354c15.77 10.854 20.275 26.829 11.878 42.394-6.554 12.083-19.456 19.456-32.154 18.022-31.13-3.482-40.141-46.49-12.493-61.030 10.035-5.325 24.371-5.12 32.768 0.614z" fill="currentColor"/>
  <path d="M752.23 720.896c-6.554 2.662-12.288 13.107-13.926 24.781-2.458 17.203 6.963 44.032 21.709 61.85 5.734 6.963 6.144 7.168 14.541 5.12 30.515-6.758 56.934-31.13 56.934-52.429 0-11.264-2.253-15.565-10.035-18.842-7.578-3.072-16.589-0.41-28.672 8.192-4.506 3.277-8.602 5.325-9.011 4.506s-2.458-6.144-4.301-12.083c-2.253-6.758-6.144-12.902-10.65-16.998-7.578-6.554-9.421-6.963-16.589-4.096z" fill="currentColor"/>
</svg>