<svg xmlns="http://www.w3.org/2000/svg" viewBox="0 0 1024 1024" width="24" height="24">
  <path d="M948.148 151.704c-41.832 0-75.852 34.020-75.852 75.852v132.741h-720.593v-132.741c0-41.832-34.020-75.852-75.852-75.852s-75.852 34.020-75.852 75.852c0 10.487 8.495 18.963 18.963 18.963s18.963-8.476 18.963-18.963c0-20.897 17.010-37.926 37.926-37.926s37.926 17.029 37.926 37.926v558.857c0 43.899 33.261 79.796 75.852 84.859v114.802c0 10.487 8.495 18.963 18.963 18.963h94.815c10.468 0 18.963-8.476 18.963-18.963v-113.778h379.259v113.778c0 10.487 8.495 18.963 18.963 18.963h94.815c10.468 0 18.963-8.476 18.963-18.963v-114.802c42.591-5.063 75.852-40.96 75.852-84.859v-558.857c0-20.897 17.010-37.926 37.926-37.926s37.926 17.029 37.926 37.926c0 10.487 8.495 18.963 18.963 18.963s18.963-8.476 18.963-18.963c0-41.832-34.020-75.852-75.852-75.852zM777.481 398.222v436.148h-56.889v-436.148h56.889zM303.407 398.222v436.148h-56.889v-436.148h56.889zM151.704 786.413v-388.191h56.889v436.148h-8.875c-26.472 0-48.014-21.523-48.014-47.957zM284.444 967.111h-56.889v-94.815h56.889v94.815zM341.333 834.37v-436.148h56.889v436.148h-56.889zM436.148 834.37v-436.148h56.889v436.148h-56.889zM530.963 834.37v-436.148h56.889v436.148h-56.889zM625.778 834.37v-436.148h56.889v436.148h-56.889zM796.444 967.111h-56.889v-94.815h56.889v94.815zM872.296 786.413c0 26.434-21.542 47.957-48.014 47.957h-8.875v-436.148h56.889v388.191z" fill="currentColor"/>
  <path d="M530.963 151.704h36.94l-51.693 63.924c-4.589 5.689-5.518 13.502-2.37 20.101s9.823 10.79 17.124 10.79h76.648c10.468 0 18.963-8.476 18.963-18.963s-8.495-18.963-18.963-18.963h-36.94l51.693-63.924c4.589-5.689 5.518-13.502 2.37-20.101s-9.804-10.79-17.124-10.79h-76.648c-10.468 0-18.963 8.476-18.963 18.963s8.495 18.963 18.963 18.963z" fill="currentColor"/>
  <path d="M303.407 56.889h36.94l-51.693 63.924c-4.589 5.689-5.518 13.502-2.351 20.101s9.804 10.79 17.105 10.79h76.648c10.468 0 18.963-8.476 18.963-18.963s-8.495-18.963-18.963-18.963h-36.94l51.693-63.924c4.589-5.689 5.518-13.502 2.37-20.101s-9.804-10.79-17.124-10.79h-76.648c-10.468 0-18.963 8.476-18.963 18.963s8.495 18.963 18.963 18.963z" fill="currentColor"/>
</svg>