<svg xmlns="http://www.w3.org/2000/svg" viewBox="0 0 1024 1024" width="24" height="24">
  <path d="M394.507 78.208c-12.533 3.627-30.080 22.016-33.696 35.115-4.736 16.715-3.904 114.795 0.832 128.448 4.459 12.821 4.736 12.256-10.869 17.28-32.587 10.304-62.112 39.563-76.875 76.619l-6.688 16.725-0.832 153.248-0.843 153.259-17.269 0.277c-62.4 0.832-84.96 66.315-58.773 170.805 7.52 30.091 23.115 77.461 31.2 94.741l4.736 10.027 275.765 0.843c151.819 0.277 278.56 0 281.909-0.843 7.243-1.664 18.101-26.464 32.587-74.955 14.485-47.083 19.221-77.739 17.835-114.517-0.843-24.245-2.507-33.44-7.243-44.587-12.544-27.584-32.875-41.515-61.013-41.515l-17.547-0.277v-143.499c0-152.981-1.109-165.515-14.208-193.387-12.256-26.187-44.565-54.891-70.752-62.965-15.317-4.736-16.16-5.856-11.136-17.835 3.616-8.64 4.448-20.619 3.616-68.267-0.832-65.76-3.061-73.003-24.235-88.053l-11.979-8.363-107.52-0.555c-63.232-0.277-111.701 0.555-117.003 2.229zM619.861 111.093l8.085 8.075v115.36l-8.085 8.075-8.075 8.085h-210.037l-16.149-16.16v-115.36l16.149-16.16h210.037zM661.931 287.467c20.331 9.472 39.552 28.704 49.024 49.045l7.52 15.883 0.832 163.563c0.843 161.611 0.565 163.84-5.013 171.637-3.061 4.181-11.136 20.907-17.824 36.789-7.797 18.667-13.365 28.971-15.883 28.693-2.219-0.277-19.776-5.013-39.552-10.304-88.576-24.245-176.043-24.245-267.968-0.565-19.787 5.301-37.888 10.037-40.117 10.592-2.507 0.555-7.52-8.64-15.317-27.307-6.411-15.328-14.485-32.043-17.835-36.779l-6.4-8.64 0.832-163.84c0.832-162.731 0.832-163.84 6.965-177.216 12.811-27.584 32.587-45.696 60.171-55.456 13.365-4.448 25.344-5.013 149.579-4.171l135.104 0.555zM267.765 692.053c8.64 7.253 14.763 18.389 28.693 52.672 10.304 24.789 20.331 38.165 28.416 38.165 3.339 0 17.269-3.616 31.2-8.075 55.147-17.557 80.501-21.184 150.699-21.184s95.541 3.627 150.699 21.184c13.931 4.459 27.851 8.075 31.2 8.075 8.352 0 18.101-13.376 28.416-38.165 14.763-36.224 19.499-44.864 28.683-52.672 7.52-6.4 10.592-7.243 22.571-5.845 19.221 1.675 33.141 16.437 37.877 39.84 7.808 36.789-5.291 105.333-33.984 177.216l-2.784 7.808h-525.643l-8.075-21.739c-19.499-50.155-29.525-95.851-29.525-135.701-0.277-27.584 0.555-32.32 6.677-44.299 11.979-23.125 38.165-31.211 54.88-17.28zM267.765 692.053z" fill="currentColor"/>
  <path d="M382.251 404.224c-7.797 4.459-6.123 13.376 8.64 43.189 17.269 35.104 31.755 74.389 42.336 113.685 6.688 23.957 8.917 39.285 10.037 67.989 1.664 39.563 4.171 46.251 15.595 44.576 12.811-1.952 15.595-21.173 10.027-67.712-6.123-51.819-28.128-119.253-57.099-177.216-13.376-26.741-18.389-31.2-29.536-24.512zM382.251 404.224z" fill="currentColor"/>
  <path d="M615.968 404.501c-6.965 5.291-36.213 69.099-49.024 106.72-13.931 41.792-22.571 83.872-24.235 119.808-1.675 30.656 1.387 41.248 11.979 42.635 11.413 1.675 13.92-5.013 15.595-43.189 1.397-38.731 6.965-65.483 22.283-110.901 9.749-28.139 27.019-69.099 37.888-89.163 7.243-13.653 7.52-22.571 0.555-26.475-6.965-3.616-9.472-3.616-15.040 0.565zM615.968 404.501z" fill="currentColor"/>
</svg>