<svg xmlns="http://www.w3.org/2000/svg" viewBox="0 0 1024 1024" width="24" height="24">
  <path d="M1001.611 301.984h-27.968c-33.483-176.352-201.824-295.787-380.181-267.189-51.392 8.192-100.821 28.661-142.976 59.147-0.256 0.181-0.363 0.459-0.597 0.64-0.587 0.501-1.088 1.088-1.568 1.728-0.459 0.565-0.864 1.109-1.184 1.728-0.32 0.629-0.523 1.291-0.725 1.973-0.224 0.779-0.416 1.504-0.459 2.304-0.021 0.288-0.181 0.544-0.181 0.864v131.851c-7.691 9.76-14.613 20.181-20.32 31.253-13.749 2.261-27.221 5.963-40.181 11.061-3.157 1.248-5.589 3.84-6.645 7.072-1.045 3.232-0.587 6.763 1.237 9.621 7.488 11.744 16.203 22.667 25.984 32.533-2.091 13.739-2.731 27.712-1.888 41.589 0.213 3.392 1.92 6.528 4.672 8.501 2.752 2.005 6.261 2.667 9.536 1.824 13.472-3.477 26.56-8.416 38.987-14.677 12.427 6.261 25.515 11.179 38.987 14.677 0.96 0.245 1.888 0.363 2.848 0.363 2.368 0 4.736-0.747 6.688-2.187 2.763-1.973 4.469-5.109 4.672-8.501 0.843-13.899 0.203-27.872-1.888-41.589 9.803-9.899 18.496-20.789 25.984-32.533 1.867-2.859 2.304-6.389 1.259-9.621-1.067-3.232-3.488-5.824-6.667-7.072-12.907-5.099-26.411-8.8-40.149-11.061-5.717-11.072-12.64-21.472-20.331-31.253v-125.664c38.261-26.645 82.507-44.768 128.533-52.139 164.715-26.411 320.213 82.784 353.333 244.736h-23.147c-6.261 0-11.381 5.088-11.381 11.371v174.165h-807.317v-174.165c0-6.283-5.099-11.371-11.381-11.371h-74.293c-6.283 0-11.381 5.088-11.381 11.371v693.728c0 6.304 5.099 11.381 11.381 11.381h74.293c6.283 0 11.381-5.077 11.381-11.381v-64.416h807.36v64.416c0 6.304 5.099 11.381 11.381 11.381h74.293c6.261 0 11.381-5.077 11.381-11.381v-693.707c0-6.304-5.12-11.371-11.381-11.371zM479.819 287.925c9.173 1.205 18.229 3.157 27.093 5.792-5.6 7.349-11.84 14.251-18.507 20.619-2.805 2.656-4.053 6.549-3.349 10.325 1.685 9.077 2.645 18.293 2.848 27.531-8.715-3.051-17.205-6.805-25.312-11.221-3.392-1.845-7.467-1.845-10.88 0-8.107 4.416-16.597 8.171-25.312 11.243 0.203-9.237 1.163-18.475 2.848-27.552 0.704-3.797-0.565-7.669-3.349-10.325-6.688-6.347-12.875-13.269-18.496-20.619 8.853-2.635 17.931-4.587 27.083-5.792 3.819-0.501 7.125-2.891 8.779-6.379 3.989-8.341 8.629-16.373 13.888-23.947 5.259 7.573 9.899 15.605 13.888 23.947 1.653 3.488 4.96 5.899 8.779 6.379zM372.896 510.272h127.979v409.643h-127.979zM350.133 919.915h-127.989v-409.643h127.989zM523.637 510.272h127.979v409.643h-127.979zM674.379 510.272h127.989v409.643h-127.989zM85.813 995.712h-51.531v-670.987h51.531zM108.576 510.272h90.837v409.643h-90.837zM825.099 919.915v-409.643h90.837v409.643zM990.229 995.712h-51.531v-670.987h51.531zM990.229 995.712z" fill="currentColor"/>
</svg>