<svg xmlns="http://www.w3.org/2000/svg" viewBox="0 0 1024 1024" width="24" height="24">
  <path d="M743.296 295.211c11.691 4.32 19.605 7.179 30.347 7.552 10.688 0 21.152-4.075 29.173-11.595l84.597-79.435c10.869-10.197 15.584-25.035 12.64-39.68-4.533-22.475-16.715-65.237-47.467-99.147-34.677-38.24-82.4-55.083-141.984-50.176-1.035-3.563-4.107-6.336-7.723-7.104l-64.416-14.016c-5.429-1.184-10.827 2.112-12.277 7.477l-16.843 62.389c-16.928 44.331-60.075 74.080-107.531 74.080s-90.592-29.749-107.52-74.080l-16.853-62.389c-1.461-5.408-6.923-8.693-12.373-7.445l-61.611 14.005c-3.584 0.8-6.624 3.573-7.627 7.115-59.744-5.003-107.595 11.829-142.336 50.144-30.752 33.909-42.933 76.672-47.467 99.147-2.944 14.656 1.771 29.483 12.629 39.68l84.608 79.435c17.728 16.704 39.552 12.533 60.949 3.467l-163.285 636.757c-10.112 39.403 12.907 78.88 52.405 89.877 5.792 1.611 11.925 2.4 18.784 2.4 21.984 0 33.333-8.149 43.349-15.328 8.896-6.379 15.915-11.424 31.211-11.424 15.285 0 22.315 5.045 31.2 11.424 10.016 7.179 21.365 15.328 43.36 15.328 21.984 0 33.333-8.149 43.349-15.328 8.885-6.379 15.915-11.424 31.2-11.424s22.304 5.045 31.2 11.424c10.016 7.179 21.355 15.328 43.349 15.328 21.984 0 33.344-8.149 43.349-15.328 8.896-6.379 15.925-11.424 31.211-11.424s22.315 5.045 31.211 11.424c10.005 7.179 21.355 15.328 43.349 15.328s33.344-8.149 43.36-15.328c8.885-6.379 15.915-11.424 31.211-11.424 15.285 0 22.304 5.045 31.2 11.424 10.016 7.179 21.365 15.328 43.36 15.328 21.248 0 29.632-4.48 37.024-8.437 5.824-3.125 10.88-5.824 25.888-5.973 15.136 3.915 60.917 12.992 84.213-12.395 15.776-17.184 16.843-45.259 3.168-83.445l-175.584-618.197zM359.925 24.203l14.677 54.176c19.84 52.661 70.965 88.043 127.211 88.043s107.371-35.381 127.211-88.043l14.699-54.272 43.819 9.536-45.803 157.877c-44.725 15.467-91.339 23.456-138.656 23.744-49.056 0.352-97.419-7.659-143.808-23.68l-40.736-157.973zM289.461 280.117c9.835-7.605 18.933-17.6 25.6-30.741 2.603-5.141 0.555-11.413-4.587-14.027-5.131-2.603-11.413-0.544-14.016 4.587-13.397 26.453-39.744 37.152-59.488 41.472-6.912 1.515-14.187-0.523-19.435-5.461l-9.728-9.12 22.869-20.245c4.309-3.819 4.715-10.411 0.907-14.72-3.819-4.32-10.411-4.715-14.72-0.907l-24.32 21.536-36.469-34.229 26.144-27.040c4.011-4.139 3.904-10.752-0.235-14.752-4.139-4.011-10.741-3.893-14.741 0.245l-26.368 27.264-7.947-7.456c-5.568-5.227-7.979-12.832-6.464-20.352 9.013-44.725 43.851-145.813 173.237-132.085l40.768 158.101c0.864 3.339 3.328 6.037 6.571 7.211 49.376 17.749 102.368 26.731 154.752 26.731 51.445-0.32 103.52-9.312 151.979-26.731 3.147-1.131 5.557-3.701 6.485-6.912l45.952-158.389c129.525-13.824 164.384 87.339 173.397 132.075 1.515 7.52-0.907 15.125-6.464 20.352l-13.536 12.715-25.824-27.605c-3.936-4.213-10.539-4.427-14.741-0.491s-4.416 10.539-0.491 14.741l25.845 27.627-30.005 28.181-29.461-32.939c-3.84-4.299-10.432-4.661-14.72-0.821-4.299 3.851-4.661 10.443-0.821 14.731l29.792 33.301-10.635 9.984c-5.259 4.939-12.523 6.976-19.445 5.461-19.744-4.32-46.080-15.019-59.488-41.472-2.603-5.131-8.875-7.179-14.016-4.587-5.131 2.613-7.179 8.885-4.576 14.027 6.859 13.547 16.331 23.755 26.507 31.435l185.237 650.485c-7.285-2.112-13.003-5.803-19.264-9.856-10.88-7.061-23.2-15.051-44.267-15.051-21.44 0-32.469 8.192-42.197 15.424-8.501 6.325-15.211 11.317-29.749 11.317s-21.248-4.992-29.749-11.317c-9.728-7.232-20.747-15.424-42.187-15.424-21.429 0-32.448 8.203-42.176 15.424-8.501 6.325-15.221 11.317-29.749 11.317-14.539 0-21.248-4.992-29.749-11.317-9.728-7.221-20.747-15.424-42.187-15.424-21.429 0-32.448 8.203-42.176 15.424-8.501 6.325-15.221 11.317-29.749 11.317-14.539 0-21.248-4.992-29.739-11.317-9.728-7.232-20.757-15.424-42.187-15.424s-32.448 8.203-42.176 15.424c-8.501 6.325-15.211 11.317-29.739 11.317s-21.248-4.992-29.749-11.317c-9.728-7.232-20.747-15.424-42.176-15.424-21.44 0-32.459 8.192-42.187 15.424-8.501 6.325-15.211 11.317-29.749 11.317-14.944 0-23.189-5.248-32.736-11.317-8.267-5.259-17.408-11.051-30.773-13.429zM900.352 982.752c-12.672 13.813-42.677 11.904-64.523 6.080-19.275-2.048-33.792 4.331-40.053 8-5.984 3.2-11.157 5.973-27.189 5.973-15.296 0-22.315-5.045-31.211-11.424-10.016-7.179-21.365-15.328-43.36-15.328-21.984 0-33.333 8.149-43.349 15.328-8.896 6.379-15.925 11.424-31.211 11.424-15.296 0-22.315-5.045-31.211-11.424-10.016-7.179-21.365-15.328-43.349-15.328-21.995 0-33.344 8.149-43.36 15.328-8.885 6.379-15.915 11.424-31.2 11.424-15.296 0-22.315-5.045-31.2-11.424-10.016-7.179-21.365-15.328-43.349-15.328-21.995 0-33.344 8.149-43.349 15.328-8.896 6.379-15.915 11.424-31.2 11.424-15.296 0-22.315-5.045-31.211-11.424-10.016-7.179-21.365-15.328-43.36-15.328-21.984 0-33.333 8.149-43.349 15.328-8.896 6.379-15.915 11.424-31.2 11.424-4.939 0-9.259-0.533-13.195-1.632-28.459-7.925-45.056-36.299-37.803-64.597l2.027-7.915c10.229 1.504 17.088 5.856 24.8 10.763 10.731 6.827 22.901 14.56 43.915 14.56 21.44 0 32.459-8.192 42.187-15.424 8.501-6.325 15.211-11.317 29.739-11.317 14.539 0 21.248 4.992 29.749 11.317 9.728 7.232 20.757 15.424 42.187 15.424s32.448-8.192 42.176-15.424c8.501-6.325 15.211-11.317 29.739-11.317 14.539 0 21.248 4.992 29.749 11.317 9.728 7.232 20.747 15.424 42.176 15.424s32.459-8.192 42.187-15.424c8.501-6.325 15.211-11.317 29.739-11.317 14.539 0 21.248 4.992 29.749 11.317 9.728 7.232 20.757 15.424 42.187 15.424s32.459-8.192 42.187-15.424c8.501-6.325 15.211-11.317 29.749-11.317 14.528 0 21.248 4.992 29.749 11.317 9.728 7.232 20.747 15.424 42.187 15.424 21.429 0 32.459-8.192 42.187-15.424 8.501-6.325 15.211-11.317 29.749-11.317 14.901 0 23.253 5.419 32.928 11.691 9.195 5.963 19.435 12.576 35.083 14.485 1.067 11.584-0.427 22.293-6.88 29.333zM900.352 982.752z" fill="currentColor"/>
</svg>