<svg xmlns="http://www.w3.org/2000/svg" viewBox="0 0 1024 1024" width="24" height="24">
  <path d="M784.206 713.758h-27.012l66.694-575.92 77.118-137.838h-446.478v30.416h394.608l-54.76 97.88-18.728 161.734c-0.248-0.038-0.49-0.080-0.736-0.118-1.758-0.276-3.476-0.568-5.144-0.876-0.254-0.046-0.516-0.092-0.766-0.138-1.814-0.342-3.572-0.706-5.296-1.082-0.388-0.086-0.772-0.17-1.156-0.258-1.712-0.386-3.396-0.782-5.032-1.196-0.082-0.020-0.16-0.042-0.242-0.062-1.598-0.408-3.16-0.832-4.698-1.264-0.332-0.094-0.668-0.186-0.996-0.28-1.542-0.44-3.062-0.89-4.562-1.35-0.28-0.086-0.556-0.172-0.834-0.26-1.37-0.426-2.732-0.858-4.080-1.296-0.228-0.072-0.454-0.146-0.682-0.22-1.49-0.488-2.972-0.984-4.452-1.482-0.382-0.13-0.762-0.258-1.146-0.388-1.406-0.476-2.808-0.954-4.22-1.438-23.152-7.918-47.094-16.106-94.318-16.106-16.234 0-29.716 0.968-41.36 2.558-2.116 0.29-4.174 0.6-6.174 0.928s-3.948 0.676-5.844 1.038c-16.116 3.090-28.638 7.372-40.936 11.58-4.76 1.628-9.46 3.236-14.342 4.756-2.092 0.65-4.218 1.286-6.396 1.898-10.162 2.86-21.46 5.246-35.804 6.602-2.048 0.192-4.16 0.366-6.338 0.518-2.18 0.15-4.424 0.278-6.746 0.382-4.64 0.206-9.572 0.316-14.844 0.316-42.172 0-62.778-7.030-84.594-14.474-1.020-0.348-2.042-0.698-3.068-1.044-0.324-0.11-0.648-0.218-0.976-0.33-0.754-0.256-1.51-0.51-2.27-0.766-0.382-0.128-0.762-0.256-1.144-0.382-0.714-0.238-1.43-0.474-2.15-0.712-0.394-0.13-0.786-0.258-1.182-0.386-0.734-0.24-1.476-0.476-2.218-0.714-0.382-0.122-0.76-0.244-1.144-0.364-0.826-0.26-1.658-0.518-2.496-0.772-0.304-0.094-0.606-0.186-0.912-0.28-1.152-0.346-2.314-0.692-3.496-1.030-0.112-0.032-0.228-0.062-0.338-0.096-1.054-0.3-2.118-0.598-3.2-0.892-0.376-0.102-0.76-0.2-1.14-0.302-0.834-0.22-1.67-0.44-2.52-0.656-0.454-0.116-0.914-0.23-1.374-0.342-0.806-0.198-1.62-0.396-2.444-0.588-0.482-0.114-0.968-0.228-1.458-0.338-0.848-0.192-1.708-0.382-2.576-0.568-0.47-0.102-0.936-0.204-1.414-0.304-1.024-0.212-2.068-0.42-3.122-0.622-0.332-0.064-0.656-0.132-0.994-0.194-1.398-0.264-2.82-0.518-4.274-0.762-0.332-0.056-0.68-0.108-1.014-0.162-1.128-0.184-2.266-0.364-3.43-0.538-0.538-0.080-1.088-0.154-1.634-0.232-0.664-0.094-1.312-0.192-1.988-0.282l-8.304-75.83-9.99-91.25-7.358-67.164h119.686v-30.416h-153.616l10.686 97.58h-40.306c-59.406 0-107.736 48.33-107.736 107.738v236.55c0 59.406 48.33 107.736 107.736 107.736h89.808l17.978 164.154h-27.118c-32.982 0-59.818 26.832-59.818 59.818v190.606c0 32.984 26.834 59.818 59.818 59.818h87.77v-30.416h-87.77c-16.212 0-29.402-13.19-29.402-29.402v-190.606c0-16.212 13.19-29.402 29.402-29.402h472.808c16.212 0 29.402 13.19 29.402 29.402v190.606c0 16.212-13.19 29.402-29.402 29.402h-344.486v30.416h344.482c32.984 0 59.818-26.832 59.818-59.818v-190.606c0.002-32.984-26.832-59.818-59.816-59.818zM289.020 261.768l21.528 196.586h-79.816c-9.092 0-16.49-7.398-16.49-16.49v-236.546c0-9.092 7.398-16.49 16.49-16.49h50.298l7.99 72.94zM230.734 519.188c-42.634 0-77.322-34.686-77.322-77.322v-236.548c0-42.634 34.686-77.322 77.322-77.322h43.636l3.332 30.416h-46.968c-25.864 0-46.906 21.042-46.906 46.906v236.55c0 25.864 21.042 46.906 46.906 46.906h83.144l1.488 13.596 1.844 16.82h-86.476zM726.576 713.758h-98.682l13.402-268.92-30.378-1.512-13.478 270.434h-99.278l-13.476-270.434-30.378 1.512 13.4 268.92h-98.596l-45.756-417.816c0.238 0.040 0.466 0.086 0.702 0.126 1.498 0.262 2.96 0.536 4.394 0.822 0.422 0.084 0.846 0.166 1.264 0.254 1.646 0.338 3.262 0.69 4.836 1.056 0.232 0.054 0.454 0.112 0.684 0.164 1.394 0.33 2.76 0.672 4.104 1.022 0.382 0.1 0.764 0.198 1.142 0.298 1.5 0.4 2.98 0.808 4.434 1.226 0.152 0.044 0.3 0.090 0.45 0.134 1.348 0.394 2.68 0.794 3.998 1.202 0.348 0.108 0.698 0.214 1.044 0.324 1.418 0.444 2.824 0.892 4.22 1.35 0.060 0.020 0.122 0.040 0.184 0.060 1.404 0.46 2.798 0.926 4.194 1.398 0.336 0.114 0.676 0.228 1.012 0.342 1.354 0.458 2.708 0.918 4.068 1.382 23.204 7.916 47.196 16.102 94.416 16.102 47.224 0 71.162-8.188 94.312-16.106 21.756-7.44 42.302-14.47 84.468-14.47s62.718 7.028 84.474 14.47c0.97 0.33 1.938 0.662 2.912 0.994 0.4 0.136 0.8 0.272 1.2 0.408 0.642 0.218 1.288 0.436 1.932 0.652 0.444 0.15 0.89 0.298 1.336 0.448 0.626 0.21 1.26 0.42 1.892 0.628 0.442 0.146 0.882 0.292 1.328 0.436 0.74 0.242 1.486 0.48 2.236 0.72 0.332 0.106 0.662 0.214 0.996 0.318 1.044 0.33 2.098 0.656 3.166 0.984 0.378 0.116 0.76 0.228 1.14 0.34 0.734 0.222 1.472 0.44 2.22 0.656 0.45 0.13 0.904 0.26 1.358 0.39 0.706 0.2 1.42 0.4 2.138 0.598 0.464 0.128 0.928 0.256 1.4 0.382 0.794 0.212 1.602 0.424 2.416 0.632 0.392 0.102 0.776 0.202 1.172 0.302 1.192 0.3 2.4 0.592 3.632 0.88 0.304 0.070 0.62 0.14 0.928 0.208 0.96 0.218 1.928 0.436 2.916 0.646 0.458 0.098 0.926 0.194 1.39 0.29 0.87 0.18 1.75 0.36 2.642 0.532 0.494 0.098 0.994 0.192 1.496 0.286 0.944 0.176 1.908 0.348 2.878 0.518 0.44 0.078 0.876 0.156 1.322 0.232 1.422 0.238 2.862 0.468 4.34 0.688l-45.566 393.492z" fill="currentColor"/>
  <path d="M547.802 792.332c-42.208 0-76.546 34.34-76.546 76.546 0 42.208 34.34 76.546 76.546 76.546s76.546-34.34 76.546-76.546c-0-42.206-34.336-76.546-76.546-76.546zM547.802 915.010c-25.436 0-46.13-20.694-46.13-46.13s20.694-46.13 46.13-46.13 46.13 20.694 46.13 46.13-20.692 46.13-46.13 46.13z" fill="currentColor"/>
  <path d="M623.436 944.514l21.506 21.506c53.564-53.564 53.564-140.718 0-194.282l-21.506 21.508c41.704 41.706 41.704 109.562 0 151.268z" fill="currentColor"/>
</svg>