<svg xmlns="http://www.w3.org/2000/svg" viewBox="0 0 1024 1024" width="24" height="24">
  <path d="M905.781 301.259c-3.2-0.48-6.411 0.8-8.405 3.36-1.984 2.549-2.453 5.973-1.205 8.971 20.448 49.141 31.744 103.061 31.744 159.595 0 56.544-11.296 110.464-31.744 159.595-1.248 2.997-0.779 6.421 1.205 8.981 1.995 2.549 5.205 3.829 8.405 3.349l30.4-4.555c50.155-7.531 87.253-50.624 87.253-101.355 0-41.088 0-90.944 0-132.032 0-50.731-37.099-93.824-87.253-101.355 0 0-30.4-4.555-30.4-4.555zM918.517 321.323l15.008 2.251c41.365 6.208 71.968 41.749 71.968 83.595 0 41.088 0 90.944 0 132.032 0 41.845-30.603 77.387-71.968 83.595 0 0-15.008 2.251-15.008 2.251 17.675-47.264 27.349-98.443 27.349-151.861s-9.675-104.597-27.349-151.851zM918.517 321.323z" fill="currentColor"/>
  <path d="M127.691 313.589c1.237-2.997 0.779-6.421-1.216-8.971-1.995-2.56-5.205-3.84-8.405-3.36l-30.389 4.555c-50.165 7.531-87.264 50.624-87.264 101.355 0 41.088 0 90.944 0 132.032 0 50.731 37.099 93.824 87.264 101.355 0 0 30.389 4.555 30.389 4.555 3.2 0.48 6.411-0.8 8.405-3.349 1.995-2.56 2.453-5.984 1.216-8.981-20.459-49.131-31.744-103.051-31.744-159.595 0-56.533 11.285-110.453 31.744-159.595zM105.333 321.333c-17.675 47.253-27.339 98.432-27.339 151.851s9.664 104.597 27.339 151.861c0 0-14.997-2.251-14.997-2.251-41.365-6.208-71.968-41.749-71.968-83.595 0-41.088 0-90.944 0-132.032 0-41.845 30.603-77.387 71.968-83.595zM105.333 321.333z" fill="currentColor"/>
  <path d="M212.395 457.835h285.291c24.789 0 44.875-20.096 44.875-44.885v-259.253c0-16.917-13.707-30.624-30.613-30.624-0.011 0-0.021 0-0.021 0-169.739 0-311.413 121.109-343.627 281.504 0 0.032-0.011 0.075-0.021 0.107-2.453 13.131 1.056 26.667 9.579 36.939 8.533 10.272 21.184 16.213 34.539 16.213zM497.685 439.872h-285.291c-8.011 0.011-15.605-3.563-20.725-9.717-5.099-6.155-7.211-14.251-5.76-22.112 30.592-152.149 165.003-267.019 326.016-267.019h0.011c7.008 0 12.672 5.675 12.672 12.672 0 0 0 259.253 0 259.253 0 14.869-12.053 26.923-26.923 26.923zM497.685 439.872z" fill="currentColor"/>
  <path d="M578.731 188.736v224.213c0 24.789 20.096 44.885 44.875 44.885 0 0 122.144 0 187.851-0.277 13.248 0 25.845-5.931 34.315-16.16 8.469-10.251 11.936-23.723 9.461-36.789-0.011-0.021-0.021-0.053-0.021-0.075-23.445-117.792-106.069-214.379-215.424-257.675-0.021-0.011-0.053-0.021-0.075-0.032-13.803-5.312-29.333-3.477-41.515 4.896-12.192 8.384-19.467 22.229-19.467 37.013zM596.683 412.949v-224.224c0-8.864 4.363-17.173 11.68-22.197 7.296-5.024 16.597-6.123 24.875-2.955 103.712 41.088 182.101 132.683 204.363 244.416 1.472 7.797-0.597 15.84-5.653 21.952-5.067 6.123-12.587 9.664-20.533 9.664-0.011 0-0.021 0-0.032 0-65.643 0.267-187.627 0.267-187.776 0.267-14.869 0-26.923-12.053-26.923-26.923zM596.683 412.949z" fill="currentColor"/>
  <path d="M621.397 561.28c-13.856 0-29.931 8.192-43.915 22.304-19.52 19.712-35.147 50.773-35.147 82.72 0 54.965 35.851 91.211 79.061 91.211s79.061-36.245 79.061-91.211c0-31.947-15.040-62.987-34.432-82.699-13.867-14.101-30.048-22.325-44.629-22.325zM621.397 579.243c10.539 0 21.813 6.763 31.84 16.96 16.448 16.715 29.269 43.008 29.269 70.101 0 43.435-26.955 73.259-61.109 73.259s-61.109-29.824-61.109-73.259c0-27.093 13.387-53.376 29.941-70.080 10.080-10.176 21.184-16.981 31.168-16.981zM621.397 579.243z" fill="currentColor"/>
  <path d="M606.261 744.267c0.128-3.787-2.133-7.243-5.653-8.64-23.829-9.472-40.32-35.179-40.32-69.323 0-27.093 13.387-53.376 29.941-70.080 10.080-10.176 21.184-16.981 31.168-16.981 10.539 0 21.813 6.763 31.84 16.96 16.448 16.715 29.269 43.008 29.269 70.101 0 34.144-16.491 59.851-40.32 69.323-3.52 1.397-5.781 4.853-5.653 8.64l1.387 42.56c0.096 2.976 1.653 5.696 4.16 7.285s5.643 1.845 8.363 0.661c102.091-44.075 179.147-135.36 203.712-246.24 0.011-0.032 0.021-0.075 0.021-0.107 2.741-13.184-0.597-26.912-9.099-37.355s-21.248-16.501-34.709-16.501c-121.28 0-475.627 0-596.907 0.32-13.344 0-25.995 6.027-34.421 16.384-8.437 10.379-11.755 23.989-9.035 37.077 0.011 0.032 0.021 0.064 0.021 0.096 24.832 113.227 104.523 206.005 209.739 249.003 2.72 1.109 5.813 0.811 8.277-0.789 2.475-1.6 3.989-4.309 4.085-7.243 0.267-8.373 0.491-15.776 0.661-21.728 0.437-12.117-6.603-23.339-17.749-28.267-6.251-2.816-12.021-6.763-16.96-11.712-10.72-10.72-16.747-25.259-16.747-40.416 0-21.301 0-102.069 0-102.069 0-4.171 3.392-7.563 7.563-7.563s7.552 3.392 7.552 7.563v48.053c0 12.971 10.517 23.488 23.488 23.488h0.011c12.971 0 23.488-10.517 23.488-23.488v-48.053c0-4.171 3.381-7.563 7.552-7.563s7.563 3.392 7.563 7.563v48.053c0 12.971 10.507 23.488 23.477 23.488h0.021c12.971 0 23.488-10.517 23.488-23.488v-48.053c0-4.171 3.381-7.563 7.552-7.563s7.563 3.392 7.563 7.563v102.069c0 15.157-6.027 29.696-16.747 40.416-4.853 4.853-10.496 8.757-16.757 11.264-0.085 0.032-0.181 0.075-0.267 0.107-11.317 4.96-18.464 16.331-18.027 28.683l1.397 39.104c0.149 4.096 3.051 7.573 7.061 8.448 24.043 5.227 49.013 7.989 74.613 7.989 29.525 0 58.197-3.669 85.6-10.571 3.883-0.981 6.645-4.405 6.784-8.405zM588.128 749.685l-1.536 47.221c-24.011 5.525-49.003 8.437-74.667 8.437-21.888 0-43.275-2.112-63.989-6.165 0 0-1.152-32.053-1.152-32.053-0.171-4.917 2.635-9.451 7.093-11.499 8.427-3.381 16.128-8.619 22.72-15.221 14.080-14.091 21.995-33.195 21.995-53.109 0 0 0-102.069 0-102.069 0-14.080-11.424-25.515-25.504-25.515s-25.504 11.435-25.504 25.515v48.053c0 3.061-2.475 5.536-5.536 5.536 0 0-0.021 0-0.021 0-3.051 0-5.536-2.475-5.536-5.536 0 0 0-48.053 0-48.053 0-14.080-11.424-25.515-25.504-25.515-14.069 0-25.504 11.435-25.504 25.515v48.053c0 3.061-2.475 5.536-5.536 5.536 0 0-0.011 0-0.011 0-3.061 0-5.536-2.475-5.536-5.536 0 0 0-48.053 0-48.053 0-14.080-11.435-25.515-25.504-25.515-14.080 0-25.504 11.435-25.504 25.515v102.069c0 19.915 7.915 39.019 21.995 53.109 6.496 6.507 14.069 11.701 22.293 15.392 0.032 0.011 0.053 0.032 0.085 0.043 4.448 1.941 7.264 6.421 7.083 11.275l-0.245 8.555c-93.867-42.752-164.405-127.947-187.029-231.008-1.611-7.787 0.373-15.883 5.387-22.048 5.024-6.176 12.565-9.771 20.533-9.771 0 0 0.011 0 0.021 0 121.259-0.32 475.584-0.32 596.853-0.32 0 0 0.011 0 0.011 0 8.064 0 15.691 3.627 20.779 9.877 5.077 6.251 7.083 14.443 5.461 22.325-22.347 100.747-90.379 184.437-181.205 228.064 0-0.011-0.747-23.115-0.747-23.115 26.773-13.451 45.792-43.499 45.792-83.371 0-31.947-15.040-62.987-34.432-82.699-13.867-14.101-30.048-22.325-44.629-22.325-13.856 0-29.931 8.192-43.915 22.304-19.52 19.712-35.147 50.773-35.147 82.72 0 39.861 19.019 69.909 45.792 83.381zM588.128 749.685z" fill="currentColor"/>
  <path d="M600.736 735.488c-2.72-1.131-5.824-0.853-8.299 0.747s-4.011 4.309-4.107 7.253l-6.581 201.867c-0.011 0.096-0.011 0.192-0.011 0.288 0 21.899 17.771 39.669 39.659 39.669s39.659-17.771 39.659-39.669c0-0.096 0-0.192 0-0.288l-6.592-201.867c-0.096-2.944-1.632-5.653-4.107-7.253s-5.579-1.877-8.299-0.747c-6.443 2.667-13.408 4.075-20.661 4.075s-14.219-1.408-20.661-4.075zM605.888 755.851c5.024 1.099 10.208 1.664 15.509 1.664s10.496-0.565 15.509-1.664c0 0 6.197 189.92 6.197 189.92-0.064 11.925-9.771 21.589-21.707 21.589-11.904 0-21.579-9.6-21.707-21.472 0-0.117 6.197-190.037 6.197-190.037zM605.888 755.851z" fill="currentColor"/>
  <path d="M367.68 755.808c0.032 0 0.053 0.021 0.085 0.032 4.448 1.941 7.264 6.421 7.083 11.275 0 0.021 0 0.043 0 0.064-1.28 45.248-5.888 174.197-5.888 174.197-0.011 0.107-0.011 0.213-0.011 0.32 0 23.2 18.837 42.048 42.037 42.048s42.037-18.848 42.037-42.048c0-0.107 0-0.213 0-0.32l-6.24-174.251c-0.171-4.917 2.635-9.451 7.093-11.499 8.427-3.381 16.128-8.619 22.72-15.221 14.080-14.091 21.995-33.195 21.995-53.109 0 0 0-102.069 0-102.069 0-14.080-11.424-25.515-25.504-25.515s-25.504 11.435-25.504 25.515v48.053c0 3.061-2.475 5.536-5.536 5.536 0 0-0.021 0-0.021 0-3.051 0-5.536-2.475-5.536-5.536 0 0 0-48.053 0-48.053 0-14.080-11.424-25.515-25.504-25.515-14.069 0-25.504 11.435-25.504 25.515v48.053c0 3.061-2.475 5.536-5.536 5.536 0 0-0.011 0-0.011 0-3.061 0-5.536-2.475-5.536-5.536 0 0 0-48.053 0-48.053 0-14.080-11.435-25.515-25.504-25.515-14.080 0-25.504 11.435-25.504 25.515v102.069c0 19.915 7.915 39.019 21.995 53.109 6.496 6.507 14.069 11.701 22.293 15.403zM375.040 739.424c-6.251-2.816-12.021-6.763-16.96-11.712-10.72-10.72-16.747-25.259-16.747-40.416 0-21.301 0-102.069 0-102.069 0-4.171 3.392-7.563 7.563-7.563s7.552 3.392 7.552 7.563v48.053c0 12.971 10.517 23.488 23.488 23.488h0.011c12.971 0 23.488-10.517 23.488-23.488v-48.053c0-4.171 3.381-7.563 7.552-7.563s7.563 3.392 7.563 7.563v48.053c0 12.971 10.507 23.488 23.477 23.488h0.021c12.971 0 23.488-10.517 23.488-23.488v-48.053c0-4.171 3.381-7.563 7.552-7.563s7.563 3.392 7.563 7.563v102.069c0 15.157-6.027 29.696-16.747 40.416-4.853 4.853-10.496 8.757-16.757 11.264-0.085 0.032-0.181 0.075-0.267 0.107-11.317 4.96-18.464 16.331-18.027 28.683l6.219 174.069c-0.064 13.237-10.837 23.957-24.085 23.957-13.205 0-23.947-10.656-24.085-23.84 0.192-5.579 4.64-129.973 5.888-174.261 0.437-12.117-6.603-23.339-17.749-28.267zM375.040 739.424z" fill="currentColor"/>
  <path d="M377.408 885.941c2.677 0.875 5.611 0.437 7.925-1.184 2.315-1.611 3.723-4.224 3.829-7.040 1.355-39.211 2.955-86.208 3.627-110.027 0.437-12.117-6.603-23.339-17.749-28.267-6.251-2.816-12.021-6.763-16.96-11.712-10.72-10.72-16.747-25.259-16.747-40.416 0-21.301 0-102.069 0-102.069 0-4.171 3.392-7.563 7.563-7.563s7.552 3.392 7.552 7.563v48.053c0 12.971 10.517 23.488 23.488 23.488h0.011c12.971 0 23.488-10.517 23.488-23.488v-48.053c0-4.171 3.381-7.563 7.552-7.563s7.563 3.392 7.563 7.563v48.053c0 12.971 10.507 23.488 23.477 23.488h0.021c12.971 0 23.488-10.517 23.488-23.488v-48.053c0-4.171 3.381-7.563 7.552-7.563s7.563 3.392 7.563 7.563v102.069c0 15.157-6.027 29.696-16.747 40.416-4.853 4.853-10.496 8.757-16.757 11.264-0.085 0.032-0.181 0.075-0.267 0.107-11.317 4.96-18.464 16.331-18.027 28.683l4.48 125.12c0.149 4.277 3.285 7.851 7.499 8.544 23.136 3.819 46.891 5.813 71.093 5.813 28.139 0 55.659-2.688 82.283-7.808 4.117-0.8 7.136-4.331 7.275-8.523l4.405-135.061c5.024 1.099 10.208 1.664 15.509 1.664s10.496-0.565 15.509-1.664c0 0 3.915 119.797 3.915 119.797 0.085 2.848 1.525 5.483 3.872 7.104 2.347 1.611 5.312 2.016 8.011 1.099 170.485-58.539 293.163-220.384 293.163-410.667 0-239.563-194.443-434.059-433.941-434.059s-433.931 194.496-433.931 434.059c0 192.608 125.685 356.085 299.413 412.757zM371.637 864.992c-160.64-57.621-275.691-211.381-275.691-391.808 0-229.653 186.389-416.096 415.979-416.096s415.989 186.443 415.989 416.096c0 178.112-112.117 330.24-269.568 389.547 0.011 0-3.883-119.243-3.883-119.243-0.096-2.944-1.632-5.653-4.107-7.253s-5.579-1.877-8.299-0.747c-6.443 2.667-13.408 4.075-20.661 4.075s-14.219-1.408-20.661-4.075c-2.72-1.131-5.824-0.853-8.299 0.747s-4.011 4.309-4.107 7.253l-4.555 139.605c-23.328 4.064-47.339 6.187-71.851 6.187-20.693 0-41.035-1.504-60.928-4.437 0 0-4.203-117.717-4.203-117.717-0.181-4.917 2.624-9.451 7.083-11.499 8.427-3.381 16.128-8.619 22.72-15.221 14.080-14.091 21.995-33.195 21.995-53.109 0 0 0-102.069 0-102.069 0-14.080-11.424-25.515-25.504-25.515s-25.504 11.435-25.504 25.515v48.053c0 3.061-2.475 5.536-5.536 5.536 0 0-0.021 0-0.021 0-3.051 0-5.536-2.475-5.536-5.536 0 0 0-48.053 0-48.053 0-14.080-11.424-25.515-25.504-25.515-14.069 0-25.504 11.435-25.504 25.515v48.053c0 3.061-2.475 5.536-5.536 5.536 0 0-0.011 0-0.011 0-3.061 0-5.536-2.475-5.536-5.536 0 0 0-48.053 0-48.053 0-14.080-11.435-25.515-25.504-25.515-14.080 0-25.504 11.435-25.504 25.515v102.069c0 19.915 7.915 39.019 21.995 53.109 6.496 6.507 14.069 11.701 22.293 15.403 0.032 0 0.064 0.021 0.085 0.032 4.448 1.941 7.264 6.421 7.083 11.275 0 0.021 0 0.043 0 0.064-0.597 21.387-1.952 61.483-3.211 97.813zM371.637 864.992z" fill="currentColor"/>
</svg>