<svg xmlns="http://www.w3.org/2000/svg" viewBox="0 0 1024 1024" width="24" height="24">
  <path d="M119.46 472.685c0 9.425-7.64 17.065-17.065 17.065s-17.065-7.64-17.065-17.065c0-9.425 7.64-17.065 17.065-17.065s17.065 7.64 17.065 17.065z" fill="currentColor"/>
  <path d="M221.852 472.685c0 9.425-7.64 17.065-17.065 17.065s-17.065-7.64-17.065-17.065c0-9.425 7.64-17.065 17.065-17.065s17.065 7.64 17.065 17.065z" fill="currentColor"/>
  <path d="M170.656 523.881c0 9.425-7.64 17.065-17.065 17.065s-17.065-7.64-17.065-17.065c0-9.425 7.64-17.065 17.065-17.065s17.065 7.64 17.065 17.065z" fill="currentColor"/>
  <path d="M324.243 472.685c0 9.425-7.64 17.065-17.065 17.065s-17.065-7.64-17.065-17.065c0-9.425 7.64-17.065 17.065-17.065s17.065 7.64 17.065 17.065z" fill="currentColor"/>
  <path d="M426.635 472.685c0 9.425-7.64 17.065-17.065 17.065s-17.065-7.64-17.065-17.065c0-9.425 7.64-17.065 17.065-17.065s17.065 7.64 17.065 17.065z" fill="currentColor"/>
  <path d="M511.962 472.685c0 9.425-7.64 17.065-17.065 17.065s-17.065-7.64-17.065-17.065c0-9.425 7.64-17.065 17.065-17.065s17.065 7.64 17.065 17.065z" fill="currentColor"/>
  <path d="M375.439 421.489c0 9.425-7.64 17.065-17.065 17.065s-17.065-7.64-17.065-17.065c0-9.425 7.64-17.065 17.065-17.065s17.065 7.64 17.065 17.065z" fill="currentColor"/>
  <path d="M375.439 523.881c0 9.425-7.64 17.065-17.065 17.065s-17.065-7.64-17.065-17.065c0-9.425 7.64-17.065 17.065-17.065s17.065 7.64 17.065 17.065z" fill="currentColor"/>
  <path d="M273.048 523.881c0 9.425-7.64 17.065-17.065 17.065s-17.065-7.64-17.065-17.065c0-9.425 7.64-17.065 17.065-17.065s17.065 7.64 17.065 17.065z" fill="currentColor"/>
  <path d="M426.635 575.077c0 9.425-7.64 17.065-17.065 17.065s-17.065-7.64-17.065-17.065c0-9.425 7.64-17.065 17.065-17.065s17.065 7.64 17.065 17.065z" fill="currentColor"/>
  <path d="M563.158 523.881c0 9.425-7.64 17.065-17.065 17.065s-17.065-7.64-17.065-17.065c0-9.425 7.64-17.065 17.065-17.065s17.065 7.64 17.065 17.065z" fill="currentColor"/>
  <path d="M460.766 523.881c0 9.425-7.64 17.065-17.065 17.065s-17.065-7.64-17.065-17.065c0-9.425 7.64-17.065 17.065-17.065s17.065 7.64 17.065 17.065z" fill="currentColor"/>
  <path d="M511.962 575.077c0 9.425-7.64 17.065-17.065 17.065s-17.065-7.64-17.065-17.065c0-9.425 7.64-17.065 17.065-17.065s17.065 7.64 17.065 17.065z" fill="currentColor"/>
  <path d="M614.354 575.077c0 9.425-7.64 17.065-17.065 17.065s-17.065-7.64-17.065-17.065c0-9.425 7.64-17.065 17.065-17.065s17.065 7.64 17.065 17.065z" fill="currentColor"/>
  <path d="M716.745 575.077c0 9.425-7.64 17.065-17.065 17.065s-17.065-7.64-17.065-17.065c0-9.425 7.64-17.065 17.065-17.065s17.065 7.64 17.065 17.065z" fill="currentColor"/>
  <path d="M1018.736 571.667l-17.087-39.919c-0.124-0.29-0.296-0.548-0.434-0.83-2.81-7.125-7.347-14.191-13.999-20.896-27.682-27.902-86.631-43.228-185.501-42.994-0.394 0-0.794 0.004-1.19 0.004-2.654 0.010-5.33 0.028-8.041 0.060-1.442 0.016-2.902 0.040-4.36 0.062-1.676 0.026-3.352 0.054-5.050 0.090-2.508 0.050-5.048 0.114-7.603 0.182-0.42 0.012-0.824 0.018-1.246 0.030l-78.19-36.793 0.498-0.83c4.85-8.081 2.228-18.564-5.854-23.414s-18.564-2.228-23.414 5.854l-2.27 3.784-38.163-17.957 1.438-2.396c4.85-8.081 2.228-18.564-5.854-23.414s-18.564-2.228-23.414 5.854l-3.21 5.352-38.163-17.957 2.378-3.964c4.85-8.081 2.228-18.564-5.854-23.414s-18.564-2.228-23.414 5.854l-4.152 6.917-38.163-17.957 3.318-5.532c4.85-8.081 2.228-18.564-5.854-23.414s-18.564-2.228-23.414 5.854l-5.092 8.485-45.5-21.41c-7.795-3.668-17.105-0.95-21.7 6.337-1.778 2.82-5.622 8.197-11.471 15.277-9.897 11.977-21.702 23.986-35.335 35.181-73.212 60.117-164.051 72.916-274.667 8.491-2.366-1.378-4.884-2.092-7.383-2.266-13.797-3.486-27.204-23.118-27.204-41.315 0-9.425-7.639-17.065-17.065-17.065s-17.065 7.639-17.065 17.065c0 28.206 16.839 57.189 40.629 69.674-1.132 6.008-2.356 12.479-3.658 19.342-4.812 25.378-9.675 50.754-14.281 74.432-0.646 3.322-0.646 3.322-1.294 6.639-10.583 54.222-18.227 91.049-20.456 97.968-0.438 1.266-0.73 2.6-0.858 3.986-0.024 0.254-0.028 0.504-0.040 0.758-0.014 0.278-0.044 0.552-0.044 0.834v101.794c0 9.279 7.413 16.859 16.691 17.061 1.756 0.038 1.756 0.038 10.107 0.224 11.427 0.254 17.803 0.396 28.572 0.638 30.769 0.692 65.057 1.476 101.982 2.334 105.497 2.452 210.995 5.016 309.455 7.561 51.898 1.342 100.518 2.648 145.266 3.904 29.412 0.826 57.023 1.626 82.703 2.402 140.954 4.27 237.469-21.438 298.182-65.099 28.416-20.472 38.147-57.901 25.786-91.448zM784.562 501.351c1.16-0.024 2.314-0.044 3.464-0.064 1.672-0.026 3.352-0.056 4.998-0.074 0.804-0.010 1.592-0.014 2.39-0.022 93.786-0.816 146.49 12.351 166.856 32.881 6.441 6.493 8.185 12.301 7.541 17.441-20.582 19.014-91.385 33.389-199.696 40.493v0l14.447-90.655zM365.046 380.127c15.427-12.667 28.756-26.226 39.985-39.817 1.886-2.282 3.608-4.432 5.166-6.435l29.55 13.905-28.456 47.426c-4.85 8.081-2.228 18.564 5.854 23.414s18.564 2.228 23.414-5.854l30.228-50.38 38.163 17.957-29.396 48.994c-4.85 8.081-2.228 18.564 5.854 23.414s18.564 2.228 23.414-5.854l31.167-51.948 38.163 17.957-30.336 50.56c-4.85 8.081-2.228 18.564 5.854 23.414s18.564 2.228 23.414-5.854l32.109-53.514 38.163 17.957-31.277 52.128c-4.85 8.081-2.228 18.564 5.854 23.414 2.98 1.788 6.285 2.554 9.515 2.41-0.004 0.154-0.024 0.304-0.024 0.458 0 9.419 7.645 17.065 17.065 17.065s17.065-7.645 17.065-17.065c0-8.811-6.689-16.065-15.261-16.969l28.102-46.836 72.734 34.225-15.887 99.688c-65.881 3.142-143.408 4.142-230.351 2.992-62.257-0.824-127.316-2.672-193.688-5.336 7.479-1.812 13.047-8.535 13.047-16.569 0-9.419-7.645-17.065-17.065-17.065s-17.065 7.645-17.065 17.065c0 7.539 4.902 13.929 11.687 16.185-28.21-1.162-56.637-2.466-85.185-3.904 3.224-3.106 5.238-7.455 5.238-12.281 0-9.419-7.645-17.065-17.065-17.065s-17.065 7.645-17.065 17.065c0 4.19 1.518 8.023 4.028 10.995-25.54-1.35-50.182-2.752-73.716-4.174 0.914-2.090 1.428-4.394 1.428-6.819 0-9.419-7.645-17.065-17.065-17.065s-17.065 7.645-17.065 17.065c0 1.678 0.252 3.298 0.706 4.83-6.084-0.39-12.105-0.778-18.007-1.168-10.833-0.716-20.72-1.39-29.62-2.014 2.068-9.435 4.616-21.704 7.615-36.583 1.634 0.52 3.372 0.806 5.176 0.806 9.419 0 17.065-7.645 17.065-17.065 0-8.937-6.885-16.265-15.637-16.993 0.74-3.768 1.494-7.621 2.27-11.601 0.65-3.328 0.65-3.328 1.298-6.661 4.618-23.738 9.489-49.164 14.311-74.59 0.706-3.718 1.388-7.325 2.046-10.807 114.729 58.669 213.594 41.675 292.484-23.104zM973.018 635.412c-54.22 38.991-143.372 62.739-277.211 58.683-25.708-0.776-53.344-1.576-82.777-2.404-44.776-1.256-93.42-2.562-145.342-3.906-98.494-2.548-204.019-5.112-309.545-7.563-36.933-0.858-71.228-1.642-102.008-2.334-8.527-0.192-14.299-0.322-22.006-0.492v-66.753c9.425 0.664 19.996 1.386 31.647 2.156 39.513 2.61 83.163 5.218 129.699 7.653 106.041 5.548 210.903 9.363 308.965 10.659 23.996 0.318 47.198 0.486 69.628 0.508 0.106 0 0.212 0 0.316 0 3.596 0.004 7.171 0.002 10.727-0.002 0.236 0 0.47 0 0.706-0.002 3.49-0.006 6.959-0.014 10.409-0.026 0.218 0 0.432-0.002 0.65-0.002 21.702-0.082 42.625-0.316 62.739-0.708 0.084-0.002 0.168-0.004 0.252-0.004 2.786-0.054 5.548-0.114 8.301-0.176 0.762-0.016 1.53-0.032 2.292-0.050 2.476-0.056 4.932-0.116 7.381-0.178 0.996-0.024 1.994-0.050 2.984-0.076 2.294-0.060 4.574-0.122 6.845-0.186 1.15-0.032 2.3-0.066 3.446-0.098 2.152-0.064 4.294-0.13 6.425-0.196 1.226-0.038 2.45-0.078 3.67-0.118 2.050-0.068 4.094-0.136 6.125-0.208 1.296-0.046 2.586-0.092 3.876-0.14 1.95-0.072 3.898-0.144 5.83-0.218 1.34-0.052 2.668-0.106 3.998-0.16 1.88-0.076 3.762-0.152 5.626-0.232 1.336-0.056 2.656-0.116 3.982-0.176 1.842-0.082 3.686-0.162 5.51-0.248 1.362-0.064 2.706-0.13 4.058-0.196 1.758-0.084 3.522-0.168 5.264-0.256 1.506-0.076 2.99-0.158 4.482-0.236 2.686-0.142 5.352-0.288 7.999-0.438 1.854-0.106 3.712-0.21 5.546-0.318 1.23-0.074 2.442-0.15 3.664-0.226 1.782-0.11 3.566-0.218 5.328-0.332 1.256-0.080 2.494-0.164 3.74-0.248 1.698-0.112 3.398-0.226 5.080-0.342 1.248-0.086 2.482-0.176 3.72-0.264 1.672-0.12 3.344-0.24 4.998-0.362 1.194-0.088 2.38-0.18 3.564-0.27 1.674-0.128 3.34-0.258 4.994-0.39 1.152-0.092 2.296-0.186 3.438-0.278 1.676-0.138 3.342-0.278 5-0.42 1.090-0.094 2.178-0.188 3.26-0.282 1.706-0.15 3.398-0.302 5.084-0.456 1.002-0.092 2.006-0.184 3-0.276 1.776-0.166 3.534-0.338 5.286-0.508 0.884-0.086 1.774-0.172 2.652-0.26 1.894-0.19 3.768-0.384 5.634-0.58 0.716-0.076 1.44-0.148 2.152-0.224 2.274-0.242 4.524-0.49 6.755-0.742 0.278-0.032 0.564-0.062 0.842-0.094 5.174-0.588 10.229-1.2 15.173-1.838 0.158-0.020 0.31-0.042 0.468-0.062 2.246-0.29 4.468-0.586 6.663-0.888 0.5-0.068 0.99-0.14 1.488-0.208 1.862-0.258 3.712-0.52 5.54-0.786 0.582-0.084 1.156-0.172 1.734-0.256 1.72-0.254 3.428-0.512 5.114-0.772 0.626-0.096 1.248-0.196 1.87-0.294 1.624-0.256 3.234-0.514 4.828-0.776 0.634-0.104 1.264-0.21 1.894-0.314 1.576-0.264 3.136-0.53 4.684-0.8 0.602-0.106 1.202-0.21 1.8-0.316 1.582-0.282 3.148-0.566 4.7-0.854 0.526-0.098 1.056-0.196 1.58-0.294 1.628-0.306 3.234-0.618 4.826-0.932 0.43-0.084 0.864-0.168 1.29-0.254 1.746-0.35 3.468-0.704 5.172-1.064 0.252-0.054 0.512-0.106 0.764-0.158 7.959-1.69 15.445-3.488 22.452-5.394 0.224-0.062 0.442-0.124 0.666-0.184 1.484-0.406 2.95-0.818 4.39-1.234 0.348-0.1 0.69-0.204 1.036-0.304 1.306-0.384 2.598-0.77 3.868-1.16 0.39-0.12 0.776-0.242 1.164-0.364 1.208-0.378 2.402-0.76 3.578-1.146 0.402-0.132 0.802-0.266 1.202-0.398 1.142-0.382 2.268-0.766 3.376-1.156 0.396-0.14 0.794-0.278 1.186-0.418 1.104-0.394 2.188-0.792 3.26-1.194 0.362-0.136 0.726-0.27 1.084-0.408 1.098-0.42 2.176-0.844 3.24-1.27 0.306-0.124 0.618-0.246 0.922-0.37 1.142-0.466 2.256-0.938 3.356-1.412 0.202-0.088 0.41-0.174 0.612-0.262 3.952-1.728 7.627-3.52 11.023-5.378 0.082-0.046 0.16-0.092 0.244-0.138 1.014-0.558 2.006-1.122 2.97-1.694 0.246-0.146 0.482-0.294 0.724-0.44 0.786-0.474 1.562-0.95 2.316-1.434 0.3-0.192 0.59-0.388 0.884-0.582 0.454-0.298 0.922-0.594 1.364-0.896l0.846 1.972c6.929 18.862 1.438 39.985-14.017 51.12z" fill="currentColor"/>
</svg>