<svg xmlns="http://www.w3.org/2000/svg" viewBox="0 0 1024 1024" width="24" height="24">
  <path d="M913.204 804.614l-237.856-376.449 125.786-331.115c3.922-10.324-0.86-21.91-10.922-26.46l-151.884-68.726c-10.234-4.63-22.288-0.346-27.306 9.694l-99.022 198.064-99.018-198.064c-3.768-7.534-11.49-11.826-19.43-11.546-2.65 0.092-5.32 0.694-7.876 1.852l-151.888 68.724c-10.058 4.552-14.844 16.14-10.922 26.46l125.788 331.113-237.854 376.453c-4.708 7.452-4.234 17.054 1.18 24.008 1.568 2.012 39.164 49.816 107.088 97.878 14.974 10.594 32.18 21.668 51.408 32.4 0.16 0.094 0.32 0.186 0.484 0.274 61.44 34.214 143.616 64.828 241.038 64.828h0.004c97.268 0 179.338-30.518 240.748-64.666 0.41-0.214 0.808-0.436 1.198-0.67 19.054-10.658 36.122-21.646 50.982-32.164 67.924-48.060 105.522-95.864 107.088-97.878 5.42-6.954 5.894-16.556 1.186-24.010zM639.417 48.228l42.906 19.414-99.22 93.23 56.314-112.644zM532.899 265.393l190.62-179.11 31.566 14.284-117.398 309.037h-104.788v-144.21zM384.587 48.228l56.316 112.644-99.22-93.23 42.904-19.414zM268.913 100.568l31.57-14.284 190.62 179.11v144.21h-104.788l-117.402-309.037zM752.961 910.614l-135.252-315.763c-4.546-10.61-16.822-15.52-27.438-10.982-10.608 4.546-15.528 16.828-10.982 27.438l137.068 320.001c-51.042 26.18-112.812 46.884-183.458 50.36v-288.395c0-11.54-9.358-20.898-20.898-20.898-11.542 0-20.898 9.358-20.898 20.898v288.405c-71.772-3.562-133.938-25.024-183.456-50.29l137.062-320.079c4.544-10.61-0.374-22.894-10.984-27.436-10.616-4.544-22.896 0.374-27.436 10.984l-135.274 315.905c-9.578-5.912-18.5-11.828-26.682-17.588-44.546-31.352-75.46-63.072-89.976-79.252l229.054-362.523h257.173l229.048 362.515c-17.192 19.132-57.456 60.022-116.67 96.7z" fill="currentColor"/>
  <path d="M512.003 595.411c-11.542 0-20.898 9.356-20.898 20.898v9.356c0 11.54 9.356 20.898 20.898 20.898 11.54 0 20.898-9.358 20.898-20.898v-9.356c0-11.538-9.358-20.898-20.898-20.898z" fill="currentColor"/>
</svg>