<svg xmlns="http://www.w3.org/2000/svg" viewBox="0 0 1024 1024" width="24" height="24">
  <path d="M821.026 279.457c29.666 0 53.8-24.134 53.8-53.8s-24.134-53.8-53.8-53.8h-488.063l-16.484-114.008c-4.768-32.98-33.492-57.85-66.816-57.85-19.604 0-38.208 8.5-51.040 23.32s-18.582 34.448-15.778 53.852l13.746 95.080c-26.664 3.168-47.416 25.902-47.416 53.408 0 29.664 24.134 53.8 53.8 53.8h9.12l19.654 135.962v98.962c0 9.886 8.016 17.902 17.902 17.902h9.586l-93.834 470.309c-1.048 5.258 0.312 10.71 3.714 14.856 3.4 4.146 8.48 6.55 13.842 6.55h68.128c8.538 0 15.888-6.026 17.556-14.4l56.124-281.391h341.483l56.136 281.389c1.67 8.372 9.018 14.4 17.556 14.4h68.11c5.362 0 10.442-2.404 13.842-6.55 3.402-4.146 4.764-9.598 3.714-14.856l-93.812-470.303h38.208c9.886 0 17.902-8.016 17.902-17.902v-100.252c0-9.886-8.016-17.902-17.902-17.902h-41.384l16.88-116.774h75.526zM225.692 46.758c6.028-6.962 14.764-10.954 23.972-10.954 15.652 0 29.142 11.682 31.382 27.17l15.742 108.886h-64.076l-14.432-99.81c-1.316-9.114 1.384-18.332 7.412-25.292zM248.272 279.457h64.076l16.88 116.774h-64.076l-16.88-116.774zM236.404 988.194h-31.618l90.96-455.905h31.592l-90.934 455.905zM331.909 692.405l7.18-35.996h312.837l7.18 35.996h-327.197zM346.229 620.605l17.616-88.318h263.319l17.618 88.318h-298.553zM786.226 988.194h-31.6l-90.952-455.905h31.612l90.94 455.905zM752.103 432.037v64.448h-484.549v-64.448h484.549zM348.523 279.457h295.779l-16.88 116.774h-262.019l-16.88-116.774zM663.599 396.233l16.88-116.774h28.844l-16.88 116.774h-28.844zM202.976 243.654c-9.922 0-17.996-8.072-17.996-17.996s8.072-17.996 17.996-17.996h618.051c9.922 0 17.996 8.072 17.996 17.996s-8.072 17.996-17.996 17.996h-618.051z" fill="currentColor"/>
</svg>