<svg xmlns="http://www.w3.org/2000/svg" viewBox="0 0 1024 1024" width="24" height="24">
  <path d="M289.214 14.921c-12.877 6.132-34.951 16.351-49.054 22.687-14.103 6.541-28.002 14.307-30.863 17.373-8.176 8.789-11.037 26.366-11.037 68.675 0 40.878 2.248 55.799 14.716 97.086 14.307 48.032 45.17 114.663 73.785 160.243 9.402 14.921 12.672 21.87 12.672 27.593 0 13.49 5.927 35.768 14.103 52.529l7.971 16.556 1.431 37.608c2.657 71.128-4.292 205.413-11.242 218.29-5.11 9.606-26.775 9.606-54.368 0.204-15.125-5.314-21.87-5.11-28.615 0.613-5.723 5.11-4.497-0.818-28.819 127.54-6.541 35.36-6.541 35.36 16.76 54.777 47.010 39.039 116.707 75.012 173.119 89.728 48.441 12.672 85.844 14.307 145.935 6.336 105.67-13.694 146.344-28.819 233.824-86.253 43.944-29.024 53.142-36.382 53.142-42.105 0-2.453-6.132-35.564-13.694-73.785-11.446-59.273-14.307-70.106-18.191-74.194-5.11-5.11-12.059-5.927-23.301-2.657-14.307 4.292-37.199 6.132-49.667 4.088-6.745-1.022-12.468-2.248-12.672-2.453-0.409-0.409-2.248-60.5-4.088-133.467l-3.679-132.854 5.519-8.176c15.329-22.279 21.87-42.309 21.461-65.405l-0.204-16.351 18.395-37.812c21.052-43.127 33.316-74.398 45.17-115.481 15.738-54.572 21.461-91.567 20.235-134.285-0.613-24.118-1.226-28.615-4.701-33.316-4.905-6.745-102.196-52.12-111.393-52.12-7.154 0-31.476 12.263-48.032 24.323-31.681 23.301-83.8 73.581-123.657 119.364-9.402 10.833-18.191 19.826-19.417 19.826-1.431 0-5.519-3.883-9.198-8.584-12.263-15.125-73.99-77.26-96.064-96.677-21.052-18.395-59.682-49.667-68.267-55.186-9.606-6.132-13.694-5.519-38.017 5.723zM715.574 57.434l22.279 10.628-5.927 4.292c-29.637 21.257-42.718 32.498-66.632 56.412-30.046 30.046-50.485 55.39-79.508 98.108-10.424 15.125-19.622 27.593-20.644 27.593s-10.424-11.65-21.257-25.958l-19.417-25.753 20.848-23.301c29.637-33.111 68.675-72.968 92.385-94.020 20.644-18.395 48.236-38.426 52.937-38.426 1.431 0 12.672 4.701 24.936 10.424zM340.516 70.311c75.42 62.952 137.964 130.81 191.515 208.479l12.672 18.191-4.497 7.767-4.497 7.971h-63.77l-13.081-21.052c-56.616-91.363-124.065-171.075-179.455-211.545l-13.081-9.606 22.279-10.628c12.059-5.927 23.096-10.628 24.323-10.833 1.226 0 13.694 9.606 27.593 21.257zM260.394 114.868c22.279 16.964 59.069 52.733 76.442 74.398 15.329 19.213 17.578 29.024 19.213 83.8l1.226 41.083-7.358 4.292c-3.883 2.453-13.081 11.037-20.644 18.804l-13.285 14.307-7.971-13.899c-30.25-51.711-55.594-113.642-66.223-160.856-5.11-23.301-7.562-76.647-3.475-76.647 1.431 0 11.446 6.745 22.074 14.716zM768.715 118.956c-2.861 39.448-16.147 91.158-37.404 146.753-12.263 31.885-29.024 69.493-31.067 69.493-0.613 0-5.519-4.088-10.628-9.198-10.424-10.015-16.964-13.285-27.388-13.285h-6.745l-1.431-17.782c-2.861-32.703 3.066-92.998 9.811-103.422 4.905-7.562 35.973-40.265 51.302-54.164 14.716-13.081 48.645-37.199 52.733-37.199 1.635 0 1.84 5.927 0.818 18.804zM612.152 287.17v25.549h-5.11c-3.475 0-6.541-2.248-10.22-7.562-2.861-4.292-5.11-8.789-5.11-10.22 0-3.27 17.578-33.316 19.622-33.316 0.409 0 0.818 11.446 0.818 25.549zM412.461 290.44c6.336 10.22 11.65 19.417 11.65 20.439s-5.927 1.84-13.285 1.84h-13.285v-20.439c0-11.242 0.613-20.439 1.635-20.439 0.818 0 6.745 8.38 13.285 18.6zM667.337 359.729c18.804 18.804 22.279 39.243 10.833 63.77-9.402 19.826-18.804 29.432-34.133 34.133-27.593 8.584-41.083 9.402-131.015 8.993-59.887-0.409-94.429-1.431-114.459-3.679-45.17-4.905-40.674-3.066-49.463-20.848-6.336-12.877-7.767-18.395-8.584-30.659-0.613-13.694 0-16.351 5.723-28.206 3.679-7.154 10.628-17.169 15.534-22.279l8.993-9.402h288.396l8.176 8.176zM661.819 626.459c3.27 117.729 3.883 129.175 7.358 133.876 3.883 5.314 19.213 13.899 25.14 14.103 8.789 0.409 4.292 4.905-13.081 13.694-32.089 16.147-88.706 35.564-93.816 32.294-2.453-1.431-2.453-310.879 0-312.31 1.022-0.613 11.037-2.248 22.279-3.475 11.037-1.226 25.345-3.27 31.272-4.905 6.132-1.431 12.468-2.453 14.103-2.248 2.657 0.204 3.475 17.782 6.745 128.971zM395.497 502.394l13.285 1.431 0.613 153.089 0.409 153.089-7.971-1.431c-17.782-2.861-81.961-27.797-81.961-31.681 0-0.818 3.679-3.475 8.38-6.336 16.76-10.22 24.118-26.98 28.41-65.405 3.475-31.476 6.132-97.29 6.132-153.907v-52.733l9.811 1.226c5.314 0.818 15.534 1.84 22.892 2.657zM544.294 508.117c1.84 0.613 2.453 34.133 2.453 159.221 0 135.307-0.409 158.608-2.861 159.63-2.861 1.022-73.581-4.292-86.457-6.541l-6.745-1.226v-314.558l45.579 1.226c24.936 0.818 46.601 1.635 48.032 2.248zM282.469 800.396c66.018 41.696 150.636 62.748 252.014 62.952 31.272 0.204 43.535-0.613 57.23-3.475 48.236-10.424 103.218-33.725 153.907-64.996 8.789-5.519 16.76-10.015 17.782-10.015 0.818 0 4.088 12.672 6.949 28.002 2.861 15.534 6.541 34.747 8.176 42.922 2.657 14.103 2.657 14.921-1.635 18.6-7.154 6.745-78.691 50.28-99.13 60.704-26.162 13.081-61.113 24.323-94.224 30.454-111.802 20.439-166.988 15.329-248.335-22.279-28.615-13.285-79.508-44.966-98.925-61.522-0.818-0.613 15.125-87.888 17.373-95.451 1.022-3.475 1.431-3.475 6.541-0.204 3.066 2.044 13.081 8.38 22.279 14.307z" fill="currentColor"/>
</svg>