<svg xmlns="http://www.w3.org/2000/svg" viewBox="0 0 1024 1024" width="24" height="24">
  <path d="M972.026 990.825h-37.461c-0.557 0-1.028-0.416-1.099-0.969l-118.039-944.329c-3.245-25.954-25.416-45.527-51.574-45.527h-503.706c-26.157 0-48.329 19.573-51.572 45.527l-118.043 944.329c-0.069 0.553-0.542 0.969-1.099 0.969h-37.459c-9.161 0-16.587 7.425-16.587 16.587s7.427 16.587 16.587 16.587h37.461c17.253 0 31.877-12.909 34.015-30.028l111.253-890.024h172.242v445.52c-30.7 15.995-35.387 38.673-35.387 50.999v88.467c0 22.86 14.84 42.305 35.387 49.245v40.327h-1.106c-21.172 0-39.414 12.73-47.509 30.935-4.078-3.452-6.677-8.599-6.677-14.347v-35.387c0-28.659-23.315-51.974-51.974-51.974-9.161 0-16.587 7.425-16.587 16.587s7.427 16.587 16.587 16.587c10.366 0 18.799 8.433 18.799 18.799v35.387c0 23.623 15.847 43.601 37.463 49.897 6.297 21.617 26.275 37.463 49.897 37.463h212.32c23.623 0 43.601-15.847 49.897-37.463 21.617-6.297 37.463-26.275 37.463-49.897v-35.387c0-10.366 8.433-18.799 18.799-18.799 9.161 0 16.587-7.425 16.587-16.587s-7.427-16.587-16.587-16.587c-28.659 0-51.974 23.315-51.974 51.974v35.387c0 5.748-2.599 10.895-6.677 14.347-8.095-18.204-26.339-30.935-47.509-30.935h-1.106v-40.327c20.546-6.94 35.387-26.385 35.387-49.245v-88.467c0-12.328-4.687-35.004-35.387-50.999v-445.52h172.242l111.253 890.024c2.139 17.118 16.764 30.028 34.015 30.028h37.461c9.161 0 16.587-7.425 16.587-16.587s-7.427-16.587-16.587-16.587zM583.879 33.175v37.598h-143.758v-37.598h143.758zM238.851 70.773l2.641-21.132c1.172-9.386 9.192-16.466 18.653-16.466h146.801v37.598h-168.095zM636.959 830.479c0 10.366-8.433 18.799-18.799 18.799h-212.32c-10.366 0-18.799-8.433-18.799-18.799s8.433-18.799 18.799-18.799h212.32c10.366 0 18.799 8.433 18.799 18.799zM440.121 778.505v-37.598h143.758v37.598h-143.758zM619.266 688.933c0 10.366-8.433 18.799-18.799 18.799h-176.933c-10.366 0-18.799-8.433-18.799-18.799v-88.467c0-16.833 28.093-36.492 107.266-36.492s107.266 19.659 107.266 36.492v88.467zM583.879 537.753c-19.901-4.616-43.93-6.953-71.879-6.953s-51.979 2.338-71.879 6.953v-433.804h143.758v433.804zM617.054 70.773v-37.598h146.799c9.461 0 17.481 7.080 18.655 16.468l2.641 21.13h-168.095z" fill="currentColor"/>
</svg>