<svg xmlns="http://www.w3.org/2000/svg" viewBox="0 0 1024 1024" width="24" height="24">
  <path d="M874.812 199.054c-2.463 1.026-58.28 37.759-124.152 81.674s-125.999 83.315-134.002 87.214c-38.374 19.495-66.693 26.062-110.814 26.062-22.573 0-32.628-1.231-66.283-8.003l-39.811-7.798-72.029-72.029c-78.596-78.185-80.442-79.622-96.244-74.491-11.902 3.899-17.032 11.081-16.827 23.804 0 14.775 3.283 19.085 48.635 64.026 21.752 21.752 36.117 37.554 34.065 37.554-1.847 0-27.293-4.72-56.433-10.466-121.69-23.804-113.892-22.368-122.716-20.111-13.133 3.489-20.726 12.723-24.625 29.961-8.208 36.527-0.205 52.534 29.55 58.075 15.596 3.078 8.414-1.026 136.465 77.98 54.176 33.449 116.354 71.618 138.107 84.957 21.547 13.339 39.4 25.241 39.4 26.677 0 1.231-25.241 27.498-56.228 58.485l-56.228 56.228-19.29-9.85c-32.218-16.622-66.488-39.606-92.755-61.974-4.515-3.694-9.44-6.772-11.081-6.772-4.104 0-32.628 28.114-34.065 33.449-0.821 3.694 1.642 7.182 12.723 17.443 114.302 107.735 272.519 158.422 427.453 136.67 108.762-15.186 205.621-61.358 286.063-136.465 7.388-6.977 13.339-14.16 13.339-16.006 0-4.309-30.782-35.091-35.091-35.091-1.847 0-7.388 3.489-12.313 7.798-24.010 20.931-56.843 42.889-88.651 59.716l-20.316 10.671-12.518-11.902c-6.977-6.362-34.065-33.449-60.127-59.921l-47.198-48.224 26.883-32.834c22.778-28.114 106.915-131.745 181.816-224.295 19.495-24.010 21.547-26.062 51.508-46.172 35.707-24.010 40.632-29.55 40.632-45.762 0-9.44-1.231-12.723-10.055-26.062-5.541-8.414-12.928-17.443-16.622-20.111-7.388-5.13-22.778-7.388-30.166-4.104zM906.62 230.657c11.492 17.238 12.518 22.778 4.925 30.371-9.234 9.029-247.894 165.81-267.184 175.25-41.453 20.726-75.312 29.14-123.126 30.782l-31.808 1.231-32.834-33.039c-17.853-18.059-32.013-33.449-31.397-34.065 0.821-0.821 10.876 0.616 22.573 3.078 29.345 6.362 75.723 7.798 102.195 3.283 23.804-4.309 50.071-12.928 71.208-23.599 8.824-4.515 70.592-44.531 137.081-89.267 142.826-95.628 130.719-90.498 148.367-64.026zM244.816 248.51c2.463 1.231 62.384 60.127 133.182 130.719l128.872 128.667-7.593 7.593-7.388 7.593-127.025-125.589c-69.977-69.156-128.872-128.462-131.129-131.95-8.414-13.544-1.847-23.599 11.081-17.032zM226.552 359.939l96.244 19.29 34.886 34.886c19.29 19.29 34.681 35.707 34.065 36.117-0.616 0.616-63.205-11.287-139.338-26.472-150.214-29.961-146.52-28.935-146.52-42.479 0.41-22.163 9.234-40.632 19.7-40.632 2.668 0 48.019 8.619 100.964 19.29zM807.093 355.835c-5.951 7.798-166.015 205.21-179.559 221.422l-8.414 10.055-13.749-13.749c-12.518-12.518-13.954-14.775-15.186-24.010-3.899-28.935-25.651-48.635-53.56-48.84-11.697 0-12.928-0.41-20.316-8.003l-7.593-7.798 21.137-1.231c25.241-1.231 57.254-7.593 82.7-16.006 32.834-11.081 61.563-27.088 129.283-72.644 36.117-24.010 66.488-43.915 67.309-43.915 1.026-0.205 0 2.052-2.052 4.72zM305.558 451.258l111.429 22.368 33.86 33.449 33.655 33.655-0.821 9.029c-0.821 8.003-2.873 10.671-17.238 25.241l-16.417 16.417-56.228-34.886c-30.987-19.085-71.824-44.325-91.113-56.228-19.085-11.902-51.918-32.013-72.85-44.736-41.042-25.036-43.505-26.677-38.785-26.677 1.642 0 53.149 10.055 114.507 22.368zM553.658 521.44c22.984 11.287 26.883 39.606 7.798 58.485-10.876 11.081-23.599 13.749-37.759 7.798-29.961-12.518-30.987-53.355-1.436-66.693 10.876-4.925 20.316-4.925 31.397 0.41zM493.326 584.85c2.052 3.489 7.388 8.824 11.697 11.697l8.208 5.541-68.13 68.13c-66.488 66.488-68.13 68.13-74.286 66.283-9.44-2.668-24.83-8.619-27.293-10.261-1.231-1.026 25.857-29.55 70.798-74.697 40.221-40.016 73.465-72.85 74.081-72.85s2.873 2.873 4.925 6.156zM659.546 651.338c48.224 47.609 72.439 72.439 71.003 73.876-1.026 1.026-9.234 4.72-17.853 7.798l-16.006 5.746-67.104-67.104c-37.143-36.938-67.309-68.335-67.309-69.566s2.257-3.283 5.13-4.515c2.873-1.231 7.593-5.951 10.671-10.466 3.283-4.515 6.362-8.003 6.977-7.798 0.821 0.205 34.27 32.628 74.491 72.029zM549.759 614.4c6.567 6.772 6.567 6.772 1.847 8.208-6.362 1.642-29.345 1.642-31.192-0.205-0.616-0.821 1.642-4.515 5.335-8.208 8.619-8.824 15.186-8.824 24.010 0.205zM526.775 639.641c6.977 0.616 19.905 0 28.524-1.436l15.801-2.463 53.97 53.97c34.27 34.27 53.149 54.586 51.508 55.407-4.72 2.668-47.814 11.902-71.208 15.596-31.808 4.72-104.452 4.72-136.055 0-28.114-4.309-69.566-13.544-72.234-16.006-1.231-1.231 17.648-21.547 51.303-55.407 50.482-50.482 53.765-53.355 59.511-52.123 3.489 0.616 11.902 1.847 18.879 2.463zM223.474 675.758c36.733 27.703 88.651 56.638 129.283 72.234 66.283 25.241 147.136 37.143 216.907 32.218 104.863-7.593 196.386-41.453 278.676-102.81 12.107-9.234 22.778-16.622 23.599-16.622s4.72 3.283 8.619 7.388l6.977 7.388-10.261 9.234c-37.759 33.86-73.055 57.869-116.765 79.416-49.251 24.42-95.423 39.195-146.931 47.404-29.345 4.72-95.628 6.362-126.41 3.078-83.521-8.619-160.68-36.322-230.657-83.11-23.394-15.596-69.772-52.739-69.772-56.022 0-2.052 12.928-14.775 14.98-14.775 1.026 0 10.671 6.772 21.752 14.98z" fill="currentColor"/>
  <path d="M523.081 539.293c-15.186 13.544-2.463 38.169 17.853 34.475 3.489-0.821 8.208-3.283 10.466-5.951 17.853-19.495-8.414-46.172-28.319-28.524zM541.756 553.042c0 1.847-1.436 3.694-3.283 4.515-3.694 1.436-8.003-2.257-6.156-5.335 2.257-3.489 9.44-2.668 9.44 0.821z" fill="currentColor"/>
</svg>