<svg xmlns="http://www.w3.org/2000/svg" viewBox="0 0 1024 1024" width="24" height="24">
  <path d="M815.863 1017.872c-55.462 0-101.363-41.709-107.987-95.412h-274.041c-6.796 53.541-52.631 95.068-107.982 95.068s-101.192-41.527-107.982-95.068h-39.677c-25.514 0-46.275-20.756-46.275-46.275v-160.608c0-74.373 44.465-138.552 108.21-167.358l-105.272-383.98c-59.073 10.325-117.751-25.651-134.371-84.592-1.896-6.72 2.017-13.703 8.737-15.599l203.763-57.439c3.226-0.905 6.684-0.501 9.607 1.143 2.928 1.633 5.077 4.369 5.992 7.595 8.586 30.464 4.798 62.455-10.669 90.068-13.303 23.749-33.877 41.821-58.754 51.878l104.766 382.124c16.352-4.793 33.64-7.362 51.524-7.362h36.491c6.983 0 12.641 5.658 12.641 12.641v39.601c0 23.77 19.335 43.105 43.105 43.105h164.648c23.77 0 43.105-19.335 43.105-43.105v-39.601c0-6.983 5.658-12.641 12.641-12.641h18.39c37.164 0 70.687 1.901 100.903 5.521v-111.83h-77.119c-6.983 0-12.641-5.658-12.641-12.641s5.658-12.641 12.641-12.641h256.177c6.983 0 12.641 5.658 12.641 12.641s-5.658 12.641-12.641 12.641h-79.601v133.39c156.796 53.541 175.008 179.61 177.177 316.251 0.197 12.535-4.53 24.346-13.313 33.27-8.757 8.899-20.458 13.799-32.942 13.799h-53.89c-6.634 53.708-52.54 95.417-108.002 95.417zM734.669 889.437c-1.522 6.295-2.326 12.863-2.326 19.623 0 46.058 37.472 83.53 83.525 83.53 46.058 0 83.53-37.467 83.53-83.53 0-14.274-3.6-27.729-9.941-39.5-14.264-25.934-41.856-43.545-73.488-43.545-39.186 0-72.173 27.031-81.3 63.421zM251.829 869.899c-6.098 11.594-9.551 24.786-9.551 38.772 0 46.078 37.492 83.57 83.57 83.57 45.208 0 82.15-36.087 83.535-80.966-0.056-0.48-0.086-0.966-0.086-1.461 0-46.209-37.594-83.798-83.803-83.798-31.764 0-59.457 17.768-73.665 43.884zM924.315 897.178h53.425c5.653 0 10.952-2.22 14.921-6.255 3.994-4.055 6.143-9.43 6.057-15.133-0.49-30.874-1.891-59.609-5.066-86.2h-63.467c-15.816 0-30.53-9.172-37.492-23.375l-20.311-41.441c-6.386-13.030-5.618-28.153 2.063-40.471 7.675-12.312 20.923-19.664 35.429-19.664h42.872c-3.711-5.506-7.716-10.836-12.034-15.973-51.62-61.459-147.871-91.337-294.241-91.337h-5.749v26.96c0 37.71-30.677 68.386-68.386 68.386h-164.658c-37.71 0-68.386-30.677-68.386-68.386v-26.96h-23.851c-87.256 0-158.247 70.99-158.247 158.252v160.608c0 11.579 9.42 20.994 20.994 20.994h38.954c1.628-14.031 5.926-27.264 12.378-39.161 18.253-34.58 54.588-58.198 96.332-58.198 56.14 0 102.491 42.721 108.25 97.359h273.505c0.541-4.692 1.385-9.293 2.508-13.783 11.569-47.65 54.593-83.136 105.747-83.136 41.36 0 77.407 23.198 95.807 57.262 6.604 12.024 10.997 25.423 12.646 39.651zM909.869 689.916c-5.81 0-10.901 2.832-13.976 7.756s-3.373 10.75-0.814 15.963l20.316 41.441c2.746 5.602 8.55 9.223 14.79 9.223h59.77c-4.793-27.299-12.009-52.1-22.748-74.388h-57.338zM772.647 541.109c17.5 2.837 33.746 6.295 48.894 10.36v-125.725h-48.894v115.364zM29.064 84.713c18.284 42.063 65.413 65.282 110.758 52.494v0c23.962-6.755 43.863-22.44 56.029-44.157 10.087-18.005 13.859-38.367 11.013-58.456l-177.799 50.118zM815.863 966.252c-31.531 0-57.187-25.656-57.187-57.192s25.651-57.187 57.187-57.187 57.187 25.651 57.187 57.187-25.656 57.192-57.187 57.192zM815.863 877.16c-17.591 0-31.905 14.309-31.905 31.905s14.314 31.91 31.905 31.91c17.591 0 31.905-14.314 31.905-31.91s-14.309-31.905-31.905-31.905zM325.848 966.252c-31.531 0-57.187-25.656-57.187-57.192s25.651-57.187 57.187-57.187 57.187 25.651 57.187 57.187-25.651 57.192-57.187 57.192zM325.848 877.16c-17.591 0-31.905 14.309-31.905 31.905s14.314 31.91 31.905 31.91c17.591 0 31.905-14.314 31.905-31.91s-14.309-31.905-31.905-31.905z" fill="currentColor"/>
</svg>