<svg xmlns="http://www.w3.org/2000/svg" viewBox="0 0 1024 1024" width="24" height="24">
  <path d="M310.037 360.32c67.861 0 136.864 0 204.725-1.12 14.709 0 14.709-22.592 0-22.592-67.861 0-136.864 0-204.725 1.131-14.709 0-14.709 22.581 0 22.581zM310.037 360.32z" fill="currentColor"/>
  <path d="M189.003 361.451c18.101 0 36.192 0 54.293-1.131 14.709 0 14.709-22.581 0-22.581-18.101 0-36.192 0-54.293 1.12-14.699 0-14.699 22.592 0 22.592zM189.003 361.451z" fill="currentColor"/>
  <path d="M546.432 308.363c-20.352 1.131-38.453 12.427-41.845 32.757-3.392 24.853 18.091 47.445 41.845 48.576 22.624 1.131 45.248-16.949 42.987-41.792-1.131-22.592-20.363-38.411-42.987-39.541-14.699-1.131-14.699 21.461 0 22.592 26.016 1.131 28.277 39.531 0 36.149-24.885-3.392-24.885-35.019 0-36.149 14.709-1.131 14.709-23.723 0-22.592zM546.432 308.363z" fill="currentColor"/>
  <path d="M556.619 18.069c-1.131 98.272-5.653 201.067-20.363 298.208-2.261 14.677 19.232 20.331 21.493 5.643 15.829-99.403 20.363-204.448 21.493-304.981 0-13.547-22.624-13.547-22.624 1.131zM556.619 18.069z" fill="currentColor"/>
  <path d="M562.272 28.235c38.453 27.115 78.048 29.376 123.285 32.757 35.072 2.261 49.771 14.688 76.917 32.757 21.493 13.557 45.248 22.592 65.611 37.28 33.931 25.973 80.309 80.192 96.139 119.733 13.579 35.008 23.755 72.288 38.464 106.176 3.392-5.653 6.784-11.296 10.176-16.949-130.080-3.381-261.291-3.381-391.36-3.381-14.709 0-14.709 22.592 0 22.592 130.069 0 261.28 0 391.36 3.381 9.045 0 12.448-9.035 10.176-16.939-6.784-15.819-12.437-31.627-18.091-47.445-9.056-24.843-12.448-60.992-26.016-83.584-7.915-11.296-21.493-20.331-30.539-30.496-20.363-21.461-36.203-53.088-57.685-71.168-11.317-9.035-26.016-12.416-39.595-19.2-26.016-13.547-52.032-46.304-76.917-55.349-13.568-4.512-30.539-1.12-45.237-1.12-41.856 0-78.048-5.653-111.989-29.376-15.829-7.904-27.147 11.296-14.699 20.331zM562.272 28.235z" fill="currentColor"/>
  <path d="M582.635 327.563c54.293-89.227 97.269-184.107 151.563-273.344 7.925-12.427-12.437-23.723-19.221-11.296-54.293 89.237-97.28 184.117-151.573 273.355-7.915 12.416 11.307 23.712 19.232 11.285zM582.635 327.563z" fill="currentColor"/>
  <path d="M579.243 346.773c92.747-66.645 171.925-151.36 264.672-216.875 11.317-7.904 0-28.235-11.307-19.2-92.757 65.515-170.795 150.229-264.683 215.744-11.307 9.035 0 28.235 11.317 20.331zM579.243 346.773z" fill="currentColor"/>
  <path d="M583.765 359.2c115.371-38.411 242.059-73.429 348.384-131.029 12.437-6.784 1.131-25.984-11.317-19.2-105.195 57.6-229.611 91.488-342.72 128.768-13.579 4.512-7.925 25.973 5.653 21.461zM583.765 359.2z" fill="currentColor"/>
  <path d="M638.059 695.797c89.355-6.773 218.304-15.808 282.773-88.107 22.624-25.973 28.277-59.861 32.8-92.619 9.056-54.219 13.579-108.437 29.408-160.395 4.533-13.557-18.091-20.331-21.483-5.653-21.493 71.168-12.448 160.405-45.248 225.909-41.856 82.464-197.941 92.629-278.251 99.403-14.709 0-14.709 22.592 0 21.461zM638.059 695.797z" fill="currentColor"/>
  <path d="M492.139 693.536c28.277 2.261 56.555 4.523 84.832 4.523 14.709 0 14.709-22.592 0-22.592-28.277 0-56.555-2.261-84.832-4.523-14.699-2.251-14.699 20.341 0 22.592zM492.139 693.536z" fill="currentColor"/>
  <path d="M178.827 352.416c27.147 73.419 21.493 162.656 62.208 231.563 38.453 66.635 116.501 89.227 186.635 100.523 14.699 2.261 20.363-19.2 5.653-21.461-83.701-13.557-161.749-42.923-190.027-129.899-19.232-60.992-20.363-125.376-42.976-185.237-5.664-14.688-27.147-9.045-21.493 4.512zM178.827 352.416z" fill="currentColor"/>
  <path d="M75.893 182.987c202.464 221.387 420.779 428.096 623.243 649.483 10.176 11.296 26.016-5.643 15.84-15.808-203.605-221.387-420.779-429.227-623.243-650.613-10.187-10.176-26.016 5.643-15.84 16.939zM75.893 182.987z" fill="currentColor"/>
  <path d="M107.563 152.491c203.605 222.517 421.909 430.357 624.373 652.875 10.187 11.296 26.016-5.653 15.84-15.819-203.605-222.517-421.909-430.347-624.373-652.875-9.056-11.296-24.885 5.653-15.84 15.819zM107.563 152.491z" fill="currentColor"/>
  <path d="M817.899 756.789c-70.123 7.915-153.824 72.299-144.779 149.109 10.176 77.931 88.224 124.245 161.749 116.341 178.72-18.080 153.835-262.059-16.971-265.451-14.699 0-14.699 22.592 0 22.592 136.864 3.392 168.544 198.805 22.624 219.136-54.293 7.904-109.717-12.427-135.733-64.384-36.192-72.288 42.987-147.968 113.109-154.752 14.709-2.251 14.709-24.843 0-22.592zM817.899 756.789z" fill="currentColor"/>
  <path d="M877.856 869.749c-14.709-30.496-59.957-48.576-90.496-32.757-29.408 13.557-44.107 47.445-30.539 77.941 13.579 30.496 45.248 44.053 76.917 33.888 31.669-9.045 55.424-44.053 44.117-75.68-4.533-13.557-26.016-7.915-21.493 5.643 14.699 45.184-55.424 68.907-78.048 29.365-10.176-19.2-2.261-41.792 16.971-50.827 21.483-10.165 52.021 3.392 62.208 23.723 7.915 12.427 27.147 1.131 20.363-11.296zM877.856 869.749z" fill="currentColor"/>
  <path d="M122.272 118.603c-12.448-24.853-49.771-39.531-74.656-27.115-23.755 11.296-36.192 39.541-24.885 64.384 11.307 24.853 37.323 36.149 63.339 28.245s45.248-36.149 37.333-63.253c-4.523-13.557-26.016-7.915-21.493 5.643 10.176 32.757-40.725 50.827-56.555 21.461-7.915-12.427-2.261-28.235 12.437-36.139 15.84-7.915 38.464 3.381 46.379 18.069 5.653 13.557 24.885 2.261 18.101-11.296zM122.272 118.603z" fill="currentColor"/>
  <path d="M308.907 756.789c-70.133 7.915-153.835 72.299-144.789 149.109 10.187 77.931 88.224 124.245 161.749 116.341 177.589-18.080 153.835-262.059-16.96-265.451-14.709 0-14.709 22.592 0 22.592 136.864 3.392 168.533 198.805 22.613 219.136-54.293 7.904-109.717-12.427-135.733-64.384-36.192-72.288 42.987-147.968 113.12-154.752 13.568-2.251 13.568-24.843 0-22.592zM308.907 756.789z" fill="currentColor"/>
  <path d="M368.853 869.749c-14.709-30.496-59.947-48.576-90.496-32.757-29.408 13.557-44.107 47.445-30.539 77.941 13.579 30.496 45.248 44.053 76.917 33.888 31.669-9.045 55.424-44.053 44.117-75.68-4.523-13.557-26.016-7.915-21.493 5.643 14.709 45.184-55.424 68.907-78.048 29.365-10.176-19.2-2.261-41.792 16.971-50.827 21.493-10.165 52.032 3.392 62.208 23.723 7.915 12.427 27.147 1.131 20.363-11.296zM368.853 869.749z" fill="currentColor"/>
  <path d="M358.667 782.773c46.379-58.731 91.627-117.472 139.136-175.083 9.045-11.296-6.795-27.104-15.84-15.808-48.64 57.6-92.747 117.472-139.125 175.083-9.056 11.285 6.784 27.104 15.829 15.808zM358.667 782.773z" fill="currentColor"/>
  <path d="M403.915 807.627c42.987-54.219 85.963-108.437 130.080-161.525 9.045-11.296-6.784-27.115-15.84-15.819-44.107 53.088-87.093 107.307-130.080 161.525-9.045 10.165 6.795 27.115 15.84 15.819zM403.915 807.627z" fill="currentColor"/>
</svg>