<svg xmlns="http://www.w3.org/2000/svg" viewBox="0 0 1024 1024" width="24" height="24">
  <path d="M189.908 788.638c-48.522 0-87.996 39.476-87.996 87.996s39.476 87.996 87.996 87.996c48.52 0 87.996-39.476 87.996-87.996s-39.476-87.996-87.996-87.996zM189.908 928.646c-28.68 0-52.010-23.332-52.010-52.010s23.332-52.010 52.010-52.010c28.678 0 52.010 23.332 52.010 52.010s-23.332 52.010-52.010 52.010z" fill="currentColor"/>
  <path d="M702.231 788.64c-48.52 0-87.996 39.476-87.996 87.996s39.474 87.996 87.996 87.996c48.522 0 87.996-39.476 87.996-87.996s-39.476-87.996-87.996-87.996zM702.231 928.644c-28.678 0-52.010-23.332-52.010-52.010s23.33-52.010 52.010-52.010 52.010 23.332 52.010 52.010c0 28.678-23.332 52.010-52.010 52.010z" fill="currentColor"/>
  <path d="M963.464 206.594h-59.408c-5.844 0-11.324 2.838-14.696 7.612l-69.558 98.476h-365.171l101.564-288.719c1.936-5.506 1.082-11.608-2.292-16.37-3.372-4.764-8.848-7.594-14.684-7.594h-212.234c-153.988 0-279.267 125.278-279.267 279.269v88.708c0 137.748 97.884 253.056 227.746 280.041l130.204 61.068-119.278 56.298c-25.874-22.47-59.604-36.118-96.48-36.118-81.26 0-147.366 66.11-147.366 147.366 0 81.26 66.11 147.366 147.366 147.366s147.366-66.11 147.366-147.366c0-11.616-1.394-22.908-3.946-33.758h225.482c-2.552 10.848-3.946 22.14-3.946 33.758 0 81.26 66.11 147.366 147.366 147.366s147.366-66.11 147.366-147.366c0-81.26-66.11-147.366-147.366-147.366-36.096 0-69.184 13.068-94.834 34.69l-117.204-54.974 129.184-60.974c129.85-26.994 227.726-142.296 227.726-280.037v-31.568l66.272-93.824h50.088c9.936 0 17.992-8.056 17.992-17.992s-8.056-17.992-17.994-17.992zM447.215 35.984h66.604l-66.604 189.334v-189.334zM83.702 279.269c0-134.148 109.136-243.282 243.282-243.282h84.244v276.697h-327.527v-33.414zM189.908 988.018c-61.416 0-111.38-49.966-111.38-111.38 0-61.416 49.966-111.38 111.38-111.38s111.38 49.966 111.38 111.38c0.002 61.412-49.964 111.38-111.38 111.38zM702.231 765.251c61.416 0 111.38 49.966 111.38 111.38 0 61.416-49.966 111.38-111.38 111.38s-111.38-49.966-111.38-111.38 49.964-111.38 111.38-111.38zM581.887 791.74c-3.43 4.85-6.602 9.896-9.438 15.152h-252.758c-2.52-4.668-5.29-9.176-8.28-13.526l136.542-64.444 133.934 62.818zM447.905 689.151l-74.964-35.16h149.46l-74.496 35.16zM561.089 618.005h-227.356c-137.866 0-250.028-112.162-250.028-250.028v-19.31h327.533v9.738c0 40.228 32.73 72.958 72.958 72.958h318.775c-28.134 107.272-125.91 186.642-241.88 186.642zM809.61 395.375h-325.419c-20.386 0-36.974-16.586-36.974-36.974v-9.738h363.899v19.31h0.002c0 9.262-0.522 18.402-1.508 27.402z" fill="currentColor"/>
</svg>