<svg xmlns="http://www.w3.org/2000/svg" viewBox="0 0 1024 1024" width="24" height="24">
  <path d="M692.706 206.005c-34.133 9.638-69.471 38.952-81.92 68.267-27.708 64.251-35.74 92.762-40.96 144.163l-2.811 27.307h-308.003v-23.693c0-29.716-10.039-44.574-30.118-44.574-7.228 0-16.464 1.205-20.078 2.409-10.039 4.016-18.071 23.693-18.071 45.779 0 17.669-0.803 20.078-8.433 20.078-4.819 0-14.456 6.024-22.086 13.653l-13.653 13.653v160.226c0 151.391 0.402 160.627 8.031 172.675 4.819 8.433 12.85 14.456 22.889 17.267 10.441 3.213 78.306 4.016 220.863 3.213l206.005-1.205 12.85-13.252 13.252-12.85 1.205-57.424 1.606-57.023 177.895 2.409 20.882-18.472c28.913-25.299 49.795-67.464 52.204-105.211 2.811-37.747-5.22-157.415-12.449-193.155-7.228-32.929-27.708-87.944-40.96-109.227-11.244-18.874-35.338-39.354-55.416-48.59-22.488-9.638-60.637-12.85-82.723-6.425zM767.398 232.508c19.275 8.835 42.165 31.322 52.605 51.802 10.039 20.48 10.039 69.471-0.402 89.148-10.039 19.677-29.716 39.354-48.59 49.393-22.889 12.449-69.471 12.047-92.762 0-76.7-40.558-77.101-149.384-0.803-187.533 26.102-12.85 64.653-14.055 89.951-2.811zM638.494 420.844c28.511 25.299 44.173 30.921 86.337 30.921 34.535 0 40.157-1.205 59.031-11.645 25.7-14.055 37.747-26.504 52.605-54.212l12.047-21.685 4.819 21.685c2.409 12.047 5.622 48.188 6.827 80.715l2.409 59.432h-230.099v-20.48c0-27.708-9.638-46.984-27.708-55.015-8.031-3.614-14.858-6.827-15.661-7.228-1.606-1.205 7.228-65.054 10.039-72.684 1.606-4.417 5.622 0 13.653 15.661 6.024 12.047 17.669 27.708 25.7 34.535zM234.115 402.372c2.811 2.811 4.819 13.653 4.819 24.094 0 18.874-0.402 19.275-12.047 19.275-12.047 0-12.047-0.402-12.047-21.283 0-12.047 1.205-22.889 2.811-24.094 4.016-4.417 11.244-3.213 16.464 2.008zM599.542 472.245l8.835 6.024v156.21c0 136.533-0.803 157.013-6.425 162.234-5.622 5.622-30.519 6.425-213.233 6.425-187.533 0-208.013-0.803-214.839-6.827s-7.228-16.464-7.228-160.627c0-148.58 0.402-154.202 8.031-161.832s13.252-8.031 212.028-8.031c177.895 0 204.8 0.803 212.831 6.425zM862.168 566.212c-1.606 26.905-19.275 61.44-41.362 82.322l-19.275 18.071h-77.101c-66.259 0-78.306-0.803-84.731-6.827-6.425-5.622-7.228-13.252-7.228-60.235v-53.409l115.652 0.803 115.25 1.205-1.205 18.071z" fill="currentColor"/>
  <path d="M690.698 256.602c-31.724 14.055-48.991 46.18-44.976 81.518 4.819 40.96 37.346 69.471 79.109 69.471 64.251 0 101.998-71.881 65.456-124.486-21.685-30.921-64.653-42.566-99.589-26.504zM756.555 279.893c26.102 19.677 33.33 48.991 18.874 76.7-18.472 35.74-74.29 39.354-97.983 6.024-22.488-31.724-9.236-73.889 27.307-89.148 13.653-6.024 39.354-2.409 51.802 6.425z" fill="currentColor"/>
  <path d="M709.973 299.169c-30.118 13.252-20.078 62.243 12.85 62.243 19.677 0 34.133-13.252 34.133-31.724 0-14.055-11.244-32.527-20.078-32.527-1.606 0-5.622-0.803-8.835-2.008-2.811-0.803-10.842 0.803-18.071 4.016zM735.272 323.263c2.811 7.228-5.22 18.071-13.252 18.071-6.827 0-10.842-9.638-7.63-18.071 2.811-8.031 18.071-7.63 20.882 0z" fill="currentColor"/>
  <path d="M793.098 491.922c0 9.236 1.606 10.039 18.071 10.039s18.071-0.803 18.071-10.039c0-9.236-1.606-10.039-18.071-10.039s-18.071 0.803-18.071 10.039z" fill="currentColor"/>
  <path d="M192.753 507.181c-1.205 2.811-1.606 54.613-1.205 115.25l1.205 110.431h333.302v-228.894l-165.848-1.205c-131.313-0.803-166.249 0-167.454 4.417zM503.969 618.416v92.361h-289.129v-184.722h289.129v92.361z" fill="currentColor"/>
  <path d="M285.515 570.629c-10.039 8.031-10.441 9.638-10.441 47.787s0.402 39.755 10.441 47.787c9.638 7.63 16.063 8.433 57.826 8.433 45.779 0 47.385-0.402 57.826-10.842 10.039-10.039 11.645-10.039 26.905-5.622 9.236 2.811 18.874 6.024 22.086 7.228 4.819 1.606 5.622-6.827 5.622-46.984s-0.803-48.59-5.622-46.984c-3.213 1.205-12.85 4.417-22.086 7.228-15.661 4.819-16.866 4.417-26.102-5.622-9.638-10.441-11.244-10.842-57.826-10.842-42.566 0-48.991 0.803-58.629 8.433zM385.506 618.416v34.133l-39.755 1.205c-25.7 0.803-41.362-0.402-44.976-3.614-7.228-6.024-7.63-56.22-0.803-63.046 3.614-3.614 17.267-4.819 45.377-4.016l40.157 1.205v34.133zM435.702 618.014v20.078l-12.047-4.016c-20.48-7.228-13.653-33.33 9.236-35.338 1.606-0.402 2.811 8.433 2.811 19.275z" fill="currentColor"/>
  <path d="M552.157 514.008c0 10.039 1.606 12.047 10.039 12.047s10.039-2.008 10.039-12.047c0-10.039-1.606-12.047-10.039-12.047s-10.039 2.008-10.039 12.047z" fill="currentColor"/>
  <path d="M552.157 560.188c0 8.031 2.008 10.039 10.039 10.039s10.039-2.008 10.039-10.039c0-8.031-2.008-10.039-10.039-10.039s-10.039 2.008-10.039 10.039z" fill="currentColor"/>
  <path d="M552.157 606.369c0 10.039 1.606 12.047 10.039 12.047s10.039-2.008 10.039-12.047c0-10.039-1.606-12.047-10.039-12.047s-10.039 2.008-10.039 12.047z" fill="currentColor"/>
  <path d="M552.157 652.549c0 8.031 2.008 10.039 10.039 10.039s10.039-2.008 10.039-10.039c0-8.031-2.008-10.039-10.039-10.039s-10.039 2.008-10.039 10.039z" fill="currentColor"/>
  <path d="M552.157 699.131c0 9.638 1.606 11.645 10.039 11.645 8.031 0 10.039-2.008 10.039-10.039 0-5.622-1.205-10.039-2.811-10.441-2.008 0-6.425-0.803-10.039-1.606-5.622-0.803-7.228 1.606-7.228 10.441z" fill="currentColor"/>
  <path d="M540.11 756.957c0 9.638 1.205 10.039 22.086 10.039s22.086-0.402 22.086-10.039c0-9.638-1.205-10.039-22.086-10.039s-22.086 0.402-22.086 10.039z" fill="currentColor"/>
  <path d="M355.388 769.004c0 10.039 0.402 10.039 34.133 10.039s34.133 0 34.133-10.039c0-10.039-0.402-10.039-34.133-10.039s-34.133 0-34.133 10.039z" fill="currentColor"/>
  <path d="M680.659 584.282v10.039h88.345v-20.078h-88.345v10.039z" fill="currentColor"/>
</svg>