<svg xmlns="http://www.w3.org/2000/svg" viewBox="0 0 1024 1024" width="24" height="24">
  <path d="M703.765 724.736c-35.253 0-63.936 28.672-63.936 63.893 0 35.232 28.683 63.904 63.936 63.904s63.936-28.672 63.936-63.904c0-35.221-28.683-63.893-63.936-63.893zM703.765 809.931c-11.765 0-21.312-9.536-21.312-21.301 0-11.755 9.547-21.291 21.312-21.291s21.312 9.536 21.312 21.291c0 11.765-9.547 21.301-21.312 21.301zM981.717 767.381c25.536-38.176 41.728-98.795 41.728-170.4 0-121.451-45.824-212.992-106.56-212.992h-15.392l36.021-143.979c0.384-1.451 0.512-2.987 0.555-4.48 0-0.203 0.128-0.416 0.128-0.629 0-0.085-0.043-0.128-0.043-0.213v-85.035c0-35.221-28.683-63.893-63.936-63.893h-85.248c-35.253 0-63.936 28.672-63.936 63.893v85.205c0 1.739 0.213 3.445 0.64 5.152l36.021 143.936h-79.243v-63.893c0-35.232-28.683-63.904-63.936-63.904s-63.936 28.672-63.936 63.904v63.893h-85.248v-170.389h21.312c11.765 0 21.312-9.547 21.312-21.301v-42.603c0-35.221-28.683-63.893-63.936-63.893h-340.992c-35.253 0-63.936 28.672-63.936 63.893v42.603c0 11.755 9.547 21.301 21.312 21.301h21.312v383.381h-42.624v-21.301c0-11.755-9.547-21.291-21.312-21.291s-21.312 9.536-21.312 21.291v170.4c0 11.755 9.547 21.301 21.312 21.301s21.312-9.547 21.312-21.301v-21.301h44.8c8.779 42.944 43.733 76.256 88.565 83.445 18.464 74.208 85.163 129.547 165.003 129.547 79.243 0 145.387-54.485 164.448-127.797h50.848c10.443 72.075 72.075 127.797 147.008 127.797 63.040 0 116.747-39.36 138.571-94.699l9.547 14.315c33.547 50.315 89.728 80.384 150.251 80.384 6.688 0 13.003-3.157 17.045-8.437 4.053-5.323 5.333-12.224 3.499-18.656zM85.717 682.133h-42.624v-42.592h42.624zM767.659 149.653c0-11.755 9.547-21.291 21.312-21.291h85.248c11.765 0 21.312 9.536 21.312 21.291v63.904h-127.872zM889.568 256.149l-31.968 127.797h-51.968l-31.968-127.797zM597.205 320.053c0-11.755 9.547-21.301 21.312-21.301s21.312 9.547 21.312 21.301v63.893h-42.624zM85.717 170.955v-21.301c0-11.755 9.547-21.291 21.312-21.291h340.992c11.765 0 21.312 9.536 21.312 21.291v21.301zM341.461 895.125c-70.496 0-127.872-57.333-127.872-127.787 0-70.464 57.376-127.797 127.872-127.797s127.872 57.333 127.872 127.797c0 70.453-57.376 127.787-127.872 127.787zM703.765 895.125c-58.731 0-106.56-47.787-106.56-106.496 0-58.699 47.829-106.496 106.56-106.496s106.56 47.797 106.56 106.496c0 58.709-47.829 106.496-106.56 106.496zM801.504 676.896c-26.261-22.955-60.192-37.355-97.739-37.355-74.976 0-136.565 55.712-147.008 127.797h-44.8c0-93.973-76.469-170.4-170.496-170.4-92.704 0-168.021 74.421-170.112 166.603-24.939-8.736-43.008-32.203-43.008-60.107v-489.877h298.368v191.691c0 11.755 9.547 21.301 21.312 21.301h298.368c26.091 0 63.936 66.368 63.936 170.389 0 27.861-3.2 55.083-8.821 79.957zM887.349 833.792l-15.861-23.861h45.44c10.613 0 20.544-3.701 30.091-8.981l26.048 91.115c-34.784-7.456-65.557-28.117-85.717-58.272zM916.885 767.339h-66.112c-2.56-17.728-8.267-34.293-16.533-49.461 12.064-35.872 18.667-77.269 18.667-120.939 0-71.605-16.192-132.224-41.728-170.389h105.664c26.091 0 63.936 66.368 63.936 170.389 0 104.032-37.803 170.4-63.893 170.4zM341.461 682.133c-47.019 0-85.248 38.219-85.248 85.205s38.229 85.195 85.248 85.195c47.019 0 85.248-38.208 85.248-85.195s-38.229-85.205-85.248-85.205zM341.461 809.931c-23.488 0-42.624-19.125-42.624-42.592 0-23.477 19.136-42.603 42.624-42.603s42.624 19.125 42.624 42.603c0 23.467-19.136 42.592-42.624 42.592zM362.773 256.149h-170.496c-11.765 0-21.312 9.547-21.312 21.301v170.4c0 11.755 9.547 21.291 21.312 21.291h170.496c11.765 0 21.312-9.536 21.312-21.291v-170.4c0-11.755-9.547-21.301-21.312-21.301zM341.461 426.549h-127.872v-127.797h127.872zM341.461 426.549" fill="currentColor"/>
</svg>