<svg xmlns="http://www.w3.org/2000/svg" viewBox="0 0 1024 1024" width="24" height="24">
  <path d="M112.186 1024h799.628c61.856 0 112.178-50.325 112.178-112.178v-799.642c0-61.856-50.322-112.18-112.178-112.18h-799.628c-61.853 0-112.178 50.325-112.178 112.18v799.625c0 61.856 50.325 112.194 112.178 112.194zM51.781 112.18c0-33.311 27.094-60.405 60.405-60.405h799.628c33.319 0 60.403 27.094 60.403 60.405v799.625c0 33.322-27.083 60.405-60.403 60.405h-799.628c-33.311 0-60.405-27.083-60.405-60.405v-799.625z" fill="currentColor"/>
  <path d="M131.256 482.971h326.358c14.307 0 25.888-11.578 25.888-25.888v-326.347c0-14.31-11.581-25.89-25.888-25.89h-326.358c-14.307 0-25.888 11.581-25.888 25.89v326.347c0 14.293 11.578 25.888 25.888 25.888zM157.144 156.621h274.583v274.575h-274.583v-274.575z" fill="currentColor"/>
  <path d="M738.307 482.971c104.256 0 189.065-84.823 189.065-189.065 0-104.234-84.809-189.060-189.065-189.060-104.223 0-189.052 84.826-189.052 189.060 0 104.24 84.793 189.065 189.052 189.065zM875.594 293.906c0 75.698-61.582 137.29-137.29 137.29-75.675 0-137.276-61.593-137.276-137.29 0-75.692 61.601-137.285 137.276-137.285 75.709-0 137.29 61.593 137.29 137.285z" fill="currentColor"/>
  <path d="M105.352 841.004l158.467 91.92c4.002 2.328 8.503 3.507 12.976 3.507 4.448 0 8.907-1.146 12.912-3.438l158.846-91.28c8.005-4.62 12.962-13.147 12.976-22.383l0.363-183.198c0.017-9.256-4.905-17.817-12.909-22.45l-158.484-91.92c-7.988-4.653-17.866-4.669-25.888-0.036l-158.83 91.28c-8.007 4.6-12.962 13.111-12.976 22.381l-0.363 183.2c-0.017 9.222 4.902 17.781 12.909 22.417zM144.561 650.422l132.925-76.381 132.615 76.918-0.313 153.305-132.925 76.381-132.615-76.921 0.313-153.302z" fill="currentColor"/>
  <path d="M618.44 779.639l-38.813 119.41c-3.471 10.667 0.354 22.348 9.405 28.954 4.534 3.288 9.876 4.957 15.218 4.957 5.361 0 10.684-1.672 15.237-4.957l101.56-73.802 101.56 73.802c9.065 6.574 21.334 6.574 30.438 0 9.065-6.607 12.873-18.284 9.402-28.954l-38.8-119.41 101.596-73.802c9.065-6.574 12.873-18.27 9.402-28.921-3.474-10.684-13.416-17.9-24.639-17.9h-125.544l-38.8-119.393c-3.471-10.684-13.399-17.9-24.623-17.9-11.226 0-21.168 7.213-24.639 17.9l-38.8 119.393h-125.527c-11.218 0-21.163 7.213-24.631 17.9-3.463 10.653 0.346 22.348 9.402 28.921l101.593 73.802zM676.451 710.792c11.226 0 21.152-7.213 24.623-17.9l19.973-61.499 19.989 61.499c3.471 10.684 13.416 17.9 24.639 17.9h64.684l-52.331 38.022c-9.051 6.607-12.876 18.284-9.402 28.954l19.973 61.501-52.315-38.022c-9.065-6.59-21.354-6.59-30.438 0l-52.329 38.022 19.973-61.501c3.471-10.667-0.338-22.348-9.405-28.954l-52.312-38.022h64.679z" fill="currentColor"/>
</svg>