<svg xmlns="http://www.w3.org/2000/svg" viewBox="0 0 1024 1024" width="24" height="24">
  <path d="M191.872 513.472c-105.088 0-190.848 85.632-190.848 190.848 0 105.344 85.76 190.912 190.848 190.912 105.28 0 190.912-85.632 190.912-190.912 0-105.216-85.632-190.848-190.912-190.848v0zM191.872 835.008c-72 0-130.56-58.624-130.56-130.624s58.56-130.56 130.56-130.56c72.064 0 130.624 58.56 130.624 130.56s-58.56 130.624-130.624 130.624v0z" fill="currentColor"/>
  <path d="M831.040 516.16c-103.68 0-187.84 84.736-187.84 188.928 0 104.128 84.096 188.864 187.84 188.864 103.424 0 187.648-84.736 187.648-188.864s-84.16-188.928-187.648-188.928v0zM828.736 833.92c-71.616 0-129.856-58.176-129.856-129.536 0-71.424 58.24-129.6 129.856-129.6 71.744 0 129.856 58.176 129.856 129.6 0.064 71.36-58.112 129.536-129.856 129.536v0z" fill="currentColor"/>
  <path d="M429.568 636.416c-18.88 0-34.24-15.296-34.24-34.176l-49.472-224.256h-51.136c-20.992 0-37.44-24.448-37.44-55.552 0-31.616 16.128-55.488 37.44-55.488 156.288 20.736 151.296 46.464 151.296 55.040 0 31.68-11.136 56-32.512 56h-1.92l43.712 173.248 285.76-138.112-18.752-57.984c-3.84-11.84-0.896-24.832 7.68-33.92l71.36-131.904h-122.624c-18.88 0-34.176-15.296-34.176-34.112 0-18.88 15.296-27.2 34.176-27.2h182.4c13.696 0 26.048 1.152 31.424 13.632 5.376 12.544 2.816 27.072-6.528 36.928l-93.12 172.544 36.096 133.888c5.696 17.92-4.16 37.184-22.080 43.008-3.84 1.152-7.36 1.6-10.688 1.6-14.784 0-28.16-9.792-32.576-23.808l-8.192-21.312c0.064 0-322.432 151.936-325.888 151.936v0z" fill="currentColor"/>
</svg>