<svg xmlns="http://www.w3.org/2000/svg" viewBox="0 0 1024 1024" width="24" height="24">
  <path d="M968.796 806.45c-30.436 0-55.204-24.762-55.204-55.199 0-11.507 3.54-22.203 9.585-31.054h-174.308c6.046 8.851 9.585 19.547 9.585 31.054 0 30.436-24.762 55.199-55.199 55.199s-55.199-24.762-55.199-55.199c0-11.507 3.54-22.203 9.585-31.054h-274.072c6.046 8.851 9.585 19.547 9.585 31.054 0 30.436-24.762 55.199-55.204 55.199s-55.199-24.762-55.199-55.199c0-11.507 3.54-22.203 9.585-31.054h-191.523c6.046 8.851 9.585 19.547 9.585 31.054 0 30.436-24.762 55.199-55.199 55.199s-55.204-24.762-55.204-55.199c0-12.058 3.887-23.227 10.474-32.315-3.965-1.98-6.693-6.075-6.693-10.812v-55.677c0-6.669 5.404-12.072 12.072-12.072h39.732l129.631-329.474h-7.301c-24.816 0-45.005-20.189-45.005-45.005v-3.342c0-24.816 20.189-45.005 45.005-45.005h668.166c24.816 0 45 20.189 45 45.005v3.342c0 24.816-20.189 45.005-45 45.005h-7.301l129.631 329.474h39.732c6.669 0 12.072 5.404 12.072 12.072v55.677c0 4.732-2.723 8.832-6.693 10.812 6.587 9.088 10.474 20.257 10.474 32.315 0.005 30.436-24.758 55.199-55.199 55.199zM968.796 720.197c-17.123 0-31.059 13.931-31.059 31.054s13.931 31.054 31.059 31.054 31.054-13.931 31.054-31.054-13.926-31.054-31.054-31.054zM703.262 720.197c-17.123 0-31.054 13.931-31.054 31.054s13.931 31.054 31.054 31.054 31.054-13.931 31.054-31.054-13.926-31.054-31.054-31.054zM337.953 720.197c-17.123 0-31.054 13.931-31.054 31.054s13.931 31.054 31.054 31.054 31.059-13.931 31.059-31.054-13.931-31.054-31.059-31.054zM55.204 720.197c-17.123 0-31.059 13.931-31.059 31.054s13.931 31.054 31.059 31.054c17.123 0 31.054-13.931 31.054-31.054s-13.931-31.054-31.054-31.054zM968.796 696.052h27.273v-31.533h-35.608c-0.183 0.005-0.372 0.005-0.55 0h-265.037c-0.159 0.005-0.324 0.005-0.478 0h-364.802c-0.155 0.005-0.314 0.005-0.478 0h-265.032c-0.183 0.005-0.367 0.005-0.55 0h-35.608v31.533h940.871zM704.493 640.375h237.971l-129.631-329.474h-52.784l-100.523 110.837 44.966 218.637zM344.153 640.375h335.693l-40.408-196.482-58.449 64.451c-2.289 2.521-5.534 3.96-8.943 3.96h-111.412c-2.086 0.034-4.134-0.444-6.055-1.507-1.202-0.662-2.241-1.502-3.115-2.463l-65.88-69.42-41.432 201.46zM81.531 640.375h237.971l45.821-222.814-101.213-106.665h-52.949l-129.631 329.478zM478.014 488.155h75.533c-8.069-26.704-14.665-78.942 33.087-126.69 11.72-11.72 21.527-21.546 29.727-29.775l-4.274-20.793h-200.176l-2.979 14.496c9.334 9.378 21.126 21.199 35.994 36.067 47.748 47.753 41.156 99.991 33.087 126.695zM622.19 360.036c-5.563 5.573-11.71 11.724-18.49 18.504-37.936 37.94-34.28 78.165-28.147 99.846l57.85-63.789-11.213-54.561zM391.515 410.082l64.562 68.034c6.084-21.749 9.561-61.8-28.22-99.586-9.431-9.431-17.63-17.64-24.753-24.782l-11.589 56.334zM642.626 339.532l10.879 52.905 73.949-81.54h-56.498c-4.066 4.153-12.285 12.502-28.331 28.635zM297.395 310.897l73.862 77.837 11.415-55.508c-11.995-12.072-18.572-18.755-22.068-22.334h-63.21zM821.337 286.753h24.748c11.502 0 20.856-9.358 20.856-20.861v-3.342c0-11.502-9.358-20.861-20.856-20.861h-668.166c-11.502 0-20.861 9.358-20.861 20.861v3.342c0 11.502 9.358 20.861 20.861 20.861h24.743c0.193-0.005 0.377-0.005 0.565 0h66.030c0.024 0 0.048 0 0.072 0h132.49c0.155-0.005 0.319-0.005 0.483 0h219.4c0.159-0.005 0.324-0.005 0.483 0h132.47c0.039 0 0.072 0 0.111 0h66.011c0.183-0.005 0.367-0.005 0.56 0z" fill="currentColor"/>
</svg>