<svg xmlns="http://www.w3.org/2000/svg" viewBox="0 0 1024 1024" width="24" height="24">
  <path d="M984.611 797.771l-112.864-472.928c-3.513-14.73-16.694-25.117-31.838-25.117h-113.3v-85.106c0-118.341-96.279-214.62-214.62-214.62s-214.598 96.279-214.598 214.62v85.084h-113.3c-15.145 0-28.325 10.409-31.838 25.117l-112.864 472.949c-13.137 55.013-0.546 112.013 34.479 156.399s87.572 69.831 144.091 69.831h588.061c56.541 0 109.067-25.445 144.113-69.831 35.046-44.408 47.616-101.407 34.479-156.399zM814.072 365.17l23.131 96.89h-110.594v-96.89h87.463zM362.857 462.082v-96.89h298.286v96.89h-298.286zM362.857 214.62c0-82.247 66.885-149.154 149.132-149.154s149.154 66.906 149.154 149.154v85.084h-298.286v-85.084zM297.391 365.17v96.89h-110.594l23.131-96.89h87.463zM898.763 913.58c-22.542 28.565-56.345 44.953-92.722 44.953h-588.083c-36.377 0-70.18-16.388-92.722-44.953s-30.616-65.226-22.193-100.6l68.128-285.432h681.634l68.128 285.432c8.445 35.374 0.371 72.056-22.171 100.6z" fill="currentColor"/>
</svg>