<svg xmlns="http://www.w3.org/2000/svg" viewBox="0 0 1024 1024" width="24" height="24">
  <path d="M818.706 1006.516c-0.088-0.952-8.966-96.53-36.666-220.11-45.574-203.33-106.984-328.634-151.394-398.798v-61.908l50.896-220.55c0.518-2.24 0.53-4.538 0.088-6.746l0.010-0.002-17.1-85.512c-1.498-7.496-8.078-12.89-15.722-12.89h-51.306c-8.854 0-16.034 7.178-16.034 16.034v81.934c-23.582 10.11-48.242 27.404-68.79 56.628-0.154 0.22-0.67 0.222-0.69 0.222-0.022 0-0.536-0.002-0.69-0.222-20.546-29.224-45.204-46.516-68.786-56.626v-81.936c0-8.854-7.178-16.034-16.034-16.034h-51.304c-7.642 0-14.222 5.394-15.722 12.888l-17.104 85.512 0.010 0.002c-0.442 2.208-0.43 4.506 0.088 6.746l50.896 220.552 0.002 61.906c-44.412 70.164-105.82 195.468-151.396 398.798-27.7 123.582-36.578 219.16-36.666 220.11-0.408 4.488 1.090 8.936 4.128 12.264 3.038 3.326 7.334 5.22 11.84 5.22h581.48c4.504 0 8.802-1.894 11.84-5.22 3.036-3.326 4.534-7.776 4.126-12.262zM613.544 32.066h22.13l10.468 52.352c-9.024 0.134-20.22 1.014-32.6 3.548v-55.9zM388.326 32.066h22.128v55.902c-12.378-2.536-23.576-3.416-32.598-3.548l10.47-52.354zM377.99 116.528c25.388 0.568 73.398 8.602 107.084 56.512 6.094 8.668 16.16 13.844 26.924 13.844s20.826-5.176 26.922-13.844c33.916-48.238 81.754-56.146 107.11-56.602l-44.172 191.402h-179.718l-44.15-191.312zM598.582 339.908v36.342h-173.16v-36.342h173.16zM239.128 991.934c8.876-75.576 51.332-379.22 179.098-583.616h23.776l-31.364 203.858c-1.346 8.752 4.656 16.94 13.408 18.286 0.828 0.126 1.648 0.188 2.458 0.188 7.78 0 14.608-5.672 15.826-13.596l32.116-208.736h21.518v326.012c0 8.854 7.178 16.034 16.034 16.034 8.854 0 16.034-7.178 16.034-16.034v-326.012h21.518l32.112 208.736c1.218 7.928 8.048 13.596 15.826 13.596 0.81 0 1.632-0.062 2.458-0.188 8.752-1.346 14.756-9.532 13.408-18.286l-31.362-203.858h23.778c127.686 204.276 170.202 508.016 179.096 583.616h-545.738z" fill="currentColor"/>
</svg>