<?xml version="1.0" encoding="utf-8"?>
<!-- Generator: Adobe Illustrator 24.0.1, SVG Export Plug-In . SVG Version: 6.00 Build 0)  -->
<svg version="1.1" id="A6" xmlns="http://www.w3.org/2000/svg" xmlns:xlink="http://www.w3.org/1999/xlink" x="0px" y="0px"
	 viewBox="0 0 793.7 609.45" style="enable-background:new 0 0 793.7 609.45;" xml:space="preserve">
<style type="text/css">
	.st0{fill:#00A7E1;}
	.st1{fill:#007934;}
	.st2{fill:#FFFFFF;}
	.st3{fill:#61A60E;}
</style>
<g>
	<g>
		<path class="st0" d="M330.85,303.23c-1.1,0-2.19,0.85-3.27,2.53c-1.09,1.7-2.48,3.64-4.17,5.81c-1.69,2.19-3.79,4.25-6.29,6.21
			c-2.52,1.97-5.72,3.22-9.66,3.77c-1.85,0.23-3.46,0.11-4.82-0.32c-1.36-0.44-2.53-1.08-3.51-1.96c-0.98-0.87-1.77-1.91-2.37-3.1
			c-0.59-1.2-1.06-2.45-1.39-3.76c-0.87-3.06-1.2-6.61-0.98-10.63c3.16,0.22,6.32-0.16,9.49-1.14c2.72-0.88,5.7-2.27,8.92-4.18
			c3.21-1.91,6.34-4.93,9.39-9.08c2.72-3.7,4.44-7.41,5.15-11.12c0.71-3.7,0.6-7.12-0.33-10.22c-0.93-3.11-2.54-5.67-4.83-7.69
			c-2.29-2.01-5.06-3.13-8.34-3.35c-3.16-0.1-6.41,0.11-9.73,0.65c-3.33,0.55-6.49,1.47-9.49,2.78c-3,1.31-5.78,3.03-8.35,5.15
			c-2.56,2.13-4.65,4.67-6.29,7.61c-1.4,2.33-2.56,4.65-3.49,6.94c-1.23-2.63-2.8-4.88-4.68-6.78c-2.18-2.16-4.64-3.94-7.36-5.31
			c-2.73-1.37-5.39-2.31-8.01-2.87c-3.71-0.75-7.09-0.37-10.14,1.16c-3.05,1.53-5.7,3.43-7.93,5.71c-2.24,2.3-4.04,4.53-5.4,6.71
			c-1.36,2.18-2.26,3.6-2.7,4.26c-0.55,0.65-0.93,0.38-1.15-0.83c-0.22-1.2-0.4-2.75-0.57-4.66c-0.16-1.91-0.4-3.86-0.73-5.88
			c-0.33-2.02-0.82-3.52-1.48-4.5c-0.54-0.87-1.39-1.91-2.53-3.1c-1.14-1.2-2.37-2.24-3.68-3.11c-1.3-0.87-2.61-1.39-3.92-1.56
			c-1.31-0.16-2.45,0.31-3.44,1.4c-0.32,0.43-0.63,2.4-0.89,5.88c-0.28,3.49-0.53,7.94-0.74,13.33c-0.23,5.4-0.39,11.48-0.49,18.23
			c-0.11,6.76-0.16,13.66-0.16,20.69c0,7.04,0.05,13.93,0.16,20.69c0.1,6.76,0.26,34.01,0.49,39.43c0.21,5.4,0.49,9.87,0.82,13.41
			c0.32,3.54,0.71,5.53,1.14,5.97c1.2,1.3,2.7,2.52,4.5,3.68c1.8,1.14,3.57,1.88,5.32,2.21c1.74,0.33,3.27,0.16,4.57-0.5
			c1.32-0.65,2.13-2.13,2.45-4.41c0.22-1.53,0.3-4.22,0.25-8.09c-0.05-3.88-0.14-8.35-0.25-13.41c-0.11-5.07-0.19-31.68-0.24-37.46
			c-0.05-5.78,0.08-11.36,0.41-16.77c0.32-5.4,0.92-10.35,1.79-14.88c0.87-4.52,2.13-7.99,3.76-10.39c1.75-2.61,3.49-5.12,5.23-7.52
			c1.74-2.4,3.52-4.33,5.32-5.8c1.8-1.47,3.59-2.35,5.39-2.62c1.8-0.27,3.67,0.35,5.64,1.89c2.29,1.85,3.6,4.06,3.92,6.62
			c0.33,2.56,0.05,5.09-0.82,7.61c-0.87,2.5-2.24,4.79-4.09,6.87c-1.85,2.07-3.76,3.59-5.72,4.57c-4.58,2.19-7.99,3.76-10.22,4.74
			c-2.24,0.99-3.58,2.35-4.01,4.09c-0.43,1.75,0.38,2.97,2.45,3.69c2.08,0.71,6,0.51,11.78-0.58c8.4-1.53,15.1-4.71,20.11-9.57
			c1.2-1.16,2.26-2.43,3.19-3.8c0.73,3.67,1.8,7.09,3.18,10.26c1.64,3.93,4.04,7.71,7.2,11.37c3.16,3.65,7.36,6.13,12.59,7.44
			c5.78,1.52,10.75,1.77,14.88,0.74c4.14-1.05,7.6-2.77,10.38-5.16c2.78-2.4,4.93-5.2,6.46-8.42c1.53-3.21,2.59-6.26,3.19-9.15
			c0.6-2.89,0.79-5.34,0.58-7.37C332.1,304.24,331.62,303.23,330.85,303.23z M295.2,286.55c0.21-1.08,0.66-2.45,1.31-4.1
			c0.65-1.62,1.64-3.65,2.94-6.04c1.08-2.07,2.51-3.68,4.25-4.83c1.74-1.15,3.49-1.99,5.23-2.54c1.96-0.65,4.04-1.08,6.21-1.31
			c0.22,1.1,0.16,2.28-0.16,3.59c-0.22,1.21-0.66,2.68-1.31,4.43c-0.65,1.74-1.75,3.71-3.28,5.88c-1.63,2.19-3.38,3.83-5.23,4.91
			c-1.86,1.08-3.55,1.86-5.07,2.28c-1.85,0.44-3.66,0.66-5.4,0.66C294.71,288.73,294.87,287.76,295.2,286.55z"/>
		<path class="st0" d="M582.44,318.69c-1.25-2.89-2.97-5.73-5.15-8.5c-2.18-2.78-4.64-5.5-7.36-8.18c-2.72-2.67-5.24-5.4-7.52-8.18
			c-2.29-2.77-4.22-5.64-5.81-8.58c-1.58-2.93-2.32-5.98-2.21-9.15c0-3.17,0.41-5.79,1.23-7.85c0.82-2.07,1.83-3.77,3.03-5.08
			c1.2-1.3,2.45-2.3,3.76-3.01c1.31-0.71,2.48-1.31,3.52-1.8c1.03-0.49,1.83-0.98,2.37-1.47c0.55-0.49,0.6-1.16,0.17-2.04
			c-0.32-0.54-0.76-1.11-1.3-1.71c-0.56-0.6-1.4-1.12-2.54-1.56c-1.15-0.44-2.71-0.68-4.66-0.74c-1.96-0.05-4.47,0.2-7.52,0.74
			c-6.22,1.09-10.72,3.43-13.49,7.03c-2.79,3.59-4.17,9.27-4.17,17c0,3.94,1.38,7.83,4.17,11.7c2.77,3.87,5.99,7.52,9.65,10.96
			c3.65,3.43,7.22,6.57,10.71,9.4c3.48,2.84,5.94,5.18,7.36,7.04c1.41,1.85,1.99,3.51,1.72,4.98c-0.27,1.47-1.06,2.72-2.37,3.76
			c-1.32,1.04-2.97,1.8-5,2.29c-2.01,0.49-4,0.69-5.97,0.58c-3.16-0.11-5.96-0.77-8.42-1.97c-2.45-1.19-4.47-2.64-6.05-4.33
			c-1.59-1.68-2.59-3.49-3.03-5.4c-0.43-1.91-0.21-3.62,0.67-5.15c1.85-3.06,2.37-5.29,1.55-6.71c-0.82-1.41-2.49-1.41-4.99,0
			c-0.94,0.52-2.01,1.18-3.21,1.98c-0.27-0.99-0.67-1.5-1.21-1.5c-1.09,0-2.18,0.85-3.27,2.53c-1.09,1.7-2.48,3.64-4.17,5.81
			c-1.69,2.19-3.79,4.25-6.3,6.21c-2.51,1.97-5.72,3.22-9.65,3.77c-1.85,0.23-3.46,0.11-4.83-0.32c-1.36-0.44-2.53-1.08-3.51-1.96
			c-0.98-0.87-1.77-1.91-2.37-3.1c-0.59-1.2-1.06-2.45-1.39-3.76c-0.87-3.06-1.2-6.61-0.98-10.63c3.16,0.22,6.32-0.16,9.48-1.14
			c2.72-0.88,5.7-2.27,8.92-4.18c3.22-1.91,6.35-4.93,9.4-9.08c2.72-3.7,4.44-7.41,5.15-11.12c0.71-3.7,0.6-7.12-0.32-10.22
			c-0.93-3.11-2.54-5.67-4.82-7.69c-2.29-2.01-5.07-3.13-8.34-3.35c-3.16-0.1-6.4,0.11-9.73,0.65c-3.32,0.55-6.48,1.47-9.48,2.78
			c-3,1.31-5.78,3.03-8.34,5.15c-2.56,2.13-4.66,4.67-6.3,7.61c-2.29,3.82-3.95,7.58-4.99,11.28c-1.04,3.72-1.66,6.98-1.88,9.82
			c-0.44,3.38-0.44,6.61,0,9.65c0.65,5.45,1.96,10.42,3.92,14.88c1.51,3.62,3.66,7.12,6.47,10.51c-1.07,0.35-2.35,0.55-3.85,0.61
			c-3.06,0.11-5.42-0.79-7.1-2.7c-1.7-1.9-2.95-4.36-3.77-7.36c-0.82-3-1.28-6.38-1.39-10.14c-0.12-3.76-0.09-7.42,0.08-10.96
			c0.16-3.54,0.3-6.82,0.41-9.81c0.11-3.01,0.05-5.32-0.17-6.95c-0.33-2.29-1.56-3.84-3.68-4.67c-2.13-0.81-4.36-1.12-6.71-0.89
			c-2.34,0.22-4.49,0.84-6.46,1.88c-1.96,1.04-3,2.21-3.1,3.52c0,0.21-0.23,1.22-0.66,3.02c-0.44,1.8-1.06,4-1.88,6.63
			c-0.81,2.62-1.77,5.4-2.86,8.33c-1.09,2.95-2.26,5.68-3.51,8.18c-1.25,2.52-2.59,4.62-4.01,6.29c-1.42,1.7-2.78,2.54-4.09,2.54
			c-1.75,0.11-3.16-0.76-4.25-2.62c-1.09-1.85-1.91-4.23-2.45-7.11c-0.54-2.89-0.92-6.08-1.14-9.57c-0.22-3.49-0.33-6.88-0.33-10.15
			s0.06-6.21,0.16-8.83c0.11-2.62,0.22-4.46,0.33-5.56c0.11-2.29-0.72-3.81-2.46-4.57c-1.74-0.77-3.74-1.13-5.97-1.07
			c-2.23,0.06-4.38,0.41-6.45,1.07c-2.08,0.65-3.44,1.25-4.09,1.8c-0.55,0.54-1.05,1.74-1.47,3.59c-0.44,1.86-0.76,4.09-0.98,6.71
			c-0.22,2.62-0.32,5.46-0.32,8.5c0,3.05,0.16,6.11,0.49,9.15c0.32,3.77,0.92,7.5,1.76,11.21c-1.14,0.29-2.43,0.69-3.88,1.22
			c-0.34,0.12-0.69,0.25-1.05,0.39c0.06-4.46,0.11-8.88,0.14-13.22c0.06-6.7,0.03-12.72-0.08-18.07c-0.11-5.34-0.24-9.73-0.41-13.17
			c-0.17-3.44-0.41-5.37-0.74-5.8c-0.98-1.09-2.26-1.74-3.84-1.97c-1.59-0.22-3.17-0.22-4.74,0c-1.57,0.22-3.05,0.55-4.42,0.98
			c-1.36,0.44-2.26,0.77-2.7,0.98c-0.33,0.22-0.55,0.95-0.65,2.21c-0.11,1.25-0.19,2.77-0.25,4.58c-0.05,1.8-0.05,3.67,0,5.64
			c0.06,1.97,0.06,3.73,0,5.32c-0.05,1.58-0.14,2.84-0.24,3.76c-0.11,0.92-0.32,1.17-0.65,0.74c-0.44-0.66-1.34-2.08-2.7-4.26
			c-1.37-2.18-3.16-4.41-5.4-6.71c-2.23-2.28-4.87-4.19-7.93-5.71c-3.05-1.53-6.43-1.91-10.13-1.16c-2.62,0.56-5.29,1.5-8.02,2.87
			c-2.73,1.36-5.19,3.14-7.36,5.31c-2.18,2.19-3.93,4.86-5.23,8.02c-1.31,3.16-1.86,6.76-1.64,10.79c0.11,4.26,0.95,8.18,2.53,11.78
			c1.59,3.6,3.66,6.79,6.22,9.57c2.56,2.78,5.56,5.16,8.99,7.12c3.45,1.96,7.06,3.49,10.88,4.58c6.22,1.74,12.32,2.31,18.31,1.71
			c0.59-0.06,1.16-0.12,1.74-0.19c0.13,10.79-0.13,37.1-0.18,40.27c-0.06,3.71,0.02,6.33,0.25,7.86c0.32,2.29,1.36,4.19,3.1,5.72
			c1.74,1.53,3.6,2.5,5.56,2.95c1.96,0.43,3.78,0.16,5.48-0.83c1.69-0.98,2.59-2.83,2.69-5.55c0-0.65,0.06-2.78,0.17-6.38
			c0.1-3.59,0.21-0.14,0.33-5.58c0.1-5.45,0.24-28.06,0.4-34.82c0.13-5.38,0.24-5.39,0.34-8.7c2.88-1.41,5.25-2.98,7.11-4.71
			c0.12-0.12,0.24-0.23,0.35-0.34c0.51,1.16,1.07,2.28,1.69,3.37c1.79,3.16,4.14,5.86,7.02,8.09c2.89,2.24,6.58,3.67,11.05,4.34
			c4.47,0.65,8.25-0.03,11.36-2.04c3.11-2.02,5.64-4.45,7.6-7.27c2.29-3.17,4.14-6.94,5.56-11.3c-0.55,4.58-0.27,8.78,0.82,12.59
			c0.44,1.64,1.06,3.27,1.88,4.91c0.82,1.62,1.94,3.13,3.36,4.49c1.42,1.37,3.11,2.56,5.07,3.61c1.96,1.03,4.36,1.76,7.2,2.2
			c3.93,0.66,7.33,0.71,10.22,0.16c2.89-0.54,5.34-1.41,7.36-2.61c1.28-0.76,2.41-1.59,3.38-2.51c2.17,1.32,4.61,2.32,7.33,3
			c5.78,1.52,10.74,1.77,14.88,0.74c4.14-1.05,7.61-2.77,10.39-5.16c0.98-0.85,1.88-1.75,2.71-2.7c0.05,0.19,0.1,0.38,0.15,0.58
			c0.76,3.04,2.67,5.55,5.73,7.52c3.05,1.96,6.68,3.4,10.87,4.33c4.2,0.92,8.69,1.34,13.49,1.23c4.8-0.12,9.27-0.74,13.41-1.89
			c4.14-1.14,7.66-2.78,10.55-4.9c2.88-2.13,4.6-4.72,5.15-7.77C584.1,324.55,583.7,321.58,582.44,318.69z M494.71,286.55
			c0.22-1.08,0.66-2.45,1.31-4.1c0.65-1.62,1.63-3.65,2.94-6.04c1.09-2.07,2.51-3.68,4.25-4.83c1.74-1.15,3.49-1.99,5.23-2.54
			c1.96-0.65,4.03-1.08,6.22-1.31c0.21,1.1,0.16,2.28-0.17,3.59c-0.22,1.21-0.65,2.68-1.3,4.43c-0.66,1.74-1.75,3.71-3.27,5.88
			c-1.64,2.19-3.38,3.83-5.23,4.91c-1.86,1.08-3.55,1.86-5.07,2.28c-1.86,0.44-3.65,0.66-5.4,0.66
			C494.22,288.73,494.38,287.76,494.71,286.55z M372.14,316.56c-3.32,0.17-6.45-0.35-9.4-1.55c-2.95-1.19-5.56-3.22-7.86-6.05
			c-2.28-2.83-3.97-5.94-5.07-9.32c-1.09-3.38-1.47-6.65-1.14-9.82c0.33-3.16,1.64-5.67,3.93-7.51c1.96-1.53,3.84-2.16,5.64-1.89
			c1.8,0.26,3.61,1.14,5.41,2.62c1.79,1.47,3.57,3.4,5.31,5.8c1.74,2.41,3.49,4.91,5.23,7.52c1.64,2.52,2.89,5.92,3.76,10.22
			c0.58,2.84,1.03,5.86,1.36,9.05C376.95,316.13,374.56,316.45,372.14,316.56z"/>
	</g>
	<g>
		<path class="st1" d="M569.93,230.1c-1.72,3.16-3.82,6.14-6.3,8.87c-2.48,2.73-5.97,4.93-10.46,6.58
			c-1.47,0.54-3.11,1.03-4.94,1.48c-1.83,0.46-3.39,0.58-4.68,0.38l31.7-49.01c-6.55-7.01-14.34-11.69-23.34-14.04
			c-9.01-2.34-18.39-1.73-28.15,1.86c-6.06,2.22-11.36,5.36-15.9,9.41c-4.55,4.05-8.09,8.82-10.63,14.28
			c-2.54,5.48-3.91,11.52-4.15,18.14c-0.22,6.62,1,13.59,3.69,20.92c0.58,1.59,1.26,3.13,1.99,4.62c1.43-0.38,2.89-0.72,4.37-0.97
			c3.51-0.57,6.98-0.82,10.33-0.68c4.05,0.27,7.46,1.65,10.25,4.1c2.71,2.39,4.64,5.46,5.73,9.1c1.06,3.58,1.2,7.5,0.4,11.67
			c-0.05,0.25-0.11,0.49-0.17,0.74c0.73,0.17,1.47,0.31,2.22,0.44c-0.1-0.8-0.17-1.6-0.17-2.41c0-8.51,1.57-14.68,4.8-18.86
			c3.25-4.2,8.42-6.95,15.38-8.17c3.23-0.58,5.98-0.85,8.13-0.79c2.33,0.07,4.17,0.38,5.66,0.93c1.61,0.62,2.82,1.38,3.7,2.34
			c0.71,0.78,1.25,1.5,1.68,2.22c0.04,0.07,0.07,0.14,0.12,0.21c1.06,2.12,0.73,4.23-0.86,5.67c-0.78,0.7-1.79,1.34-3.1,1.95
			c-0.94,0.45-2.05,1.02-3.37,1.73c-1,0.56-2.01,1.36-2.96,2.41c-0.94,1.03-1.76,2.4-2.43,4.13c-0.63,1.58-0.95,3.67-1,6.18
			c0.11-0.04,0.23-0.07,0.35-0.12c8.1-2.98,14.93-6.56,20.48-10.75c5.55-4.19,10.51-9.53,14.89-16.02L569.93,230.1z M530.57,200.16
			c1.9-3.64,6.95-4.76,11.26-2.5c4.32,2.26,6.27,7.04,4.37,10.68c-1.17,2.24-3.51,3.51-6.16,3.65c-1.51,2.98-3.92,5.37-3.92,5.37
			l-7.53-3.93c0.18-1.83,1.56-4.64,2.41-6.25C529.68,204.96,529.42,202.35,530.57,200.16z M535.64,227.91l-0.49,0.95
			c-0.25,0.49-0.87,0.68-1.37,0.42l-4.39-2.3c2.27,2.51,2.87,6.25,1.21,9.42c-2.12,4.06-7.15,5.64-11.23,3.52
			c-4.06-2.13-5.64-7.16-3.51-11.22c1.65-3.17,5.07-4.81,8.42-4.38l-4.39-2.31c-0.5-0.25-0.69-0.86-0.43-1.36l0.5-0.95
			c0.26-0.49,0.87-0.69,1.37-0.43l13.89,7.27C535.71,226.8,535.91,227.42,535.64,227.91z M541.68,228.89l-25.98-13.58
			c-0.92-0.48-1.26-1.68-0.74-2.66l0.98-1.9c0.51-0.98,1.69-1.39,2.61-0.91l25.98,13.58c0.93,0.48,1.26,1.68,0.75,2.67l-0.99,1.89
			C543.78,228.97,542.61,229.38,541.68,228.89z"/>
		<path class="st1" d="M525.95,227.36c-2.87-1.49-6.41-0.39-7.91,2.47c-1.5,2.87-0.4,6.41,2.47,7.91c2.86,1.51,6.41,0.39,7.91-2.48
			C529.92,232.4,528.81,228.86,525.95,227.36z"/>
		<path class="st2" d="M536.12,217.36c0,0,2.41-2.39,3.92-5.37c2.64-0.14,4.99-1.41,6.16-3.65c1.91-3.64-0.04-8.42-4.37-10.68
			c-4.31-2.25-9.36-1.14-11.26,2.5c-1.15,2.19-0.89,4.8,0.44,7.02c-0.86,1.62-2.23,4.43-2.41,6.25L536.12,217.36z"/>
		<path class="st2" d="M544.29,227.97l0.99-1.89c0.52-0.98,0.18-2.19-0.75-2.67l-25.98-13.58c-0.92-0.48-2.09-0.07-2.61,0.91
			l-0.98,1.9c-0.52,0.98-0.18,2.18,0.74,2.66l25.98,13.58C542.61,229.38,543.78,228.97,544.29,227.97z"/>
		<path class="st2" d="M535.21,226.55l-13.89-7.27c-0.49-0.26-1.1-0.06-1.37,0.43l-0.5,0.95c-0.25,0.5-0.07,1.1,0.43,1.36l4.39,2.31
			c-3.35-0.43-6.77,1.21-8.42,4.38c-2.13,4.06-0.56,9.09,3.51,11.22c4.07,2.12,9.11,0.55,11.23-3.52c1.66-3.17,1.06-6.91-1.21-9.42
			l4.39,2.3c0.5,0.26,1.11,0.07,1.37-0.42l0.49-0.95C535.91,227.42,535.71,226.8,535.21,226.55z M528.42,235.26
			c-1.49,2.87-5.04,3.99-7.91,2.48c-2.87-1.5-3.98-5.03-2.47-7.91c1.5-2.86,5.03-3.97,7.91-2.47
			C528.81,228.86,529.92,232.4,528.42,235.26z"/>
	</g>
	<path class="st3" d="M208.1,277.84c0.21-5.39,0.47-9.91,0.74-13.44c0.44-5.67,0.9-6.68,1.5-7.49c0.05-0.07,0.11-0.13,0.17-0.21
		c1.64-1.82,3.74-2.65,6.07-2.37c1.78,0.22,3.54,0.91,5.24,2.04c1.48,0.98,2.9,2.18,4.19,3.53c1.3,1.37,2.25,2.54,2.91,3.6
		c0.86,1.29,1.5,3.15,1.9,5.62c0.24,1.49,0.44,2.97,0.6,4.43c1.31-1.86,2.9-3.76,4.76-5.65c2.45-2.52,5.4-4.65,8.74-6.32
		c3.65-1.83,7.74-2.31,12.11-1.41c2.88,0.6,5.82,1.65,8.76,3.13c3,1.5,5.74,3.48,8.15,5.88c0.79,0.8,1.51,1.67,2.2,2.58
		c0.39-0.71,0.78-1.43,1.2-2.15c1.76-3.17,4.13-6.02,6.97-8.37c1.66-1.38,3.43-2.59,5.28-3.66l0.48-26.52l-44.62,4.21l0.31-8.58
		l26.05-2.03l3.28-27.3l-28.39,2.03l0.15-7.49l39.16-1.71l4.83-39.46l-86.11,6.39l1.1,121.52l2.22-0.11
		C208.08,278.29,208.08,278.06,208.1,277.84z"/>
	<g>
		<path class="st3" d="M305.38,274.14c-1.26,0.83-2.28,1.98-3.11,3.49l6.81,0.49c0.75-1.24,1.36-2.4,1.74-3.43
			c0.48-1.28,0.83-2.38,1.04-3.3c-0.67,0.16-1.32,0.35-1.96,0.56C308.37,272.42,306.87,273.15,305.38,274.14z"/>
		<path class="st3" d="M303.61,252.63c3.51-0.57,6.98-0.82,10.33-0.68c4.04,0.27,7.46,1.65,10.25,4.1c1.19,1.05,2.23,2.25,3.11,3.55
			l-0.41-36.5c0-2.08,0.8-3.71,2.42-4.92c1.61-1.19,3.41-1.8,5.38-1.8c2.08,0,3.88,0.63,5.38,1.87c1.51,1.25,2.21,2.81,2.11,4.68
			l-0.35,41.57c0.71-0.43,1.45-0.84,2.19-1.21c2.94-1.47,5.88-2.52,8.75-3.13c4.39-0.9,8.48-0.42,12.13,1.41
			c3.34,1.68,6.28,3.8,8.75,6.33c0.62,0.62,1.19,1.26,1.75,1.89v-53.25c0-4.37-0.6-8.43-1.79-12.17c-1.2-3.75-2.94-7.02-5.23-9.83
			c-2.29-2.81-5.1-4.98-8.42-6.55c-3.33-1.56-7.17-2.34-11.54-2.34c-4.27,0-8.19,0.83-11.78,2.5c-3.59,1.65-7.1,4.83-10.53,9.51
			h-0.62v-12.01l-32.45,2.65l0.95,67.08C297.04,254.12,300.26,253.19,303.61,252.63z"/>
	</g>
	<path class="st3" d="M385.66,250.55c0,1.26,0.05,2.47,0.13,3.63c0.74-0.16,1.49-0.3,2.28-0.41c1.86-0.25,3.73-0.25,5.58,0
		c2.31,0.32,4.22,1.3,5.69,2.93c0.06,0.08,0.12,0.14,0.18,0.23c0.71,0.95,1.1,2.31,1.34,7.48c0.04,0.71,0.07,1.47,0.1,2.27
		c0.16-0.22,0.32-0.42,0.5-0.61c0.06-0.06,0.14-0.12,0.21-0.18c1-0.83,2.58-1.56,5.12-2.37c2.32-0.74,4.78-1.14,7.3-1.2l0.5-0.01
		c2.48,0,4.75,0.45,6.76,1.32c1.7,0.74,4.49,2.71,4.28,7.52c0,0.05,0,0.11-0.01,0.17c-0.07,0.74-0.18,2.26-0.31,5.38
		c-0.03,0.77-0.06,1.59-0.08,2.43c0.58-0.05,1.16-0.12,1.77-0.19l5.45-30.89c-0.73,0.21-1.51,0.37-2.34,0.47
		c-0.83,0.1-1.92,0.15-3.28,0.15c-3.12,0-5.13-0.52-6-1.56c-0.89-1.03-1.33-3.12-1.33-6.24v-27.29h10.61l1.71-28.7l-12.63,1.86
		v-25.57l-33.86,15.28v10.29h-7.33l-0.94,27l8.58-0.16V250.55z"/>
	<path class="st3" d="M444.59,278.07c0.63-1.74,2.09-3.22,4.38-4.43c2.3-1.22,4.86-1.97,7.6-2.22c2.82-0.26,5.53,0.1,8.08,1.09
		c1.9,0.73,3.36,1.92,4.33,3.47h0v-40.08c0-6.13,1.59-10.63,4.76-13.49c3.18-2.86,6.94-4.29,11.31-4.29c1.35,0,2.4,0,3.12,0
		c0.84,0,1.62,0.05,2.35,0.15l8.11-33.23c-2.5-0.32-5.15-0.47-7.96-0.47c-12.89,0-20.69,5.78-23.39,17.32h-0.31v-17.32l-31.67,2.81
		l0.94,91.42L444.59,278.07z"/>
	<g>
		<path class="st1" d="M590.98,188.64c-0.08-1.53-0.18-3.37-0.16-4.74h-0.05c-0.37,1.29-0.83,2.66-1.39,4.17l-1.94,5.33h-1.08
			l-1.78-5.23c-0.52-1.55-0.96-2.97-1.27-4.27h-0.03c-0.03,1.37-0.11,3.21-0.21,4.86l-0.29,4.71h-1.35l0.77-10.98h1.81l1.87,5.31
			c0.46,1.35,0.83,2.56,1.11,3.7h0.05c0.28-1.11,0.67-2.31,1.16-3.7l1.96-5.31h1.81l0.68,10.98h-1.38L590.98,188.64z"/>
		<path class="st1" d="M594.83,182.62c0.72-0.15,1.74-0.23,2.72-0.23c1.52,0,2.49,0.28,3.18,0.9c0.55,0.49,0.86,1.24,0.86,2.09
			c0,1.45-0.91,2.41-2.07,2.8v0.05c0.85,0.29,1.35,1.07,1.61,2.22c0.36,1.53,0.62,2.59,0.85,3.01h-1.47
			c-0.18-0.31-0.42-1.25-0.73-2.62c-0.33-1.52-0.91-2.09-2.2-2.13h-1.34v4.76h-1.42V182.62z M596.25,187.63h1.45
			c1.52,0,2.48-0.83,2.48-2.09c0-1.42-1.03-2.04-2.53-2.05c-0.68,0-1.17,0.07-1.4,0.13V187.63z"/>
	</g>
	<g>
		<path class="st0" d="M199.98,420.03h-3.02v8.42h-3.24v-25.72h7.36c2.15,0.29,3.94,1.16,5.38,2.61c1.68,1.68,2.52,3.69,2.52,6.02
			c0,2.35-0.86,4.39-2.59,6.11c-1.14,1.16-2.16,1.84-3.04,2.06l5.77,8.92h-3.74L199.98,420.03z M196.96,405.55v11.65h3.18
			c1.5,0,2.81-0.56,3.93-1.67c1.12-1.11,1.68-2.5,1.68-4.17c0-1.66-0.56-3.04-1.68-4.15c-1.12-1.11-2.43-1.66-3.93-1.66H196.96z"/>
		<path class="st0" d="M213.92,419.78v0.05c0,1.74,0.59,3.2,1.77,4.38c1.18,1.18,2.57,1.77,4.18,1.77c1.6,0,3-0.6,4.2-1.81
			c0.17-0.17,0.49-0.54,0.97-1.13l3.04,1.07c-0.45,0.76-0.98,1.44-1.57,2.02c-1.81,1.82-4.02,2.73-6.63,2.73
			c-2.59,0-4.78-0.9-6.57-2.69c-1.79-1.79-2.69-3.91-2.69-6.35c0-2.47,0.9-4.59,2.69-6.38c1.79-1.79,3.98-2.68,6.57-2.68
			c2.61,0,4.82,0.91,6.63,2.72c1.56,1.57,2.34,3.67,2.34,6.29H213.92z M214.49,416.96h10.71c-0.76-2.22-2.54-3.32-5.33-3.32
			C217.07,413.63,215.28,414.74,214.49,416.96z"/>
		<path class="st0" d="M244.69,423.23l3.07,1.13c-0.61,0.82-1.09,1.42-1.45,1.79c-1.81,1.82-4.02,2.73-6.63,2.73
			c-2.59,0-4.78-0.9-6.57-2.69c-1.79-1.79-2.69-3.92-2.69-6.37s0.9-4.58,2.69-6.36c1.79-1.79,3.98-2.68,6.57-2.68
			c2.61,0,4.8,0.88,6.56,2.65c0.4,0.41,0.91,1.02,1.52,1.84l-3.07,1.14c-0.43-0.54-0.72-0.89-0.88-1.05
			c-1.16-1.14-2.53-1.72-4.13-1.72c-1.6,0-2.99,0.59-4.17,1.78s-1.77,2.65-1.77,4.41c0,1.74,0.59,3.2,1.77,4.39s2.57,1.78,4.17,1.78
			c1.6,0,3-0.6,4.2-1.81C243.99,424.07,244.26,423.76,244.69,423.23z"/>
		<path class="st0" d="M254.04,407.46c0.44,0.42,0.65,0.9,0.65,1.42c0,0.55-0.22,1.03-0.65,1.46c-0.44,0.42-0.98,0.63-1.64,0.63
			c-0.68,0-1.23-0.21-1.66-0.63c-0.43-0.42-0.64-0.91-0.64-1.46c0-0.52,0.21-1,0.64-1.42c0.43-0.42,0.98-0.63,1.66-0.63
			C253.06,406.82,253.61,407.03,254.04,407.46z M254,412.11v16.34h-3.22v-16.34H254z"/>
		<path class="st0" d="M271.3,423.23l3.07,1.13c-0.61,0.82-1.09,1.42-1.45,1.79c-1.81,1.82-4.02,2.73-6.63,2.73
			c-2.59,0-4.78-0.9-6.57-2.69c-1.79-1.79-2.69-3.92-2.69-6.37s0.9-4.58,2.69-6.36c1.79-1.79,3.98-2.68,6.57-2.68
			c2.61,0,4.8,0.88,6.56,2.65c0.4,0.41,0.91,1.02,1.52,1.84l-3.07,1.14c-0.43-0.54-0.72-0.89-0.88-1.05
			c-1.16-1.14-2.53-1.72-4.13-1.72c-1.6,0-2.99,0.59-4.17,1.78s-1.77,2.65-1.77,4.41c0,1.74,0.59,3.2,1.77,4.39s2.57,1.78,4.17,1.78
			c1.6,0,3-0.6,4.2-1.81C270.6,424.07,270.87,423.76,271.3,423.23z"/>
		<path class="st0" d="M280.51,402.73v25.72h-3.24v-25.72H280.51z"/>
		<path class="st0" d="M302.12,428.45h-3.24v-2.86c-1.28,2.19-3.22,3.29-5.83,3.29c-2.59,0-4.78-0.9-6.57-2.69
			c-1.79-1.79-2.69-3.91-2.69-6.35c0-2.47,0.9-4.59,2.69-6.38c1.79-1.79,3.98-2.68,6.57-2.68c2.61,0,4.55,1.08,5.83,3.25v-1.91h3.24
			V428.45z M298.88,421.12v-2.61c-0.23-1.18-0.77-2.2-1.63-3.06c-1.2-1.22-2.6-1.82-4.2-1.82c-1.61,0-3,0.6-4.18,1.79
			s-1.77,2.66-1.77,4.42c0,1.74,0.59,3.2,1.77,4.38s2.57,1.77,4.18,1.77c1.6,0,3-0.6,4.2-1.81
			C298.12,423.32,298.66,422.3,298.88,421.12z"/>
		<path class="st0" d="M309.63,424.5l-3.5,7.28h-3.06l1.95-7.28H309.63z"/>
		<path class="st0" d="M328.7,420.03h-3.02v8.42h-3.24v-25.72h7.36c2.15,0.29,3.94,1.16,5.38,2.61c1.68,1.68,2.52,3.69,2.52,6.02
			c0,2.35-0.86,4.39-2.59,6.11c-1.14,1.16-2.16,1.84-3.04,2.06l5.77,8.92h-3.74L328.7,420.03z M325.68,405.55v11.65h3.18
			c1.5,0,2.81-0.56,3.93-1.67c1.12-1.11,1.68-2.5,1.68-4.17c0-1.66-0.56-3.04-1.68-4.15c-1.12-1.11-2.43-1.66-3.93-1.66H325.68z"/>
		<path class="st0" d="M342.64,419.78v0.05c0,1.74,0.59,3.2,1.77,4.38c1.18,1.18,2.57,1.77,4.18,1.77c1.6,0,3-0.6,4.2-1.81
			c0.17-0.17,0.49-0.54,0.97-1.13l3.04,1.07c-0.45,0.76-0.98,1.44-1.57,2.02c-1.81,1.82-4.02,2.73-6.63,2.73
			c-2.59,0-4.78-0.9-6.57-2.69c-1.79-1.79-2.69-3.91-2.69-6.35c0-2.47,0.9-4.59,2.69-6.38c1.79-1.79,3.98-2.68,6.57-2.68
			c2.61,0,4.82,0.91,6.63,2.72c1.56,1.57,2.34,3.67,2.34,6.29H342.64z M343.22,416.96h10.71c-0.76-2.22-2.54-3.32-5.33-3.32
			C345.79,413.63,344,414.74,343.22,416.96z"/>
		<path class="st0" d="M373.41,423.23l3.07,1.13c-0.61,0.82-1.09,1.42-1.45,1.79c-1.81,1.82-4.02,2.73-6.63,2.73
			c-2.59,0-4.78-0.9-6.57-2.69c-1.79-1.79-2.69-3.92-2.69-6.37s0.9-4.58,2.69-6.36c1.79-1.79,3.98-2.68,6.57-2.68
			c2.61,0,4.8,0.88,6.56,2.65c0.4,0.41,0.91,1.02,1.52,1.84l-3.07,1.14c-0.43-0.54-0.72-0.89-0.88-1.05
			c-1.16-1.14-2.53-1.72-4.13-1.72c-1.6,0-2.99,0.59-4.17,1.78s-1.77,2.65-1.77,4.41c0,1.74,0.59,3.2,1.77,4.39s2.57,1.78,4.17,1.78
			c1.6,0,3-0.6,4.2-1.81C372.71,424.07,372.98,423.76,373.41,423.23z"/>
		<path class="st0" d="M386.04,428.67c-2.17,0-3.88-0.63-5.14-1.9c-1.26-1.26-1.9-2.81-1.94-4.65v-10.03h3.24v9.9
			c0,1.1,0.39,2.03,1.16,2.79c0.73,0.73,1.61,1.09,2.66,1.09c0.95,0,1.81-0.37,2.56-1.12c0.75-0.74,1.13-1.67,1.13-2.76v-9.9h3.24
			v10.03c-0.04,1.84-0.69,3.4-1.97,4.68C389.74,428.05,388.09,428.67,386.04,428.67z"/>
		<path class="st0" d="M396.14,412.11h3.24v1.88c1.27-2.13,3.21-3.2,5.81-3.2c2.6,0,4.79,0.89,6.58,2.67s2.68,3.91,2.68,6.37
			c0,2.44-0.89,4.56-2.68,6.35c-1.79,1.79-3.98,2.69-6.58,2.69c-2.6,0-4.53-1.08-5.81-3.24v8.49h-3.24V412.11z M399.38,418.46v2.75
			c0.21,1.16,0.77,2.17,1.66,3.06c1.17,1.16,2.55,1.73,4.15,1.73c1.6,0,2.99-0.59,4.17-1.78c1.19-1.19,1.78-2.65,1.78-4.39
			c0-1.75-0.59-3.22-1.78-4.42c-1.19-1.19-2.58-1.79-4.17-1.79c-1.6,0-3,0.61-4.22,1.82C400.12,416.3,399.59,417.3,399.38,418.46z"
			/>
		<path class="st0" d="M419.76,419.78v0.05c0,1.74,0.59,3.2,1.77,4.38c1.18,1.18,2.57,1.77,4.18,1.77c1.6,0,3-0.6,4.2-1.81
			c0.17-0.17,0.49-0.54,0.97-1.13l3.04,1.07c-0.45,0.76-0.98,1.44-1.57,2.02c-1.81,1.82-4.02,2.73-6.63,2.73
			c-2.59,0-4.78-0.9-6.57-2.69c-1.79-1.79-2.69-3.91-2.69-6.35c0-2.47,0.9-4.59,2.69-6.38c1.79-1.79,3.98-2.68,6.57-2.68
			c2.61,0,4.82,0.91,6.63,2.72c1.56,1.57,2.34,3.67,2.34,6.29H419.76z M420.33,416.96h10.71c-0.76-2.22-2.54-3.32-5.33-3.32
			C422.91,413.63,421.12,414.74,420.33,416.96z"/>
		<path class="st0" d="M444.59,414.54c-1.48,0.23-2.62,0.81-3.43,1.76c-0.81,0.95-1.22,2.14-1.22,3.57v8.58h-3.24v-16.34h3.24v2.32
			c0.48-1.27,1.5-2.16,3.07-2.66L444.59,414.54z"/>
		<path class="st0" d="M465.16,428.45h-3.24v-2.86c-1.28,2.19-3.22,3.29-5.83,3.29c-2.59,0-4.78-0.9-6.57-2.69
			c-1.79-1.79-2.69-3.91-2.69-6.35c0-2.47,0.9-4.59,2.69-6.38c1.79-1.79,3.98-2.68,6.57-2.68c2.61,0,4.55,1.08,5.83,3.25v-1.91h3.24
			V428.45z M461.93,421.12v-2.61c-0.23-1.18-0.77-2.2-1.63-3.06c-1.2-1.22-2.6-1.82-4.2-1.82c-1.61,0-3,0.6-4.18,1.79
			s-1.77,2.66-1.77,4.42c0,1.74,0.59,3.2,1.77,4.38s2.57,1.77,4.18,1.77c1.6,0,3-0.6,4.2-1.81
			C461.16,423.32,461.7,422.3,461.93,421.12z"/>
		<path class="st0" d="M481.32,434.12h-3.49l4.25-9.15l-5.99-12.85h3.49l4.25,9.03l4.25-9.03h3.49L481.32,434.12z"/>
		<path class="st0" d="M513.16,402.73l9.31,25.72h-3.36l-3.88-10.69h-6.99l-3.95,10.69h-3.38l9.44-25.72H513.16z M514.21,414.97
			l-2.47-6.83l-2.48,6.83H514.21z"/>
		<path class="st0" d="M524.2,402.73h3.24v9.38c0.55-0.6,1.68-0.89,3.4-0.89c2.06,0,3.72,0.63,4.99,1.89
			c1.26,1.26,1.91,2.81,1.93,4.63v10.71h-3.22v-10.56c0-1.11-0.38-2.03-1.13-2.76c-0.75-0.73-1.61-1.1-2.57-1.1
			c-0.95,0-1.79,0.35-2.52,1.04c-0.42,0.42-0.71,0.82-0.88,1.2v12.19h-3.24V402.73z"/>
		<path class="st0" d="M549.8,410.77c2.61,0,4.8,0.89,6.58,2.68c1.78,1.79,2.66,3.91,2.66,6.38c0,2.44-0.89,4.56-2.66,6.35
			c-1.78,1.79-3.97,2.69-6.58,2.69c-2.59,0-4.78-0.9-6.57-2.69c-1.79-1.79-2.69-3.91-2.69-6.35c0-2.47,0.9-4.59,2.69-6.38
			C545.03,411.67,547.22,410.77,549.8,410.77z M545.62,415.42c-1.18,1.19-1.77,2.66-1.77,4.42c0,1.74,0.59,3.2,1.77,4.38
			s2.57,1.77,4.18,1.77c1.6,0,2.99-0.59,4.17-1.77c1.19-1.18,1.78-2.64,1.78-4.38c0-1.75-0.59-3.22-1.78-4.42
			c-1.19-1.19-2.58-1.79-4.17-1.79C548.19,413.63,546.8,414.23,545.62,415.42z"/>
		<path class="st0" d="M569.59,414.54c-1.48,0.23-2.62,0.81-3.43,1.76c-0.81,0.95-1.22,2.14-1.22,3.57v8.58h-3.24v-16.34h3.24v2.32
			c0.48-1.27,1.5-2.16,3.07-2.66L569.59,414.54z"/>
		<path class="st0" d="M579.78,414.54c-1.48,0.23-2.62,0.81-3.43,1.76c-0.81,0.95-1.22,2.14-1.22,3.57v8.58h-3.24v-16.34h3.24v2.32
			c0.48-1.27,1.5-2.16,3.07-2.66L579.78,414.54z"/>
		<path class="st0" d="M600.35,428.45h-3.24v-2.86c-1.28,2.19-3.22,3.29-5.83,3.29c-2.59,0-4.78-0.9-6.57-2.69
			c-1.79-1.79-2.69-3.91-2.69-6.35c0-2.47,0.9-4.59,2.69-6.38c1.79-1.79,3.98-2.68,6.57-2.68c2.61,0,4.55,1.08,5.83,3.25v-1.91h3.24
			V428.45z M597.12,421.12v-2.61c-0.23-1.18-0.77-2.2-1.63-3.06c-1.2-1.22-2.6-1.82-4.2-1.82c-1.61,0-3,0.6-4.18,1.79
			s-1.77,2.66-1.77,4.42c0,1.74,0.59,3.2,1.77,4.38s2.57,1.77,4.18,1.77c1.6,0,3-0.6,4.2-1.81
			C596.35,423.32,596.89,422.3,597.12,421.12z"/>
		<path class="st0" d="M606.23,425.15c0.43,0.42,0.65,0.9,0.65,1.44s-0.22,1.02-0.65,1.44c-0.44,0.42-0.98,0.63-1.64,0.63
			c-0.68,0-1.23-0.21-1.66-0.63c-0.43-0.42-0.64-0.9-0.64-1.44s0.21-1.02,0.64-1.44c0.43-0.42,0.98-0.63,1.66-0.63
			C605.24,424.52,605.79,424.73,606.23,425.15z"/>
	</g>
</g>
</svg>
