<svg xmlns="http://www.w3.org/2000/svg" xml:space="preserve" id="A6" x="0" y="0" viewBox="0 0 793.7 609.45"><style>.st0{fill:#00a7e1}.st1{fill:#007934}</style><path d="M330.85 303.23c-1.1 0-2.19.85-3.27 2.53-1.09 1.7-2.48 3.64-4.17 5.81-1.69 2.19-3.79 4.25-6.29 6.21-2.52 1.97-5.72 3.22-9.66 3.77-1.85.23-3.46.11-4.82-.32-1.36-.44-2.53-1.08-3.51-1.96-.98-.87-1.77-1.91-2.37-3.1-.59-1.2-1.06-2.45-1.39-3.76-.87-3.06-1.2-6.61-.98-10.63 3.16.22 6.32-.16 9.49-1.14 2.72-.88 5.7-2.27 8.92-4.18 3.21-1.91 6.34-4.93 9.39-9.08 2.72-3.7 4.44-7.41 5.15-11.12.71-3.7.6-7.12-.33-10.22-.93-3.11-2.54-5.67-4.83-7.69-2.29-2.01-5.06-3.13-8.34-3.35-3.16-.1-6.41.11-9.73.65-3.33.55-6.49 1.47-9.49 2.78s-5.78 3.03-8.35 5.15c-2.56 2.13-4.65 4.67-6.29 7.61-1.4 2.33-2.56 4.65-3.49 6.94-1.23-2.63-2.8-4.88-4.68-6.78a28.9 28.9 0 0 0-7.36-5.31c-2.73-1.37-5.39-2.31-8.01-2.87-3.71-.75-7.09-.37-10.14 1.16s-5.7 3.43-7.93 5.71c-2.24 2.3-4.04 4.53-5.4 6.71q-2.04 3.27-2.7 4.26c-.55.65-.93.38-1.15-.83-.22-1.2-.4-2.75-.57-4.66-.16-1.91-.4-3.86-.73-5.88s-.82-3.52-1.48-4.5c-.54-.87-1.39-1.91-2.53-3.1-1.14-1.2-2.37-2.24-3.68-3.11-1.3-.87-2.61-1.39-3.92-1.56-1.31-.16-2.45.31-3.44 1.4-.32.43-.63 2.4-.89 5.88-.28 3.49-.53 7.94-.74 13.33-.23 5.4-.39 11.48-.49 18.23-.11 6.76-.16 13.66-.16 20.69 0 7.04.05 13.93.16 20.69.1 6.76.26 34.01.49 39.43.21 5.4.49 9.87.82 13.41.32 3.54.71 5.53 1.14 5.97 1.2 1.3 2.7 2.52 4.5 3.68 1.8 1.14 3.57 1.88 5.32 2.21 1.74.33 3.27.16 4.57-.5 1.32-.65 2.13-2.13 2.45-4.41.22-1.53.3-4.22.25-8.09-.05-3.88-.14-8.35-.25-13.41-.11-5.07-.19-31.68-.24-37.46s.08-11.36.41-16.77c.32-5.4.92-10.35 1.79-14.88.87-4.52 2.13-7.99 3.76-10.39 1.75-2.61 3.49-5.12 5.23-7.52s3.52-4.33 5.32-5.8 3.59-2.35 5.39-2.62 3.67.35 5.64 1.89c2.29 1.85 3.6 4.06 3.92 6.62.33 2.56.05 5.09-.82 7.61-.87 2.5-2.24 4.79-4.09 6.87-1.85 2.07-3.76 3.59-5.72 4.57-4.58 2.19-7.99 3.76-10.22 4.74-2.24.99-3.58 2.35-4.01 4.09-.43 1.75.38 2.97 2.45 3.69 2.08.71 6 .51 11.78-.58 8.4-1.53 15.1-4.71 20.11-9.57a24 24 0 0 0 3.19-3.8c.73 3.67 1.8 7.09 3.18 10.26 1.64 3.93 4.04 7.71 7.2 11.37 3.16 3.65 7.36 6.13 12.59 7.44 5.78 1.52 10.75 1.77 14.88.74q6.21-1.575 10.38-5.16c2.78-2.4 4.93-5.2 6.46-8.42 1.53-3.21 2.59-6.26 3.19-9.15s.79-5.34.58-7.37c-.19-2.04-.67-3.05-1.44-3.05m-35.65-16.68c.21-1.08.66-2.45 1.31-4.1.65-1.62 1.64-3.65 2.94-6.04 1.08-2.07 2.51-3.68 4.25-4.83s3.49-1.99 5.23-2.54c1.96-.65 4.04-1.08 6.21-1.31.22 1.1.16 2.28-.16 3.59-.22 1.21-.66 2.68-1.31 4.43-.65 1.74-1.75 3.71-3.28 5.88-1.63 2.19-3.38 3.83-5.23 4.91-1.86 1.08-3.55 1.86-5.07 2.28-1.85.44-3.66.66-5.4.66.02-.75.18-1.72.51-2.93m287.24 32.14c-1.25-2.89-2.97-5.73-5.15-8.5-2.18-2.78-4.64-5.5-7.36-8.18-2.72-2.67-5.24-5.4-7.52-8.18a53 53 0 0 1-5.81-8.58c-1.58-2.93-2.32-5.98-2.21-9.15 0-3.17.41-5.79 1.23-7.85.82-2.07 1.83-3.77 3.03-5.08 1.2-1.3 2.45-2.3 3.76-3.01s2.48-1.31 3.52-1.8c1.03-.49 1.83-.98 2.37-1.47.55-.49.6-1.16.17-2.04-.32-.54-.76-1.11-1.3-1.71-.56-.6-1.4-1.12-2.54-1.56-1.15-.44-2.71-.68-4.66-.74-1.96-.05-4.47.2-7.52.74-6.22 1.09-10.72 3.43-13.49 7.03-2.79 3.59-4.17 9.27-4.17 17 0 3.94 1.38 7.83 4.17 11.7 2.77 3.87 5.99 7.52 9.65 10.96 3.65 3.43 7.22 6.57 10.71 9.4 3.48 2.84 5.94 5.18 7.36 7.04 1.41 1.85 1.99 3.51 1.72 4.98s-1.06 2.72-2.37 3.76c-1.32 1.04-2.97 1.8-5 2.29-2.01.49-4 .69-5.97.58-3.16-.11-5.96-.77-8.42-1.97-2.45-1.19-4.47-2.64-6.05-4.33-1.59-1.68-2.59-3.49-3.03-5.4-.43-1.91-.21-3.62.67-5.15 1.85-3.06 2.37-5.29 1.55-6.71-.82-1.41-2.49-1.41-4.99 0q-1.41.78-3.21 1.98c-.27-.99-.67-1.5-1.21-1.5-1.09 0-2.18.85-3.27 2.53-1.09 1.7-2.48 3.64-4.17 5.81-1.69 2.19-3.79 4.25-6.3 6.21-2.51 1.97-5.72 3.22-9.65 3.77-1.85.23-3.46.11-4.83-.32-1.36-.44-2.53-1.08-3.51-1.96-.98-.87-1.77-1.91-2.37-3.1-.59-1.2-1.06-2.45-1.39-3.76-.87-3.06-1.2-6.61-.98-10.63q4.74.33 9.48-1.14c2.72-.88 5.7-2.27 8.92-4.18s6.35-4.93 9.4-9.08c2.72-3.7 4.44-7.41 5.15-11.12.71-3.7.6-7.12-.32-10.22-.93-3.11-2.54-5.67-4.82-7.69-2.29-2.01-5.07-3.13-8.34-3.35-3.16-.1-6.4.11-9.73.65-3.32.55-6.48 1.47-9.48 2.78s-5.78 3.03-8.34 5.15a26.8 26.8 0 0 0-6.3 7.61c-2.29 3.82-3.95 7.58-4.99 11.28-1.04 3.72-1.66 6.98-1.88 9.82-.44 3.38-.44 6.61 0 9.65.65 5.45 1.96 10.42 3.92 14.88 1.51 3.62 3.66 7.12 6.47 10.51-1.07.35-2.35.55-3.85.61-3.06.11-5.42-.79-7.1-2.7-1.7-1.9-2.95-4.36-3.77-7.36s-1.28-6.38-1.39-10.14c-.12-3.76-.09-7.42.08-10.96.16-3.54.3-6.82.41-9.81.11-3.01.05-5.32-.17-6.95-.33-2.29-1.56-3.84-3.68-4.67-2.13-.81-4.36-1.12-6.71-.89-2.34.22-4.49.84-6.46 1.88-1.96 1.04-3 2.21-3.1 3.52 0 .21-.23 1.22-.66 3.02-.44 1.8-1.06 4-1.88 6.63-.81 2.62-1.77 5.4-2.86 8.33-1.09 2.95-2.26 5.68-3.51 8.18-1.25 2.52-2.59 4.62-4.01 6.29-1.42 1.7-2.78 2.54-4.09 2.54-1.75.11-3.16-.76-4.25-2.62-1.09-1.85-1.91-4.23-2.45-7.11q-.81-4.335-1.14-9.57c-.22-3.49-.33-6.88-.33-10.15s.06-6.21.16-8.83c.11-2.62.22-4.46.33-5.56.11-2.29-.72-3.81-2.46-4.57-1.74-.77-3.74-1.13-5.97-1.07s-4.38.41-6.45 1.07c-2.08.65-3.44 1.25-4.09 1.8-.55.54-1.05 1.74-1.47 3.59-.44 1.86-.76 4.09-.98 6.71s-.32 5.46-.32 8.5c0 3.05.16 6.11.49 9.15.32 3.77.92 7.5 1.76 11.21-1.14.29-2.43.69-3.88 1.22q-.51.18-1.05.39c.06-4.46.11-8.88.14-13.22.06-6.7.03-12.72-.08-18.07-.11-5.34-.24-9.73-.41-13.17s-.41-5.37-.74-5.8c-.98-1.09-2.26-1.74-3.84-1.97q-2.385-.33-4.74 0c-1.57.22-3.05.55-4.42.98-1.36.44-2.26.77-2.7.98-.33.22-.55.95-.65 2.21-.11 1.25-.19 2.77-.25 4.58-.05 1.8-.05 3.67 0 5.64.06 1.97.06 3.73 0 5.32-.05 1.58-.14 2.84-.24 3.76-.11.92-.32 1.17-.65.74q-.66-.99-2.7-4.26c-1.37-2.18-3.16-4.41-5.4-6.71-2.23-2.28-4.87-4.19-7.93-5.71-3.05-1.53-6.43-1.91-10.13-1.16-2.62.56-5.29 1.5-8.02 2.87a28 28 0 0 0-7.36 5.31c-2.18 2.19-3.93 4.86-5.23 8.02-1.31 3.16-1.86 6.76-1.64 10.79.11 4.26.95 8.18 2.53 11.78 1.59 3.6 3.66 6.79 6.22 9.57s5.56 5.16 8.99 7.12a49.3 49.3 0 0 0 10.88 4.58c6.22 1.74 12.32 2.31 18.31 1.71.59-.06 1.16-.12 1.74-.19.13 10.79-.13 37.1-.18 40.27-.06 3.71.02 6.33.25 7.86.32 2.29 1.36 4.19 3.1 5.72s3.6 2.5 5.56 2.95c1.96.43 3.78.16 5.48-.83 1.69-.98 2.59-2.83 2.69-5.55 0-.65.06-2.78.17-6.38.1-3.59.21-.14.33-5.58.1-5.45.24-28.06.4-34.82.13-5.38.24-5.39.34-8.7q4.32-2.115 7.11-4.71c.12-.12.24-.23.35-.34a37 37 0 0 0 1.69 3.37 27 27 0 0 0 7.02 8.09c2.89 2.24 6.58 3.67 11.05 4.34 4.47.65 8.25-.03 11.36-2.04 3.11-2.02 5.64-4.45 7.6-7.27 2.29-3.17 4.14-6.94 5.56-11.3-.55 4.58-.27 8.78.82 12.59.44 1.64 1.06 3.27 1.88 4.91.82 1.62 1.94 3.13 3.36 4.49 1.42 1.37 3.11 2.56 5.07 3.61 1.96 1.03 4.36 1.76 7.2 2.2 3.93.66 7.33.71 10.22.16 2.89-.54 5.34-1.41 7.36-2.61 1.28-.76 2.41-1.59 3.38-2.51 2.17 1.32 4.61 2.32 7.33 3 5.78 1.52 10.74 1.77 14.88.74 4.14-1.05 7.61-2.77 10.39-5.16.98-.85 1.88-1.75 2.71-2.7.05.19.1.38.15.58.76 3.04 2.67 5.55 5.73 7.52 3.05 1.96 6.68 3.4 10.87 4.33 4.2.92 8.69 1.34 13.49 1.23 4.8-.12 9.27-.74 13.41-1.89 4.14-1.14 7.66-2.78 10.55-4.9 2.88-2.13 4.6-4.72 5.15-7.77.4-3.07 0-6.04-1.26-8.93m-87.73-32.14c.22-1.08.66-2.45 1.31-4.1.65-1.62 1.63-3.65 2.94-6.04 1.09-2.07 2.51-3.68 4.25-4.83s3.49-1.99 5.23-2.54c1.96-.65 4.03-1.08 6.22-1.31.21 1.1.16 2.28-.17 3.59-.22 1.21-.65 2.68-1.3 4.43-.66 1.74-1.75 3.71-3.27 5.88-1.64 2.19-3.38 3.83-5.23 4.91-1.86 1.08-3.55 1.86-5.07 2.28-1.86.44-3.65.66-5.4.66 0-.75.16-1.72.49-2.93m-122.57 30.01c-3.32.17-6.45-.35-9.4-1.55-2.95-1.19-5.56-3.22-7.86-6.05-2.28-2.83-3.97-5.94-5.07-9.32-1.09-3.38-1.47-6.65-1.14-9.82.33-3.16 1.64-5.67 3.93-7.51q2.94-2.295 5.64-1.89c1.8.26 3.61 1.14 5.41 2.62 1.79 1.47 3.57 3.4 5.31 5.8 1.74 2.41 3.49 4.91 5.23 7.52 1.64 2.52 2.89 5.92 3.76 10.22.58 2.84 1.03 5.86 1.36 9.05-2.36.5-4.75.82-7.17.93" class="st0"/><path d="M569.93 230.1a45.6 45.6 0 0 1-6.3 8.87c-2.48 2.73-5.97 4.93-10.46 6.58-1.47.54-3.11 1.03-4.94 1.48-1.83.46-3.39.58-4.68.38l31.7-49.01c-6.55-7.01-14.34-11.69-23.34-14.04-9.01-2.34-18.39-1.73-28.15 1.86-6.06 2.22-11.36 5.36-15.9 9.41-4.55 4.05-8.09 8.82-10.63 14.28-2.54 5.48-3.91 11.52-4.15 18.14-.22 6.62 1 13.59 3.69 20.92a48 48 0 0 0 1.99 4.62c1.43-.38 2.89-.72 4.37-.97 3.51-.57 6.98-.82 10.33-.68 4.05.27 7.46 1.65 10.25 4.1 2.71 2.39 4.64 5.46 5.73 9.1 1.06 3.58 1.2 7.5.4 11.67-.05.25-.11.49-.17.74.73.17 1.47.31 2.22.44-.1-.8-.17-1.6-.17-2.41 0-8.51 1.57-14.68 4.8-18.86 3.25-4.2 8.42-6.95 15.38-8.17 3.23-.58 5.98-.85 8.13-.79 2.33.07 4.17.38 5.66.93 1.61.62 2.82 1.38 3.7 2.34.71.78 1.25 1.5 1.68 2.22.04.07.07.14.12.21 1.06 2.12.73 4.23-.86 5.67-.78.7-1.79 1.34-3.1 1.95-.94.45-2.05 1.02-3.37 1.73-1 .56-2.01 1.36-2.96 2.41-.94 1.03-1.76 2.4-2.43 4.13-.63 1.58-.95 3.67-1 6.18.11-.04.23-.07.35-.12 8.1-2.98 14.93-6.56 20.48-10.75s10.51-9.53 14.89-16.02zm-39.36-29.94c1.9-3.64 6.95-4.76 11.26-2.5 4.32 2.26 6.27 7.04 4.37 10.68-1.17 2.24-3.51 3.51-6.16 3.65-1.51 2.98-3.92 5.37-3.92 5.37l-7.53-3.93c.18-1.83 1.56-4.64 2.41-6.25-1.32-2.22-1.58-4.83-.43-7.02m5.07 27.75-.49.95c-.25.49-.87.68-1.37.42l-4.39-2.3c2.27 2.51 2.87 6.25 1.21 9.42-2.12 4.06-7.15 5.64-11.23 3.52-4.06-2.13-5.64-7.16-3.51-11.22 1.65-3.17 5.07-4.81 8.42-4.38l-4.39-2.31a1 1 0 0 1-.43-1.36l.5-.95c.26-.49.87-.69 1.37-.43l13.89 7.27c.49.26.69.88.42 1.37m6.04.98-25.98-13.58c-.92-.48-1.26-1.68-.74-2.66l.98-1.9c.51-.98 1.69-1.39 2.61-.91l25.98 13.58c.93.48 1.26 1.68.75 2.67l-.99 1.89c-.51.99-1.68 1.4-2.61.91" class="st1"/><path d="M525.95 227.36c-2.87-1.49-6.41-.39-7.91 2.47-1.5 2.87-.4 6.41 2.47 7.91 2.86 1.51 6.41.39 7.91-2.48 1.5-2.86.39-6.4-2.47-7.9" class="st1"/><path d="M536.12 217.36s2.41-2.39 3.92-5.37c2.64-.14 4.99-1.41 6.16-3.65 1.91-3.64-.04-8.42-4.37-10.68-4.31-2.25-9.36-1.14-11.26 2.5-1.15 2.19-.89 4.8.44 7.02-.86 1.62-2.23 4.43-2.41 6.25zm8.17 10.61.99-1.89c.52-.98.18-2.19-.75-2.67l-25.98-13.58c-.92-.48-2.09-.07-2.61.91l-.98 1.9c-.52.98-.18 2.18.74 2.66l25.98 13.58c.93.5 2.1.09 2.61-.91m-9.08-1.42-13.89-7.27c-.49-.26-1.1-.06-1.37.43l-.5.95c-.25.5-.07 1.1.43 1.36l4.39 2.31c-3.35-.43-6.77 1.21-8.42 4.38-2.13 4.06-.56 9.09 3.51 11.22 4.07 2.12 9.11.55 11.23-3.52 1.66-3.17 1.06-6.91-1.21-9.42l4.39 2.3c.5.26 1.11.07 1.37-.42l.49-.95a.99.99 0 0 0-.42-1.37m-6.79 8.71a5.85 5.85 0 0 1-7.91 2.48 5.845 5.845 0 0 1-2.47-7.91 5.863 5.863 0 0 1 7.91-2.47c2.86 1.5 3.97 5.04 2.47 7.9" style="fill:#fff"/><path d="M208.1 277.84c.21-5.39.47-9.91.74-13.44.44-5.67.9-6.68 1.5-7.49.05-.07.11-.13.17-.21 1.64-1.82 3.74-2.65 6.07-2.37 1.78.22 3.54.91 5.24 2.04 1.48.98 2.9 2.18 4.19 3.53 1.3 1.37 2.25 2.54 2.91 3.6.86 1.29 1.5 3.15 1.9 5.62.24 1.49.44 2.97.6 4.43 1.31-1.86 2.9-3.76 4.76-5.65 2.45-2.52 5.4-4.65 8.74-6.32 3.65-1.83 7.74-2.31 12.11-1.41 2.88.6 5.82 1.65 8.76 3.13 3 1.5 5.74 3.48 8.15 5.88.79.8 1.51 1.67 2.2 2.58.39-.71.78-1.43 1.2-2.15 1.76-3.17 4.13-6.02 6.97-8.37 1.66-1.38 3.43-2.59 5.28-3.66l.48-26.52-44.62 4.21.31-8.58 26.05-2.03 3.28-27.3-28.39 2.03.15-7.49 39.16-1.71 4.83-39.46-86.11 6.39 1.1 121.52 2.22-.11c.03-.24.03-.47.05-.69m97.28-3.7c-1.26.83-2.28 1.98-3.11 3.49l6.81.49c.75-1.24 1.36-2.4 1.74-3.43.48-1.28.83-2.38 1.04-3.3-.67.16-1.32.35-1.96.56-1.53.47-3.03 1.2-4.52 2.19m-1.77-21.51c3.51-.57 6.98-.82 10.33-.68 4.04.27 7.46 1.65 10.25 4.1 1.19 1.05 2.23 2.25 3.11 3.55l-.41-36.5c0-2.08.8-3.71 2.42-4.92 1.61-1.19 3.41-1.8 5.38-1.8 2.08 0 3.88.63 5.38 1.87 1.51 1.25 2.21 2.81 2.11 4.68l-.35 41.57c.71-.43 1.45-.84 2.19-1.21 2.94-1.47 5.88-2.52 8.75-3.13 4.39-.9 8.48-.42 12.13 1.41 3.34 1.68 6.28 3.8 8.75 6.33.62.62 1.19 1.26 1.75 1.89v-53.25c0-4.37-.6-8.43-1.79-12.17-1.2-3.75-2.94-7.02-5.23-9.83s-5.1-4.98-8.42-6.55c-3.33-1.56-7.17-2.34-11.54-2.34-4.27 0-8.19.83-11.78 2.5-3.59 1.65-7.1 4.83-10.53 9.51h-.62v-12.01l-32.45 2.65.95 67.08c3.05-1.26 6.27-2.19 9.62-2.75m82.05-2.08c0 1.26.05 2.47.13 3.63.74-.16 1.49-.3 2.28-.41 1.86-.25 3.73-.25 5.58 0 2.31.32 4.22 1.3 5.69 2.93.06.08.12.14.18.23.71.95 1.1 2.31 1.34 7.48.04.71.07 1.47.1 2.27.16-.22.32-.42.5-.61.06-.06.14-.12.21-.18 1-.83 2.58-1.56 5.12-2.37 2.32-.74 4.78-1.14 7.3-1.2l.5-.01c2.48 0 4.75.45 6.76 1.32 1.7.74 4.49 2.71 4.28 7.52 0 .05 0 .11-.01.17-.07.74-.18 2.26-.31 5.38-.03.77-.06 1.59-.08 2.43.58-.05 1.16-.12 1.77-.19l5.45-30.89c-.73.21-1.51.37-2.34.47s-1.92.15-3.28.15c-3.12 0-5.13-.52-6-1.56-.89-1.03-1.33-3.12-1.33-6.24v-27.29h10.61l1.71-28.7-12.63 1.86v-25.57l-33.86 15.28v10.29H378l-.94 27 8.58-.16v36.97zm58.93 27.52c.63-1.74 2.09-3.22 4.38-4.43 2.3-1.22 4.86-1.97 7.6-2.22 2.82-.26 5.53.1 8.08 1.09 1.9.73 3.36 1.92 4.33 3.47V235.9c0-6.13 1.59-10.63 4.76-13.49 3.18-2.86 6.94-4.29 11.31-4.29h3.12c.84 0 1.62.05 2.35.15l8.11-33.23c-2.5-.32-5.15-.47-7.96-.47-12.89 0-20.69 5.78-23.39 17.32h-.31v-17.32l-31.67 2.81.94 91.42z" style="fill:#61a60e"/><path d="M590.98 188.64c-.08-1.53-.18-3.37-.16-4.74h-.05c-.37 1.29-.83 2.66-1.39 4.17l-1.94 5.33h-1.08l-1.78-5.23c-.52-1.55-.96-2.97-1.27-4.27h-.03c-.03 1.37-.11 3.21-.21 4.86l-.29 4.71h-1.35l.77-10.98h1.81l1.87 5.31c.46 1.35.83 2.56 1.11 3.7h.05c.28-1.11.67-2.31 1.16-3.7l1.96-5.31h1.81l.68 10.98h-1.38zm3.85-6.02c.72-.15 1.74-.23 2.72-.23 1.52 0 2.49.28 3.18.9.55.49.86 1.24.86 2.09 0 1.45-.91 2.41-2.07 2.8v.05c.85.29 1.35 1.07 1.61 2.22.36 1.53.62 2.59.85 3.01h-1.47c-.18-.31-.42-1.25-.73-2.62-.33-1.52-.91-2.09-2.2-2.13h-1.34v4.76h-1.42v-10.85zm1.42 5.01h1.45c1.52 0 2.48-.83 2.48-2.09 0-1.42-1.03-2.04-2.53-2.05-.68 0-1.17.07-1.4.13z" class="st1"/><path d="M199.98 420.03h-3.02v8.42h-3.24v-25.72h7.36c2.15.29 3.94 1.16 5.38 2.61 1.68 1.68 2.52 3.69 2.52 6.02 0 2.35-.86 4.39-2.59 6.11-1.14 1.16-2.16 1.84-3.04 2.06l5.77 8.92h-3.74zm-3.02-14.48v11.65h3.18c1.5 0 2.81-.56 3.93-1.67q1.68-1.665 1.68-4.17c0-1.66-.56-3.04-1.68-4.15s-2.43-1.66-3.93-1.66zm16.96 14.23v.05q0 2.61 1.77 4.38c1.18 1.18 2.57 1.77 4.18 1.77 1.6 0 3-.6 4.2-1.81.17-.17.49-.54.97-1.13l3.04 1.07c-.45.76-.98 1.44-1.57 2.02q-2.715 2.73-6.63 2.73c-2.59 0-4.78-.9-6.57-2.69s-2.69-3.91-2.69-6.35c0-2.47.9-4.59 2.69-6.38s3.98-2.68 6.57-2.68c2.61 0 4.82.91 6.63 2.72 1.56 1.57 2.34 3.67 2.34 6.29h-14.93zm.57-2.82h10.71c-.76-2.22-2.54-3.32-5.33-3.32-2.8-.01-4.59 1.1-5.38 3.32m30.2 6.27 3.07 1.13c-.61.82-1.09 1.42-1.45 1.79q-2.715 2.73-6.63 2.73c-2.59 0-4.78-.9-6.57-2.69s-2.69-3.92-2.69-6.37.9-4.58 2.69-6.36c1.79-1.79 3.98-2.68 6.57-2.68 2.61 0 4.8.88 6.56 2.65.4.41.91 1.02 1.52 1.84l-3.07 1.14c-.43-.54-.72-.89-.88-1.05-1.16-1.14-2.53-1.72-4.13-1.72s-2.99.59-4.17 1.78-1.77 2.65-1.77 4.41c0 1.74.59 3.2 1.77 4.39s2.57 1.78 4.17 1.78 3-.6 4.2-1.81c.11-.12.38-.43.81-.96m9.35-15.77c.44.42.65.9.65 1.42 0 .55-.22 1.03-.65 1.46-.44.42-.98.63-1.64.63-.68 0-1.23-.21-1.66-.63s-.64-.91-.64-1.46c0-.52.21-1 .64-1.42s.98-.63 1.66-.63c.66-.01 1.21.2 1.64.63m-.04 4.65v16.34h-3.22v-16.34zm17.3 11.12 3.07 1.13c-.61.82-1.09 1.42-1.45 1.79q-2.715 2.73-6.63 2.73c-2.59 0-4.78-.9-6.57-2.69s-2.69-3.92-2.69-6.37.9-4.58 2.69-6.36c1.79-1.79 3.98-2.68 6.57-2.68 2.61 0 4.8.88 6.56 2.65.4.41.91 1.02 1.52 1.84l-3.07 1.14c-.43-.54-.72-.89-.88-1.05-1.16-1.14-2.53-1.72-4.13-1.72s-2.99.59-4.17 1.78-1.77 2.65-1.77 4.41c0 1.74.59 3.2 1.77 4.39s2.57 1.78 4.17 1.78 3-.6 4.2-1.81c.11-.12.38-.43.81-.96m9.21-20.5v25.72h-3.24v-25.72zm21.61 25.72h-3.24v-2.86c-1.28 2.19-3.22 3.29-5.83 3.29-2.59 0-4.78-.9-6.57-2.69s-2.69-3.91-2.69-6.35c0-2.47.9-4.59 2.69-6.38s3.98-2.68 6.57-2.68c2.61 0 4.55 1.08 5.83 3.25v-1.91h3.24zm-3.24-7.33v-2.61c-.23-1.18-.77-2.2-1.63-3.06-1.2-1.22-2.6-1.82-4.2-1.82-1.61 0-3 .6-4.18 1.79s-1.77 2.66-1.77 4.42q0 2.61 1.77 4.38c1.77 1.77 2.57 1.77 4.18 1.77 1.6 0 3-.6 4.2-1.81.87-.86 1.41-1.88 1.63-3.06m10.75 3.38-3.5 7.28h-3.06l1.95-7.28zm19.07-4.47h-3.02v8.42h-3.24v-25.72h7.36c2.15.29 3.94 1.16 5.38 2.61 1.68 1.68 2.52 3.69 2.52 6.02 0 2.35-.86 4.39-2.59 6.11-1.14 1.16-2.16 1.84-3.04 2.06l5.77 8.92h-3.74zm-3.02-14.48v11.65h3.18c1.5 0 2.81-.56 3.93-1.67q1.68-1.665 1.68-4.17c0-1.66-.56-3.04-1.68-4.15s-2.43-1.66-3.93-1.66zm16.96 14.23v.05q0 2.61 1.77 4.38c1.18 1.18 2.57 1.77 4.18 1.77 1.6 0 3-.6 4.2-1.81.17-.17.49-.54.97-1.13l3.04 1.07c-.45.76-.98 1.44-1.57 2.02q-2.715 2.73-6.63 2.73c-2.59 0-4.78-.9-6.57-2.69s-2.69-3.91-2.69-6.35c0-2.47.9-4.59 2.69-6.38s3.98-2.68 6.57-2.68c2.61 0 4.82.91 6.63 2.72 1.56 1.57 2.34 3.67 2.34 6.29h-14.93zm.58-2.82h10.71c-.76-2.22-2.54-3.32-5.33-3.32-2.81-.01-4.6 1.1-5.38 3.32m30.19 6.27 3.07 1.13c-.61.82-1.09 1.42-1.45 1.79q-2.715 2.73-6.63 2.73c-2.59 0-4.78-.9-6.57-2.69s-2.69-3.92-2.69-6.37.9-4.58 2.69-6.36c1.79-1.79 3.98-2.68 6.57-2.68 2.61 0 4.8.88 6.56 2.65.4.41.91 1.02 1.52 1.84l-3.07 1.14c-.43-.54-.72-.89-.88-1.05-1.16-1.14-2.53-1.72-4.13-1.72s-2.99.59-4.17 1.78-1.77 2.65-1.77 4.41c0 1.74.59 3.2 1.77 4.39s2.57 1.78 4.17 1.78 3-.6 4.2-1.81c.11-.12.38-.43.81-.96m12.63 5.44c-2.17 0-3.88-.63-5.14-1.9-1.26-1.26-1.9-2.81-1.94-4.65v-10.03h3.24v9.9c0 1.1.39 2.03 1.16 2.79.73.73 1.61 1.09 2.66 1.09.95 0 1.81-.37 2.56-1.12.75-.74 1.13-1.67 1.13-2.76v-9.9h3.24v10.03c-.04 1.84-.69 3.4-1.97 4.68-1.24 1.25-2.89 1.87-4.94 1.87m10.1-16.56h3.24v1.88c1.27-2.13 3.21-3.2 5.81-3.2s4.79.89 6.58 2.67 2.68 3.91 2.68 6.37c0 2.44-.89 4.56-2.68 6.35s-3.98 2.69-6.58 2.69-4.53-1.08-5.81-3.24v8.49h-3.24zm3.24 6.35v2.75c.21 1.16.77 2.17 1.66 3.06 1.17 1.16 2.55 1.73 4.15 1.73s2.99-.59 4.17-1.78c1.19-1.19 1.78-2.65 1.78-4.39 0-1.75-.59-3.22-1.78-4.42-1.19-1.19-2.58-1.79-4.17-1.79-1.6 0-3 .61-4.22 1.82-.85.86-1.38 1.86-1.59 3.02m20.38 1.32v.05q0 2.61 1.77 4.38c1.18 1.18 2.57 1.77 4.18 1.77 1.6 0 3-.6 4.2-1.81.17-.17.49-.54.97-1.13l3.04 1.07c-.45.76-.98 1.44-1.57 2.02q-2.715 2.73-6.63 2.73c-2.59 0-4.78-.9-6.57-2.69s-2.69-3.91-2.69-6.35c0-2.47.9-4.59 2.69-6.38s3.98-2.68 6.57-2.68c2.61 0 4.82.91 6.63 2.72 1.56 1.57 2.34 3.67 2.34 6.29h-14.93zm.57-2.82h10.71c-.76-2.22-2.54-3.32-5.33-3.32-2.8-.01-4.59 1.1-5.38 3.32m24.26-2.42c-1.48.23-2.62.81-3.43 1.76s-1.22 2.14-1.22 3.57v8.58h-3.24v-16.34h3.24v2.32c.48-1.27 1.5-2.16 3.07-2.66zm20.57 13.91h-3.24v-2.86c-1.28 2.19-3.22 3.29-5.83 3.29-2.59 0-4.78-.9-6.57-2.69s-2.69-3.91-2.69-6.35c0-2.47.9-4.59 2.69-6.38s3.98-2.68 6.57-2.68c2.61 0 4.55 1.08 5.83 3.25v-1.91h3.24zm-3.23-7.33v-2.61c-.23-1.18-.77-2.2-1.63-3.06-1.2-1.22-2.6-1.82-4.2-1.82-1.61 0-3 .6-4.18 1.79s-1.77 2.66-1.77 4.42q0 2.61 1.77 4.38c1.77 1.77 2.57 1.77 4.18 1.77 1.6 0 3-.6 4.2-1.81.86-.86 1.4-1.88 1.63-3.06m19.39 13h-3.49l4.25-9.15-5.99-12.85h3.49l4.25 9.03 4.25-9.03h3.49zm31.84-31.39 9.31 25.72h-3.36l-3.88-10.69h-6.99l-3.95 10.69h-3.38l9.44-25.72zm1.05 12.24-2.47-6.83-2.48 6.83zm9.99-12.24h3.24v9.38c.55-.6 1.68-.89 3.4-.89 2.06 0 3.72.63 4.99 1.89 1.26 1.26 1.91 2.81 1.93 4.63v10.71h-3.22v-10.56c0-1.11-.38-2.03-1.13-2.76s-1.61-1.1-2.57-1.1c-.95 0-1.79.35-2.52 1.04-.42.42-.71.82-.88 1.2v12.19h-3.24zm25.6 8.04c2.61 0 4.8.89 6.58 2.68s2.66 3.91 2.66 6.38c0 2.44-.89 4.56-2.66 6.35-1.78 1.79-3.97 2.69-6.58 2.69-2.59 0-4.78-.9-6.57-2.69s-2.69-3.91-2.69-6.35c0-2.47.9-4.59 2.69-6.38 1.8-1.78 3.99-2.68 6.57-2.68m-4.18 4.65c-1.18 1.19-1.77 2.66-1.77 4.42q0 2.61 1.77 4.38c1.77 1.77 2.57 1.77 4.18 1.77q2.4 0 4.17-1.77c1.19-1.18 1.78-2.64 1.78-4.38 0-1.75-.59-3.22-1.78-4.42-1.19-1.19-2.58-1.79-4.17-1.79-1.61 0-3 .6-4.18 1.79m23.97-.88c-1.48.23-2.62.81-3.43 1.76s-1.22 2.14-1.22 3.57v8.58h-3.24v-16.34h3.24v2.32c.48-1.27 1.5-2.16 3.07-2.66zm10.19 0c-1.48.23-2.62.81-3.43 1.76s-1.22 2.14-1.22 3.57v8.58h-3.24v-16.34h3.24v2.32c.48-1.27 1.5-2.16 3.07-2.66zm20.57 13.91h-3.24v-2.86c-1.28 2.19-3.22 3.29-5.83 3.29-2.59 0-4.78-.9-6.57-2.69s-2.69-3.91-2.69-6.35c0-2.47.9-4.59 2.69-6.38s3.98-2.68 6.57-2.68c2.61 0 4.55 1.08 5.83 3.25v-1.91h3.24zm-3.23-7.33v-2.61c-.23-1.18-.77-2.2-1.63-3.06-1.2-1.22-2.6-1.82-4.2-1.82-1.61 0-3 .6-4.18 1.79s-1.77 2.66-1.77 4.42q0 2.61 1.77 4.38c1.77 1.77 2.57 1.77 4.18 1.77 1.6 0 3-.6 4.2-1.81.86-.86 1.4-1.88 1.63-3.06m9.11 4.03c.43.42.65.9.65 1.44s-.22 1.02-.65 1.44c-.44.42-.98.63-1.64.63-.68 0-1.23-.21-1.66-.63s-.64-.9-.64-1.44.21-1.02.64-1.44.98-.63 1.66-.63c.65 0 1.2.21 1.64.63" class="st0"/></svg>